<mxfile host="Electron" agent="Mozilla/5.0 (Macintosh; Intel Mac OS X 10_15_7) AppleWebKit/537.36 (KHTML, like Gecko) draw.io/27.0.9 Chrome/134.0.6998.205 Electron/35.4.0 Safari/537.36" version="27.0.9">
  <diagram name="Seite-1" id="NKx-aorsqEUfFhax_ahi">
    <mxGraphModel dx="763" dy="549" grid="1" gridSize="10" guides="1" tooltips="1" connect="1" arrows="1" fold="1" page="1" pageScale="1" pageWidth="827" pageHeight="1169" math="0" shadow="0">
      <root>
        <mxCell id="0" />
        <mxCell id="1" parent="0" />
        <mxCell id="-GjU_IrM8_pYpkTcPefy-1" value="" style="shape=image;verticalLabelPosition=bottom;labelBackgroundColor=default;verticalAlign=top;aspect=fixed;imageAspect=0;image=data:image/png,iVBORw0KGgoAAAANSUhEUgAAAPEAAAF2CAYAAAC/CX7dAAABW2lDQ1BJQ0MgUHJvZmlsZQAAKJFtkL1Lw1AUxU+1EqhSHBxUHLIIKlVLWil1qwVFcAhV8WNLX9MPTNtHElFncRB0dRYHcRahDg7q5C5o1b/ApYuQRUu8z1Tbqg8u9/cOh/vOu0CHX+Pc8AMolmwzNTcjr66ty9IrJPQjgAiCGrN4QlUXyILv3n6cB/hEvx8Xs8JnsZvq3mGMnccHB6YL+3/9bSeQ0S1G/YNqjHHTBnwjxOqWzQVvE/eZFIr4QHDO42PBaY8vvjxLqSTxHXEvy2sZ4ipxKN2i51q4aGyyRgaRvkcvLS9SD1INIQkFUczS/+MI027+90Yb3jI4dmCigBzysCEjQQqHAZ14HiUwTCBErNA0BVNix79319T0Sxq9S089NbWNGnB1QvFqTW14ku4vwG2Wa6b2s1Gf47eyEcXj7grQdeS6byuANArUH133veK69VOg8xm4dj4BUeRiabESqc8AAABiZVhJZk1NACoAAAAIAAIBEgADAAAAAQABAACHaQAEAAAAAQAAACYAAAAAAAOShgAHAAAAEgAAAFCgAgAEAAAAAQAAAPGgAwAEAAAAAQAAAXYAAAAAQVNDSUkAAABTY3JlZW5zaG90jMm9lgAAAj1pVFh0WE1MOmNvbS5hZG9iZS54bXAAAAAAADx4OnhtcG1ldGEgeG1sbnM6eD0iYWRvYmU6bnM6bWV0YS8iIHg6eG1wdGs9IlhNUCBDb3JlIDYuMC4wIj4KICAgPHJkZjpSREYgeG1sbnM6cmRmPSJodHRwOi8vd3d3LnczLm9yZy8xOTk5LzAyLzIyLXJkZi1zeW50YXgtbnMjIj4KICAgICAgPHJkZjpEZXNjcmlwdGlvbiByZGY6YWJvdXQ9IiIKICAgICAgICAgICAgeG1sbnM6ZXhpZj0iaHR0cDovL25zLmFkb2JlLmNvbS9leGlmLzEuMC8iCiAgICAgICAgICAgIHhtbG5zOnRpZmY9Imh0dHA6Ly9ucy5hZG9iZS5jb20vdGlmZi8xLjAvIj4KICAgICAgICAgPGV4aWY6UGl4ZWxZRGltZW5zaW9uPjM3NDwvZXhpZjpQaXhlbFlEaW1lbnNpb24+CiAgICAgICAgIDxleGlmOlVzZXJDb21tZW50PlNjcmVlbnNob3Q8L2V4aWY6VXNlckNvbW1lbnQ+CiAgICAgICAgIDxleGlmOlBpeGVsWERpbWVuc2lvbj4yNDE8L2V4aWY6UGl4ZWxYRGltZW5zaW9uPgogICAgICAgICA8dGlmZjpPcmllbnRhdGlvbj4xPC90aWZmOk9yaWVudGF0aW9uPgogICAgICA8L3JkZjpEZXNjcmlwdGlvbj4KICAgPC9yZGY6UkRGPgo8L3g6eG1wbWV0YT4KX74dLQAAQABJREFUeAHtXQd8FMX3f5dKCS30HlpoUqVJBykCKiBNmoj8RAQVULACCuhfbCAIKAgiFjpIl6703jtI7y20QHruP985ZrN3ueQul8vlcvdePpvdnZmd8p39znvzZm/XEBkZaSQWRoARyLAI+GTYmnPFGQFGQCLAJOYbgRHI4Aj4Wat/eHg4YROmtrVoDmMEGAEXI5ApUyYKCgqSm2XRBss58d27dyV5c+bMSZkzZ7ZMz+eMACOQDghERETQvXv3CGTOlSuXWQ3MzGmlfQsWLMgENoOJTxiB9EUAChW8hHUMnuolEYmhgVkYAUbAPREAP5MlMVjOJrR7dh7XihEAAuCnpa/KTBMzTIwAI5DxEGASZ7w+4xozAmYIMInN4OATRiDjIcAkznh9xjVmBMwQYBKbwcEnjEDGQ4BJnPH6jGvMCJghwCQ2g4NPGIGMhwCTOOP1GdeYETBDgElsBgefMAIZDwEmccbrM64xI2CGAJPYDA4+YQQyHgJWf0+c8ZqRdjWOi4sj/DwTgp+A+fr6pl1hnDMj4AACDpP4xo0b9PXXX8si8+XLRx988EGyxQ8fPpyuXLki0/zyyy/JpnWnyOXLl9Pnn38uq9S0aVOKjY1NVD1/f38qUqQItWrVikqVKpUo3t0CHj9+TCNGjCCj0UihoaH0xhtvpEsVZ86cScePH5dlf/jhh8S/oHOsGxwm8cOHD2nTpk2y1KJFi9os/dChQ3T16lWb6awlgDbs1KkTYV+xYkX6v//7P2vJ0iRs6dKlMt8GDRrQtm3bEv2CRF8obsqPP/6Y2rdvrw92u+OoqCjauHGjrBd+bJ5esmfPHtqxY4cs/u2332YSO9gRDpM4peWB6DBFAwICUnqpJO+lS5fkdXny5Enx9Y5ecPHiRcLgA3nhhRdo9+7dWlb58+eXx/hZ2P3797VwDDC3bt2ivn37amF8wAikJQIuIzHMJWgAa3L69GnCBjOvUqVKVKZMGfLxMfnccA1eS6IkJiZGzlGzZs2qDQjQ0KdOnZIbwitUqECFChVSl8j97du35Y+pDQYDFS9eXGpUkPLRo0dUtmxZKlGihFl6nMCUhuTIkYMaNmwoj9W/JUuWaPNj/Ej7p59+orlz58ro33//nXr27Gn222xYLidOnKAzZ87I60qXLk3lypXT0mAwUNONwMBAaZ4jM7T9zp07Ml8MYKgLBFaN0qKoe1hYWIrbJzOy8u/mzZt08uRJOn/+vPQDYIoAjFSf6C+BvwBtQt2LFStG5cuXl6+Q0afBseojpEU6WFQszkHAZSQeMGCAZk4rjQaCYq78zz//mLUG7xFq27Ytvffee7Rs2TL66quvtHjMoVq0aCHndNCOZ8+epWHDhslBQEskDmrXrk3ffPONRpLJkyfLvJCmd+/eNGPGDH1yateuHX3yySdaWHx8PClTGnPd5BxaeIHZkCFDpLkNiwGEXLNmjWwDMty6dSthELP8MTe0+ZgxY+ipp54ikPzll1+W5aP9mzdvlsdTpkyhBQsWyONu3brR4MGD5TE0PfwSkPXr11NK2ycvtPiHOTKmBJMmTbKIIapevTp98cUXpCwhpP3jjz9owoQJidJWq1ZNtis4OFjGXb9+XfYlBlolGKgxoLKkHoF0XWKaOHGiRmDcuHoTFVpNaUJrzcQNAE3Uv3//RARG+p07d0qHDW42S7EkMOIXL16sEQfne/fu1TTgiy++iCCbotfWMMUhhw8fpkGDBiUiMOJAQgwo0Kp58+bVnGIgu7r+2LFjSCrlyJEjcg+rQhEYlkv27NmfpDDt7Gmf2QVPTn777TerBEb0vn375BQBGhWCulgjMOL2799P3377LQ4JgyHmu3oCIxyWl2UYwllSjkC6knjt2rVajUFYbF9++aUWBm3UsWNHqclUYOXKleXc9PnnnyeYrcrUrFu3LsHEhXYICQmRyaG1QUZLgamNQQI3Lcw/JYokOFdaGBoDmz2itBTSKpJ9//332qVoC9oEzQlHmRJoUUi9evVUkCQJCKMnMebnCNPXs379+to16sCe9qm0av/gwQOaNm2aOqWRI0dKp9P8+fO1qQmsDFhGEFgaSrAyAQfVrFmzVJDmS9iwYYM0yxGBgXrcuHGE1Ql9W7WL+MAhBNKVxLlz59Yq/corr8gOhtmKGwU3+meffabFWztQTifENW/eXJqkOIYprWTdunXqUNu//vrrVLJkSUngrl27auGYV0IwN1+1apU8tlcLq+vkReIfHHjIR19HLOXgRobm7NOnj0qqeYqfeeYZLQwaHFMFCK5RgjA9ia2RwVb7VF76PeqpzH3MgVu3bi2nEBgQO3TooCXdsmWLPIYHHoMPrKmaNWvSrl27NLMfCVRe+kEUWGPQgfUAB6C+XVoBfJBiBFw2J7ZWM9wIar4LkxIjOTZ0bq9evQhzwOQEjhcl0BzWBKanpShNjXDLd/giTG8hYD5sr+jrg7XzCxcuaJdCm+vXQZUDCDc7NgwgVatW1dKDVHDQQTAoIR7EPnr0qNwjHE4urPNaiq32WabHub6uIKVe9OdqYEEZK1eulNMQvXdefx2O9cuKmFcryZIli/QFYJmJJXUIpCuJYV6CRH/++ad2Y6I5uKnh0MGcF/Mpe6RGjRpWk+lvaJUA3t/kBGY5pEmTJpo3OLn0iIuOjjbTuijXzy8BXqWZVD6YK+rDkBYbzGyY3JgvYm4JgeaCFxgkPnjwoGZiN27c2KpzyFb7VB30e73jDm3Ri35VQS0Rjh8/3sx8rlOnjhyE4KXXi2Ve+jiY8CypRyDhLkt9XinKARoSXlvIm2++KZcw4DyBGa1MWZAJjqukBEsrau756aefUoECBWRSkF/NlbNly5bU5VbD4VACWSDwftsrmOupusCSsCQY5pOIV847kFEJNKpyTmFurzzTav4J77V69FPv7LNmSqs8U7rXD3bqAQyVB0xlJUgHZ+GiRYtUEC1cuFAuG+FpNksSYzlJaVvsQXYItDc7tjQIU3XgFBLjBsVjfNakUaNG9OyzzyaKgoNGPc6ImxhOJtz4MCEVifUaQGUAImCDNxcaSt1wMKffffdd+VgkCKW0GMgNJ5i9okiCOoFQSQkcVlg3xToz6qAIjPSY+6n5HoimBis8pvrWW2/J9XK9Z7dZs2ZaMfp5sQoEJtZMVv3cX6V1dF+lShVpdaAcmMBTp06VuMF8njdvnpYt6grtqqwItBMOPQyc06dP19KpvoMJrQgPZyIGJAy2GenRW61RbnrgFBKjbX///bfVJqLDrJEYGgkdDO2LGwfrwrgh1M2BzKChYeaBLCAV0oEsICXIiXkzCI9BBKO85RwaT4mlZE4LDaO80tDCehPTsnFz5syxDJLncAKh3koGDhyokRiPqapHVVU82qx/uqtw4cLSG6zmkphL44Xh2BQGuBbTB8wrnSXIH3UdNWqUzPLnn38mbHrBygD6Est7cH7hwQ30V8uWLc36DdcgHFMGrOljgIbWRdjQoUP1WfKxExBw2Dtt70K9tad8VL2xnIR5pxI9gUHUzp07yyiU1a9fP027IRCEw9zvxx9/NMtD5QUNCM2QHBGRVl8//dNR1kzppOaa8LLj5sZz01hu0WMDkx/OOmvPl0PDQjuphyJU3fXLT7A2lEBbKrHXlNa3T2Ghr58KQ75oM/pEWRGqLBUHT7S6FoOoqpvqt+7du2vmMq5ZsWKFTI+HR/ROLcShjdYwRhxLyhAw+yoivKuY87ha8KwxHtvD44vQNvhFkDWvMcw4zHVxIyFeTyp4b6EZcNPikUbk424CKwLmKRxY0GSW5HWX+kKDwjeA+wEDFOqalNa/du0a4YksPEapnF5JtQPp4AVHfvo19aTSc7h1BCx56hYktl5VDmUEGAFrCFiS2GFz2lrmHMYIMAKuR4BJ7HrMuURGwKkIMImdCidnxgi4HgEmsesx5xIZAaciwCR2KpycGSPgegSYxK7HnEtkBJyKAJPYqXByZoyA6xFgErsecy6REXAqAkxip8LJmTECrkeASex6zLlERsCpCDCJnQonZ8YIuB4BJrHrMecSGQGnIsAkdiqcnBkj4HoEmMSux5xLZAScikCqSYzX7OANG3htC97ucUd8n6vxTCM1/NVIH613Xl3XnTNSNfEONmxT9yd+IXxKSvr7jJHeWGGkouNIbi3+IFpyMiEH/Mj9pZdekm1Sr2hNiOUjRsC9EEg1ifFycbzgHO9UwtstwgSJd5ww0K6TBlp12nmNPXOX6PgF03bE9PUShzIfu8NI7acZaOYWA926SXLbdJSoy68kBx4MD3izBd5jjdcB4VMw1j5n6lDhfBEjkAYIpIrEeJ2N+m4PXqdj680OaVD/FGV5SJD/42W6JgcaiDKL7Ylg4Pl2u0nLq1fHqPdhqzS8ZwTcDQHdHZ3yquH1pOr9SvhigDWJFJ/uWSE08v9tIVp2iuih+SuNtUsuiq+D/ineFDtafEcM5m5S6bQLxEG4yGvXVdN2O8JEvgPXicbvMtK2y0aKt7C6R28UFz0JbCleVxX+qZEiRhipeeWEXJX1gFcEqZe344Vx6pWxCSn5iBFwDwQcftsl3neFF6FB8O0f9dI0fbNuPCbKJ+ad0Xd0oULzbetrpOqmV0RTrCDawFVGmr4pQSMSmY6nvGykXlX04bp8xOHOK0ZqM9UU37CigTZdEoHyfeSmsLz5iDb1JiqR03RdgK/4vMqTL8d8UN9IfuJdXZCGIUZae8h0fD/SlBb/YV1gqoCBCt8e6tKlS0IkHzECboKAw5oYXx1UWjip18KG3bIgMBotNGbb2QmtH7aBLAicEPfGHDF3PWihThOizY4wrzUROCEYc956vySc/yk+KfRgiGmrW8REWmj80VtNx0jZSQwGSvC6VSX4MBgLI+COCDhMYvVWfzQKby9MSl6oRnRIvGp4SPOEFCAXrNq7Qut9vyGBNOM7GenicCP1bZRA3GG6+IQcrB+hrHX9jTSiTUI8BpIFxxPO9Uc3Hhsp71jdQJOV6NVqCWXjjZnqrZl4PzY88SyMgLsh4DCJ9V88SO7Vq78L7RcaTPR5U9H0gATC3o8i2n1VEEZNXIXJWzEv0SlhercvlwATCI/5sk0R188Tr6muX9RAH4uvfVYpnUDGHWJ+bCkx8aK8H0V9VN6ijucGEuXPklBHXIMPoymx9nE2Fcd7RiC9EHB4TnzzpmDXE7H2jmhEFSkolmvEPFSTLIJMTxxbUXFGOiq0pCb3iJpNNieQirsSnpiEKk7tmxVVM2lTSPNSBjr4n+n45O3E+W4XxA5X4dmJbgsCBwWo3BL2+gEKJFbfUkpIwUeMQPoi4DCJ9S8TV18FsGxKNiuksEyjnYvlnkK5rJM10BcktB6nrs/ir45M+6gYpDeRN6eVjyBeEIOGko/Ft72tERjx+rbhUycsjIC7IeAwidUXCNEgrBc7IpUTLFVqUEp4iHsm5PLfXfE9nxjTeUWRbrdYSkpOVl0wj115KkH7ls5jHoez9uUM1OADU3ieLInjVYj68DjO9W1W8bxnBNIbAYdJjGUlJeozourc3n31goJoPmIT8+LNx4jGbDNS5/IGmnVEzKFXPslFLEk9HJa8FkZKLGO1Fd84e6uWkTacM9CZywm1aF064VgdzTtupP5LTC6BAXXi6bsWCaRXabBXbcNTXHrrQ5+GjxmB9ETAYceW/rOf+Kq9I5Irk1jeeV54mJ7IZ8sMVOFrHYFF+JiW8eRvZy1XHxQfBfvZQOPWqRyJaoYaqWbCeKNFXH8oSIsHRMR285EWbHYA550iMT67ysIIuCMCdtIjcdXLlSsnH/JAjH65KXFK6yF+T0oe+oyBRr8oyORnoQmFhv66vZEG1TaFP3kuQ2Ymp8gW2cIbHSy823ppWFE8/dXdIl99gifHSaXAspIS/ZqxCuM9I+AOCKTqg2rTpk2jKVOmyHbgE50lS5Z0uE1RYgn2oHi2+eRtI5XPa6Aq+cmmBl4vftmknthqVZXoL/FA1dWHpnxqFjZSHt1z0Y5UDB8Ex0MtWCteuXKl2z8b7kgb+ZqMh4BTP6iGj3qrhyFmzJiRKjQCxVJULWH29qxsoBpiacpeE9qy0ELZiFqJOXBqCXzixAlJYOSPbyO7+487LHHgc+9BwGFzGhDB0fP2229LtFatWkXq6/aeAN+vv/4qmxESEiJ/W+wJbeI2eCYCqSIxIHnxxRflF9/xA4jdu3e7FCV/PEiCubTY8mS17cG2t3IPHz4kfPgcbRo1apT8cLm913I6RsDVCKRqTuzqynJ5jAAjQOTUOTEDyggwAumPQKrN6fRvAteAEfBuBJjE3t3/3HoPQIBJ7AGdyE3wbgSYxN7d/9x6D0CASewBnchN8G4EmMTe3f/ceg9AgEnsAZ3ITfBuBJjE3t3/3HoPQIBJ7AGdyE3wbgSYxN7d/9x6D0CASewBnchN8G4EmMTe3f/ceg9AgEnsAZ3ITfBuBJjE3t3/3HoPQIBJ7AGdyE3wbgSYxN7d/9x6D0CASewBnchN8G4EmMTe3f/ceg9AgEnsAZ3ITfBuBJjE3t3/3HoPQIBJ7AGdyE3wbgSYxN7d/9x6D0CASewBnchN8G4EmMTe3f/ceg9AgEnsAZ3ITfBuBJjE3t3/3HoPQIBJ7AGdyE3wbgTShcRxcXEUHR3tFsijHqiPu8uFCxcoIiLCpdVEeVeuXEl1mcjn4sWLqc6HM7COgEMkPn78ONWsWZPef/99s1xBCIRjs+y0yZMny/Dly5fT+PHjqV69eqkmssoTnyJ1VFq3bk2ff/65o5fbfd3du3dl+2fPnm33NSrhgQMHqGPHjvTgwQMVlOR+8+bNspwtW7YkmcaeCHyfuWHDhtSuXTs5yHXv3p1ee+01eSk+YYs+/vfff+3JisLDw6lDhw6EdrA4HwGHSBwaGkqZMmWiffv2mdXo4MGD2vmuXbu0YxyouGrVqpmFO+PEaHTet4mdUR9reag6qr21NNbC4uPj6euvv5bfgM6fP7+1JGZh+PA7PoyeNWtWs/CUnixYsIBy5MhBn3zyifw+c5EiRahw4cIym5S2IW/evHIQGjNmDKE9LM5FwCES+/r6UtWqVen+/ft09epVrUY7d+7Ujnfs2KEdw1wF4XPnzq3dCFokHySLwIYNG+j06dPUrVu3ZNOpyKeffprmz59PqR0sb9y4QTVq1JCa2GAw0FdffUWjR49WxaR4//LLL9OZM2do5cqVKb6WL0geAb/ko5OOrVWrFoGohw4dokKFCsmE27dvl1qgTJkyBLMOo66Pj4+8CZHgmWeeMcsQ2ho3HAiOa2Cu1a9fX0uDm3fcuHF0+PBhCgwMJJQ5aNAgypcvn5bG8gA3yeLFi+ns2bNUrlw5eRM2a9bMMpnZeUxMjDTx165dS5GRkVS7dm0aMmQI5cqVS0uHuN9//50wlUB7kWffvn1lvZAIbZ06dSqtWbOGLl26RKVKlaKuXbtS27ZttTwsDzC1WLp0KdWtW5deffVVy2h5DnyATenSpeX5vHnzaN26dVbTfvvtt7Js1AN1q1ixotSk5cuXp9jYWFm3mzdvyqnMe++9R9mzZ0+Uz7179+jTTz+V4Xv27KGBAwfKPhg7diz5+flJ/BNdJAKAy08//UQnT56U/dO4cWPZJvQ/pHjx4oR6oD3PP/+8DON/zkHAIU2MojFKQ0AwCLTyqVOnJFFBApDh6NGjMg5Eh0BL6GXw4MFSk0OrIx+c37p1SyZR2gd5vvTSS3J+BiJBIyU1B54xY4a8AUFg3ES3b9+mjz76iGzNQ1evXk1//PGHJF6VKlXkzQ4SKNMPg8LHH38sidCrVy8qUaIE/fbbb5Loqj0jRoyg6dOnU9GiRQlpcPNirj1z5kyVxGwPAo8cOZKg5aClkpJjx47JwUjFI9+AgABte/ToEe3fv19uSIM2b9u2jcLCwuQlsI7gg0DdypYtK4mEga5fv35a+1Te2CN/mL8QmOTqGAMtyrEme/fupVdeeUWWiz4OCgqiH3/8kYYOHWqWHAMR2oOBgsV5CDisiXFDYF6snBVwdkCgbUuWLCmPcQNVqlRJIzqcIXpBx7/99tsyCCM05n4YyXHjTJo0SYZPmzZNanecYHAYNmyYJNCAAQNkvPoHDQNHF+brIDNu9KioKOrdu7cM79y5M2EakJSAxGgTBHO3hQsXEkxZWAYTJ06U2veXX36RbUaaL7/8khYtWkRoIzQaBoIWLVrQF198gWh6/fXXZdm4FoOQXhSBq1evLgkGHK0JTFoMhpiPKoGDCxsEg8xbb70ljzGIWNOsMlL8mzBhgmZiwzTGnHfjxo3UpEkTlUTukQcwXrJkiXRe4diWfPfddzIJ2qXm7cABg9+JEye0QQjaGIIBoWnTpvKY/6UeAYc1MUZskBKaEksIaj6MuRg6EhoJ5jUEIzhMUNXBqtp6U7NChQoy+PLlywTHydatWyV5Q4STRom64WC6WQpuDEidOnXo+vXr0jsOEkCzggjQ7EkJPOWKwEjTWGhxCNqGeRysDJi8erIpEx11gdkJ0d+YMP8bNGggw8+fPy/3+Ldq1SqpgeE0+v77783y1BI9Ofjvv//kEbC0JrgegycGqBdeeMFaEhkGDPVzZDWoWMMxyUySiIDlBGwxIGHQxKoENuAOgZZWUqxYMXmI/mFxHgIOa2JUAaYT5r4wkUBYmNjqRsdNP3fuXI1MWKqwFGWqIRyaEwLtguUYCMxsvSANBgKQ01JAfgjMXGyWkpQJjnT6euAcczcITFLluFM3pYwQ/5R2xE2s1plhdehFkQ9plGdXEQcDA8iviK6/Th0r8lsOfoiHSYxpAsj57rvvqkus7hV5VKSqF0zv1IrCHYMolpEsRb8spnwnWHJicR4CqSKxmhevWLFCEqtTp05azWD6gsRYb4RYzocRlpR5qwYCNT9GWsjjx49lOcjbUrC0AoGZDc1qKYp0luE4hymul3PnzsnTPHnyUObMmeWx5Q2PeTcEadSNeufOHTOnm8pHP0gAsw8++ICAFUzOv/76SytDZqj7B2sHgnz1goEAzieQG1OQpHBU10BD6kUNaJi7plYU7rCSMIWwFKxIKMHABUmuL1Ra3tuPgMPmNIqA1xSEW7ZsmSxRTy5FWhWnCG9P1XBjoPNhiinnEq5TjjLMey1FzcNhqqFeasNcFZ5meKCTEuSLAUKJWtOGia20mJrzW6ZBXZTJrzcdkU75C9RcEGHQvEgPXwDIqeb+iLMUdbPjaS0lsFLgAITAG50zZ04VleQe81L9017qQRBL6yLJDJKJUPjA9FeYY48nvYA7piRK1ANA8NyzOA+BVGliaAoQFw4SzPH080oQsXLlynIJCuYbNFZKpEePHtLpA42jPNLKadSlS5dEWWH5CTcPHFJYCoFDCksxcNCAOMk5faAhcMNhSQjHcKbB9GvUqJH01mJqAI8vPM04hvMNzjOQEeeYc//www80ZcoUKlCggPQHoGx45WFiomzlLVYVxxNQGOBgrbRp00Yz4VU89opk6uZHGLzkID9Mdwws+sGlZcuWSJJI0KYPP/yQUCYsCiwXYZDUD7qJLrIzAJYK+gPtAIaYNh05coT+/PNP6d3GPaBETU3g3WdxHgKpIjGqAecWSAyHEpZL9AJPNW5ky5vFMh2uUWFqj2UXjObwosIZBIHWB1ks54i4BgMKvMpYUsINhQ0CC2D48OHyOKl/qDtMXzW3BIGxLKPMWXho8eQSPM3YINAm8MqibNzIWM/GkgrKV9K8eXO5zopz1S61hwkMs/rNN9+UD1HMmjVLXabtQX4MTHCuKQFBIFiSU8t7Ku6pp57S6qzKQRzqijyURx9zftQ1pea0Mtv1eSP//v37y2UjWD24FyDAEIOuMrcRhjpgQFf+D4SxpB4Bg9Ai2jOLcKSECO3iTgINhs4PDg6WdVM3UlJ1hPkNzYX5dMGCBVM0/8I8F8SF+Wt5o8JjDk2CgQVmLvK2TAMHF/KA5gNx9A+LJFVfW+EYxLAkhIdCUGZKBV50DGRYEsNABa+5crKlNC9b6eFbAPYYHGCV6fFBP8JSeOedd6hnz562suL4ZBCw5GmqNXEyZTklCuTFZq+AhBiIsKVU1Lza2nW4IXHzJ0cADDDQnM6UF198UT4pBk+0shQcyR/1T659juRpeQ2epEvqabo5c+ZIE16tcVtey+eOI5Aqx5bjxfKV9iIA0xPmPEhsOa+2N4/0TgdvOOqPObPy9qd3nTypfLc3pz0J7NS0BfNfzCft8Ubry8E6Psx6zJfTS7AEhwdC1IpFetXDU8q1NKeZxJ7Ss9wOr0HAksRsTntN13NDPRUBJrGn9iy3y2sQYBJ7TVdzQz0VASaxp/Yst8trEGASe01Xc0M9FQEmsaf2LLfLaxBgEntNV3NDPRUBJrGn9iy3y2sQSPWz039f/IeWnFtPh++epei4WK8BzlUNDfD1o0q5SlLbEs9Sq2JNXFUsl5OBEEgViccdmk6zTq/OQM3NeFXFwLj39im5nbh3lgZX7pPxGsE1TlMEHDanoYGZwGnaN4kyB97AnYUR0CPgMIlhQrO4HgHG3fWYu3uJDpMYc2AW1yPAuLsec3cv0WESsxMrfbqWcU8f3N25VIdJ7M6N4roxAt6EAJPYm3qb2+qRCDCJPbJbuVHehACT2Jt6m9vqkQgwiT2yW7lR3oQAk9ibepvb6pEIMIk9slu5Ud6EAJM4nXo7s18ABYpvRrEwAqlFwGV3Ua/ybei9an0T1fdxTASduHeGBm36P7oX9ShRvCsDfmo6nOoWqEHN/3qVbkSYvpGcVuVv7vgn3Ym8Ry0XJ/4caFqVyfl6JgIu08Q+ZCrqXtRDOnDrqNwuPLxM/r4BVD3vU7Sq3XQqFpQvXVE2kEGWL754wsIIZBgEXKaJFSJbru2kj7f9oE4Jv5ed1fJbCs1Zgr6oO5h6rkn4qqCWiA8YAUYgSQRcTmLLmuBZ4FfXfkRbO86mKnkqUHCmIAqLDBca2pcmNPyIauavQgE+ARQRF0mLz6ymL/f8IrNY2fZHio2LpxeXD5DnTYpUp5G136Vjd09Svw2jZViHUk1oYNU+9Pnu8VS30NPUoGBt+r89E+njGm9Rnky5KDzmEf1ybB5NP7bEslry3FYdkKhq3tI0qGpvqhgcSj4GX7ocfoWWiV94TTu6WMuzRI4CNLb+x1Q0W0HC9OHvCxu1OD5gBFKLgMvM6eQqGi5u7FP3Tb+Kqpa3rEy6sNUEqlewppgnP6QdN/aRUfx1DW1L3zV4T8aDwCHZi1ChrLnl+QvizRc5A7NRrfzVtKLalmwuww7e+o9KZitGeTMH07gGI4T296ezDy5QUEBWQfLXhBVQRLtGf2CrDln8A+nnpl/K6UBY1D06HnaKigQVpneq9KY2IfVkVhiUFrSaRKVyFJdz4ADh0Ooa+qIcmPRl8TEj4CgCbkFiVP5q+A3ZhtLiZm9RrKYkKObMzf56jfquHymcTb3pcVwENS/akPJnzkUbr+6Q6VsVry/30OIQP6ENoR0hocEl6X70QzMn1cHbx6jBgh7UfsVAWnTmb5muXsEE4ssA8c+eOjQoWJUCxZx+ocgHDqoeaz6kr/dNllk0LFxD7j98+n/k7+NHqy78K9PUmfsyLT23RhXDe0Yg1Qi4DYkjhbkMuS28ws2LmYi58kLCWyweRkfQgZtHZZrq+coJAq6Vx/UK1ZCmdx5B7JPi9TWQVsUbSg2dxTcz7b15SIapf1/tmaIOacvVvfK4VM7iWpg6sKcOay/vpiaLetLY/TOpVr7y1L1sK+pYuo3MwlcMJpDaBUwDxK/HF8lz/Bux80dpWWgBfMAIpAKBdJ8Tq7qXzBEiD/+9spc6h7aWx+sublfRcn/2/iWqW7AGFc9WSMwrt0vNXC5XKapfsIrwKxvo12PzaVSdIcKkrkq3I01LREvOrjPL41L4Te0c81OIjxV3dDFRBiS5OiD+q3rvmpnwMPv1EuSfjWLi4+hY2AUtOD4+XoTFaOd8wAikBgG30MRB/pmldzo6PlrMGx8I50+UbFMx4QjSS1nx1kfIpfBrcn/o1nEK8s9KbUs2k+frLu+ii8IEL5atCDUuVIeMRiP9e3W/jFP/Yoxx6jDZvT11eL1CO0ngMDFgjNk7mdqteJN6rR1ilm+sMUaY075mD3bkCgziObEZSnySGgTSncTZAjLLJSZo0j03TKbvf/fOyza1LNbArG2hT0i87+YJGb7yvMncblKkrvBo36Wo2Fjacm23JM1TecoK59VFMsaba0azDJM5sacObUs1lzkM3DSaZp1cTWfvXxVzdpNDS2V9+3GYPGxauKYKotYh5u3SIviAEXAAAZeb0/WEOTz12U9lVXMEBAmvbYjUSjcj7lD/jV/I8MmH51DnMs9Ty+KN6LzQrMfC/qNuwqObIyAbHb97iq49IcbKC9toZJ13pSl9QDisIMvO/kO9ynWUYRsub5Vhjvyzpw7bru4T9SxEg6u9Jki8mBoVrkMvlDBZBcWyFaYCWXLRD4dm0tf1PqLP6gyi7IFZKc4YL5akXnOkSnwNI2AVAZeROJ7iZQVyBeakOvmra5W5K5ZmttzcLdZvpxDmipC7UeH08favafQzQ6jfUz20tJceXqU3NnymnWON+eqjG1Q4awFae9FE2FP3Lov5Zqz0CC84bXJ+4YJ4i7kqwmBum/ZypzmbEGxPHSYdmi2dcHjiDBvmw38KMj8vlrvK5SpNfSp0oC/2TBPOrb+pQ6lW9EmNt2VBNyJuUVa/LKZC+T8jkEoEDJGRkZq9ef78eQoJCbEry5oLO9uVLjWJ8AOB2vkrUL4seWjXtSN0UeeUSk2+KbnWnjpUCC4u6hhMW68dopi4ODL4GKh6nlA6efeieKDE5DyDVq5ToDKdElMFvZMrJXVRaXd3mKcOee+FCFjy1GWa2BGsMcfddMV8iciRfFJzjT11ACn1xMQ8fO/Nk2bFXn98lxaf5Se1zEDhE6cgkO6OLae0gjNhBLwYASaxF3c+N90zEGASe0Y/ciu8GAEmsRd3PjfdMxBgEntGP3IrvBgBJrEXdz433TMQYBJ7Rj9yK7wYASaxF3c+N90zEGASe0Y/ciu8GAGHSYwX3LG4HgHG3fWYu3uJDpO40pOfBbp7Az2tfoy7p/Vo6tvjMInbil/qsLgeAcbd9Zi7e4kOk7hVsSbUrUxLd2+fR9UPeAN3FkZAj0CqJraDK/ehcjlL0hLxnuXDd88Sft/L4lwEMAeGCQ0NzAR2LraekluqSAwQcGPxzeUptwO3IyMi4LA5nREby3VmBDwRASaxJ/Yqt8mrEGASe1V3c2M9EQEmsSf2KrfJqxBgEntVd3NjPREBJrEn9iq3yasQYBJ7VXdzYz0RASaxJ/Yqt8mrEGASe1V3c2M9EYFUP7EFUG7evElXr16lrFmzUuHChSlLlpR/oiQ6Opr8xBcffHzSb1zBZ2RixQvrAwICnN7X7tA+pzeKM3QLBFLFmDNnzlCvXr2oTZs29Prrr1O3bt2oUaNG9MUXX5D4PIzdDTx79izVq1ePVq5cafc1zkrYvXt3euWVV2R2CxculPXAgORMSav2jRs3jmrWrEkRERH08ssvy2OcJ7V98sknzmwW5+UmCDisiXHjDBw4kG7cuEHPPvss1a9fn2JiYuivv/6ixYsXEzTPyJEj3aSZSVejSJEiZLDykfGkr3CfmDx58shvZ6H+zZs3p6pVq2qVw4CUI0cOatasmRZWvnx57ZgPPAcBh0l84MABSWBogPfee09D5IUXXqB27dpJrTpixAjy9fXV4tzx4KuvvnLHatlVp549exI2SJ8+fcyuAYkLFSpEH374oVk4n3geAg6T+MqVKxKNvHnzmqGCee2rr75K27Zto/v371NwcLDUyJkyZaIPPvhAS7ts2TLC9v3332tht2/flmlwLa5r0aIF9evXTxsIzp07R0uXLqW1a9fKuWvlypVp6NChpOoQJ75IOHnyZFq3bh2FhYVJ075Vq1bSRMZ8980336Tnn3+eUA5uchD477//luUPGTJEq8ehQ4fos88+o+PHj1PRokWpR48e1Lp1ay0e5UyZMoW2bNkiy6levbo0ycuVK6elsXaQXPs+/fRTmdf48eM1vwDqPHjwYMqdOzdhQLSUJUuW0IYNG+ibb76xex4P6yi5voBPAhZW+/btCdOAf/75R5rrMNHff/99ypw5s1YNTH9gdSEd2o7BW6/5bfWXlhEfpAoBh0kcGhoqC/7555+lI6tBgwaUP39+GdaxY0fCpuTgwYOULVs2dSr3ly9fpv3790sTXEVMmjRJHoJ4mG//+uuvdO/ePcJc7sGDB3LejUECpiM+74gb7OLFizRnzhx5HdKtX7+eatSoQU8//bQk++rVq+mXX36hChUq0L59++jYsWNyvg5iBAYGyjBLc3r48OGSOM899xxt3ryZQDDc3DiH4CbfuXOnNGUxjfj3339lWdOnTycMLElJcu3LmTOntF6ACeoOAW4Y0OB3sCbACPEpccbZ6gtYTsAJG8iONp86dYqWL19uRv4ZM2bIARMme+PGjenIkSP00Ucf0a1bt6hr16529Ze1NnFYyhFwmMS4WWFKg0DQaNhAYtyAcHTVqlUrxbWB+ff7779T9uzZCdoOTieM9HCa4YaFZn/77bc1R9SCBQvop59+kmY9tBwI3KRJE/r6669l2V26dJFadM2aNZLECITD7csvv6SmTZtqGs+yoi1btpTWA25oeN7RnqlTp8obGoQFgTt37kzQ3hgAevfuLbUQBp2xY8daZqedJ9c+kGXWrFlyYFIkhpaFYFBztYDAc+fOlSY5+gIYwEKBABNYPBjIQWZ486OioiQOCAc2R48eTba/1IDv6nZ5Ynmp8k5jLjx//nx65513qG7durLTYGINGDBAzpNhDqZEOnXqJAmMa0AgaDnIhQsXKFeuXPL4t99+oz///FNqYmh7mM64IaA5ILjZlJQtW1aa6yClkkqVKkmTL7mlLAweai6fL18+OQBcunRJarytW7fKrOrUqUMIgyWAmxw39O7du1UxVvfJtQ9OJ5juaI/RaPruOyyNEPHR91KlSlnNLy0DYRZj0IEAC5jLaCtEYQ0Mrl+/LsPh4KxSpYocJE+fPm2zv2RG/M8pCDisiVXpuMmwwcECj/SmTZskcbDHDQ8z25rABLQUeFv1UrFiRXkKLYs52bvvvis1AObR2HCTgRiYs6o5uuUNj6UrCIgGgVltSyzrAeLDDMc8G9MACOpiTVCOGgAs4y3z1bcPaaGNMT1BWRhkQAzM49NarPUFfBJ6gWZWojDAgIrNUh4+fGizvyyv4XPHEXCYxP3795dzJcw51U0LswojeHh4uFwrxoicFIkV6fRVx3xKL3CMQJTjCnMtkFbNFVesWEFwBGGZSN1kd+/elecqH9QBzpiCBQuqIJt7mIuqTCSG4waCebR6kOXHH3+USzgyQvdPYaEL0g5ttU+RGGa0mqcjLK3FWl+o8q2VrTCAxaUGSX069Ackuf7CPJrFOQg4bE7jySzMUbdv356oJtDIENz0kKCgIKlV5In4h3g4Qixl165dZkFw8kBKliwp58Zt27YljPKYM2JuPHr0aBkPc7tEiRLyeO/evXKPfyAfHkBRji8twsaBPg9o1sOHD0uTFgRV5WCwKFOmjNyg/TEXnjBhQrI5J9c+XFisWDFplsOkhgceFoAyaZPNOAWR9vZFclmiPyAwpRUG2GNAh58AzwvAl5FcfyWXP8elDAGHNTFGWXQUlkBg8uGGww0PAsDBAwI3bNhQ1gYmLJZrYIJifoplHZiKlrJjxw65XILrQGCcY0kIph0cZXgSDB5oOKwwV4XjBQJvNdL88MMPBA9xgQIFyN/fX3qlEY+lqpQI8sH1uFkXLVok53kw2SGwBGbOnCkdeWgDBjP4Bfbs2UODBg1Ktpjk2qcuxFKWWnZTa8Aqzhl7e/siubLQFyAtlumwWgDfBQYeLHnB8oJj0lZ/JZc/x6UMAYdJjBscmmfMmDEE01IvIPTHH3+sOTfwWCM0NpZrsMGzjVEanQ6zTZluMB2xDjxv3jyZHRwnWAeGQCPBCzx79mwzB9KrYk1aaauJEydKTYAlIghutGHDhsny1JxYlSUTWPxTcVjv1HuZUYZymMGJhnajDJjySuBkw8BmTVS+ybVPXYcBR5FY75BT8fq9ylft9XFJHdvqC+XwSy5PpEG/Y0kJA6kaTLG0p7C3p7+SqiOHpwwBg1hyMblCxXVYe4WTKiUCcsBLC2cH1l0xH0pq/olnkjFvtnTw6MtDfidOnJCaVj8vVWkw38acGGXB/IRG1gs8u6gPNGlS9dCnT+r48ePHclkLprKaA+rTYkqAZS8sWQEz5T3Xp7F2bE/7sEyGJ9+sPeBhLU9HwuzpC1v5YvUBHmvM9YG1mgvrr7PVX/q0fGwfApY8TTWJ7SuWU9lCAOTGwIHlM0wJ4PXlZ51toead8ZYkdtic9k740q7VcM5hrg+BH4AJnHZYe1rOTGI36VE44/BsOZ7DVt5fN6kaV8PNEWASu0kHYd6tf97cTarF1cgACDi8TpwB2sZVZAS8AgEmsVd0MzfSkxFgEnty73LbvAIBJrFXdDM30pMRYBJ7cu9y27wCASaxV3QzN9KTEWASe3Lvctu8AoFUrxOfWHWODq84QzdO36G42JS9ycMTEPb186H8ZXJTpTalqNxzpp9DekK7uA0ZB4FUkXjThL20f+mpjNPaNKgpBq6rx2/J7eapMGr4jukld2lQFGfJCFhFwGFzGhrY2wlsiSjwAC4sjIArEXCYxDChWRIjwLgkxoRD0hYBh0mMOTBLYgQYl8SYcEjaIuAwib3RiWVPVzAu9qDEaZyJgMMkdmYlOC9GgBFwHAEmsePY8ZWMgFsgwCR2i27gSjACjiPAJHYcO76SEXALBJjEbtENXAlGwHEEmMSOY8dXMgJugQCT2C26gSvBCDiOAJPYcez4SkbALRBI1Q8gUtKCbhNaUZFq+emHNrPpzYWdyC9T8kXfvXiffu7+V0qK4LSMgFcikDyTnAjJo1uPKTYqloxxRjq/8xoF5cus5V6gfB75Ye0bJxIe5bx6yPwzp1piPmAEGAEzBFxG4iWjNxKZvkRKi4atN6vE+5tfpZjHsfRb3+Vm4XzCCDACthFwGYmbv1OHyjQuRtO6L6boCNP3i21Vr8/MdhQdGUu/v5FA7mcH1KIKrUrRtG5/UcSDSOo97UV6fC+SoMWrdixL/ln86dHtCFo67F+6fOymVkTj15+mSm1DKVP2AHp8J5IOLj5JW2Ye0OKLVylIdV+rSoUr5SXyMdDDG49owZB1dOfSPS0NHzAC7oiAyxxb+coEU1DeLOTrb3+ROYtkp9zFs5vhFlwsB2XOEUj+gb4yPGexbFS8diGq1asSPb4bRQ+uPZLldJ6Q8E3i9qOaUK1XKkkC3z59jwKD/Knu/6rS8x82kHkE5c5CnX9oQYWr5KNrx27T47AIylEoiHr98rxZ2XzCCLgjAi7TxGnd+C0/7qdtsw7KYvrO6kA5i2ajLDkyUebsmahMk+LCXI+hSe3mSysgMEsA9V/ciSq0LkWrvttOZRsUl99IPrXhHC0ZJcx+IS0HP0OV24dSvhLBdPNcmAzjf4yAOyLgESSOj4nXCAyQrx+7JUlcQLz7qkjl/BL3a0dvUb6QHFofhJ27T/kr5KGQpwvS/evhMjy0WQi9IBxvB8UbOlaP2y437QI+YATcFIEMR2Jff0MiKGOj48zCoiNi5bmPr4Hylsolj4vVLETdxGYpQcGZ6cDKU3RMvKkEmrn8cyXlFicGhtP/XKClcMixMAJujECGI3H2gtmswGm0EmYKigo3OdFOrz9Ph1b8lyjd1ZOmpazlYzbTqrHbqULTElShRQkqUr0glRP7W6fDaPucw4mu4wBGwF0QsN/LlA41jouJEw+F+GslB2QOoOz5s2rn9hxcF44qSDbhqDqz+7K21ehSgdp91ZT8AvwInvP3NrxC0MqHVp2mOe+uoXXfbJfX5S+XW+75HyPgrgi4NYnDxFNbMInfXNCJGvauRn3+aEc+KfBuA/R9K05STEQM4YGSHpNaU4225an39LbSow0v9MPbj+jw36el17z7lNZUp8tTVOaZolSnV2XZZzv+POKufcf1YgQkAi4jsdGoTF61t90Da4Q2xNw0m9C+dV6rIh/VvHXqrrxQy06cGc2nxCLAVIZRvMs+XrwXev7ANdI7XahyPmo6pDblDc0ll6Nmv7VK5nVdvPTv/PYrlDVXZmr4Vg1q//WzlL1gEF3YeZWunzZpctu15RSMQPogYIiMjNRYdf78eQoJCbGrJuObzbYrnTMSFSiTh2LEQx+pefDCIB7gKFoxPwUXzU63zt6lKycSP9aZNWdmqtCkhHjAJIYuH7nlcHkD13V1RrM5D0bAKgKWPM0Qji1naENjvJEuHr4uN6vIiMBH9yJo91/HkormcEbALRFwmTntlq3nSjECHoAAk9gDOpGb4N0IMIm9u/+59R6AAJPYAzqRm+DdCDCJvbv/ufUegACT2AM6kZvg3Qgwib27/7n1HoAAk9gDOpGb4N0IMIm9u/+59R6AgMMk9vVz+FIPgC3pJjAuSWPDMWmDgMNMzC/emsGSGAHGJTEmHJK2CDhM4kptSqVtzTJo7oxLBu24DFxth0lc7rkSVO3F0AzcdOdXHXgAFxZGwJUIpOpXTA3feZryhQbTYfF+qhviN7lx4re73iaYA8OEhgZmAntb77tHe1NFYjQBNy7fvO7RmVwL70TAYXPaO+HiVjMC7ocAk9j9+oRrxAikCAEmcYrg4sSMgPshwCR2vz7hGjECKUKASZwiuDgxI+B+CDCJ3a9PuEaMQIoQYBKnCC5OzAi4HwJMYvfrE64RI5AiBJjEKYKLEzMC7odAqp/Ycr8mZYwaGU7NJTq+kIy3zhPFWn6HJmO0QdbSz5cMeUOIyncgY2iXDFRxz6kqkzgd+tKwbQQZD61Ih5LToEgxABmvnSG69jUZbh8lY91RaVAIZ5kcAmxOJ4dOGsRBA3sMgS3wQbukhWERzqdpiwCTOG3xTZy7MKE9Wjy9fW7YeUxiF3eKnAO7uExXFufp7XMllvaWxSS2FylnpcvITix7MPD09tmDgYvTMIldDDgXxwg4GwEmsbMR5fwYARcjwCR2MeBcHCPgbASYxM5GlPNjBFyMAJPYxYBzcYyAsxFgEjsbUc6PEXAxAkxiFwPOxTECzkbA5c9OR0ZG0pUrV+jBgwdUoEABuRkMBqvtQppLly7JuEKFClGuXLmspnO3wOjoaPLz8yMfn3QcI8UPE3zyFiOfnMUp/sEVir95jigm1ipUhkyBZMhfmnwyB1Nc2Dky3r5CFG+0mpYD3Q8Bh0n833//UdeuXa22qFSpUtSwYUPq16+fdiMbjUb6+eef5aa/KCQkhN577z2qU6eOFgzyfvPNN7Rq1SotDAe1a9em999/n4oVK2YWrj+pWbOm/jTR8bx586hEibT7SkNYWBi1bNmSBg8eTN26dUtUviMBgQMPi8usDHTxMWS8f5Zi/3qN4h/e17L2q9WFfGt/RORj6l5fxBjjKf7UfIpZNVpLRz4GCnhB/HAhpJUWJtPGRVLs5k8p7qCH/EhDa51nHjhMYpASUqZMGapRo4aGzsOHD2n37t00Y8YMun//Pn30kbiZhCxcuFASuGjRotSiRQsqXbo0HT9+nH777Td6++23ae7cuVSyZEmZdsyYMbR27VqqXr06NWnShLJnz05btmyRYYMGDaJZs2ZRpkyZZFpr/3LkyEH16tWzFkVBQUFWw90+ECS8tkOrpsFPtD9nKBlylSX/XusparIYvIT29A2pRL7PDJekNd7cR/Hn1oo0JcinTEfyKduF/CPuUMzGyTIfvyaDSRJYkNZ4eRPFX99HPoXrkKFIY/Jr/BUZ752j+AvHtDL5wD0RcJjEqjm1atUiEEsv0KQvvfQSrVy5UiPx0qVLZZLp06drZnGzZs2kVv38889p3bp11LdvX4qIiJBkxeAwZcoULdvWrVuTr6+v1M4gf7Vq1bQ4y4PixYvTyJEjLYMz9Lkx5jHFzO9r3gahSQP7rCPKkp98ipaXhPOt/oZME7dtFMXuWaCl9zn4J/l3WkKGcp2JnpDYJ7STjI/5vQXF3w97kvYP8mvyNvlWfoP8qvam6AtDtTz4wD0RSDWJrTULmrNw4cJ07NgxScrMmTPT1atXCRrSUoM+++yztHHjRk1D3rhxQ2aZO3fiT6d26NCBHj16RLGx1ud21uqSVBjM3h9++IH27dsnBwcMRm+++aaso7rGnjSHDx+mX3/9lTC9KFu2rLQy1PVpvhea13jnGBkEiQ3BZYigNbMXlcUa7180Kz7+6hmCZiYffy3c4J/VpLGjHmthOIjb9Qv5lmxDxsi7ZuF84p4IpAmJQUQQGHNjEBgSGhoqzezhw4fLuXSVKlWk8wfm7dixYzV0YG5DduzYQZMmTdJMbzi/qlatKjctsYMHMPMxX71z5w5hDh0cHCzN/e3bt0vzHoONPWlgEbz22mtyYGrUqBHt2bOH/vnnHwdr5cBlQhMbCteVFxrPbDTtbwtS5yhFfs0nCmKPo7gjy8j4KFzGRc9+xbyQiNtCi+ejgK4LBXG/o9hTm6TzyygGyqjpz5mn5TO3RSDVJMb8d/z48VoDL168SLt27ZLnAwYM0MLhkPrf//4ntS40LwRzXji02rdvTzlz5pRhMJm//PJLaYZDw2GD9oamxPwY8+mAgACZNql/hw4dogYNGiSKxvwcZjkcbCAwyoFJD6lfvz5hgFm+fDl1797drjTK3J86dSqVL1+e4JUeNWoUrV69OlHZqQ0w+Gch/44/atkYMuUWc13xaVnhvDJe3CA80PdkXOy6keRfuB4ZMgWTb51P5GaMeSReA3SI4rZ/S/GXT2p5xPzdj/xfEiZ39uLk22yC2IRijrwt5sfbKG7zNyJP1sQaWG58kGoSnzp1irBZCrRZnjx5tGB4oTFH3rp1K+3cuZP27t0rTVmYs5MnT5akgaaFgFhPP/00bdq0SQ4ISItjbCDgzJkzNdJrBegOQHprjq18+fLJVJs3b5YDA5xrGHQgsBQgKAsktpUGnnm0JX/+/JLAuBaDS48ePdKExGTwEU6nxAMTyjXePISdFKNYwov+uRH5lW1IPuU7EuWrSobAXGQo9Az5dFgoPNTzKObvUTJt/OVTFP1TDfKt2p58SrUhQ+4Kgvx5yFD6RfIRW+zqNynuxOYnOfPOXRFINYlxw+sdW/BOQzPNmTNHkg2eZiW4yaFNsUEuXLgg0y1YsEAuKf35558qqXR+tW3blrDBE37gwAGZL0xWaGd9mdpFTw5ASH25+vj4+Hg5P0dYp04mx44+Hma0PWlu3bolL8Ngoxc1UOjDnHFsjA6n6B8TluEMAkvfp7uSb62h5PP0O0Tbpyes7Yq5cuxxYe1gE+KTPadYchLLfRV6kE9oZzJsGquZ2EZhPcTuEi/tw4a0hUqTX6MRZMhXnXybfCNInFCmTMD/3A6BVJPYskXZsmWjN954gxYvXiyXkBAP7YY1YxAPpFcCL/LQoUPlPBLaHGSF9xpmKpaeYKJCMB+GNxrmMJxb1jS/ytPWHg9gQFPDUhg3blyi5JjD25NGzfVhluslNXXT52PrWJJv+0zyqdzbpD1zFyTj3RsUOOAg0cOLFPVLay0LmNrxa8dQQKHaZMhZhnyKVCGDX6A0oeNPzjVbO46/+h9Fz3uVAvvvI0OAWI4T825+8EOD0i0PfNKiVnBWwTsNTzJEPZyxZs0aiouLMysSxIW3Gd5okLVIkSIyHmktRXml9Wa6ZRp7zrEeDecbngDDUhY2eNSHDBkiTX7kYSsN0mMgwNRA3yb4CFwpxnv/yeIMgYJweKtGfBRRNvGkVo7gxITetwgAABLrSURBVNV48vCH8b54gusqHiARA2SJVkTi6S4zEf0A853ixSoAP7llBo07njhdE6tGZsmSRXp4cYPnzZuXnnvuObnG279/f+nIwmOUePxy9uzZMp1ygjVu3JgQ98cff1B4eLh88guDAjQc5sMQOMJSI6+++qp88uudd96hnj17Eh4F/f3336WZrebS9qTBtRMnTqRPPvlEWhiXL18mPBHmSjFEmwZKnxxFhNPqFMUfnkE+VYTD6pX1wjM9Q7xKdr9wXBUS8+OuZMhegujxdfEI5gVJTuPdU9I5FtBnvbjuV7FcdZp88pQjQ+X/SRLHn1nmyqZwWQ4i4DCJ1fPOam9ZvtKWf/31F3Xs2FGawiD2okWLpENLpYdpi2UakAaC8wkTJsg5LUxybErgRIJJndyDHkgLD3dygjn5W2+9JQk4YsQImRTlDhs2jCpWrCjP7UmDqQHm9cuWLaP169fL6zBt+Omnn6RVkVwdnBVnfHhFPpDpU3MQ0dENFPPvRPIXz0DjQQ7fyuLhkMoJJeERzZh5L2vaNWZBD/JvO0XMf6uRb80hCQlJrD9fWEsxKz7RhfGhuyJgEFpIe9L9/PnzFBISkqZ1heMIN/7du3cJTqAS4jlmEMiaXL9+Xf4AIioqSmpn1M2ZPyqAEw4PaYD0cIZZq4c9aWCa42EWrIvDzE5WfjJ3hCWbNhWRBoGpT6HyYq24FBnDb5BRmM9qGcoyWzi+DAUrkiGogHjU8jzFXzkilpqEWe6o9Nvr6JV8nR0IWPLU5SS2o46encRFJE5XEJnEaQq/JYnTxLGVpi3gzBkBRsAMASaxGRx8wghkPASYxBmvz7jGjIAZAkxiMzj4hBHIeAgwiTNen3GNGQEzBJjEZnDwCSOQ8RBgEme8PuMaMwJmCDCJzeDgE0Yg4yHAJM54fcY1ZgTMEGASm8HhghPLXwy5oEiXFuHp7XMpmPYVxiS2DyenpTLkDXFaXu6Ykae3zx0xZxK7ulfKd3B1ia4tz9Pb51o07SqNSWwXTM5LZAztIn6v28Z5GbpRTmgX2sfiWgQc/j2xa6vpWaUZ644iQx7xu+XjC8VbKM+b3siRUZso5sDShBYamAmcPp3IJE4f3E03vIdoLe0H6emEpbcXy+a0t98B3P4MjwCTOMN3ITfA2xFgEnv7HcDtz/AIMIkzfBdyA7wdASaxt98B3P4MjwCTOMN3ITfA2xFgEnv7HcDtz/AIMIkzfBdyA7wdASaxt98B3P4MjwA/sZXhuzB9GrDo1AOae/QBHboZQZFx3v3MViZfA1XOl5m6VMxOL4Xa+AJIGnQXkzgNQPX0LEdvvUW/HLzr6c20u30YxHZdeyy3o7eiaHi9vHZf64yEbE47A0UvygMamAmcdIcDG2DkSmESuxJtDygLJjRL8gi4GiMmcfL9wbEWCGAOzJI8Aq7GiEmcfH9wrAUC3u7EsoDD6qmrMWISW+0GDmQEMg4CTOKM01dcU0bAKgJMYquwcCAjkHEQYBJnnL7imjICVhFgEluFhQMZgYyDAJM44/QV15QRsIoAk9gqLCkPjI2Npbi4uJRfyFcwAqlEwOFnp7ds2UKDBw9OVHxoaCjVqFGD+vXrR5kzZ04U78qAyZMn04wZM2jDhg2ULVu2NC26c+fOVKJECfruu++slnP27FmKj4+n0qVLW413l0Bn1rN49gDa3qeszab9djiMPlx3xWY6VyaomCcThebORCtO36foePf+gYfDJDYaTQ2rVq0alStXTuJ7584dOnjwIM2aNYt2795NkyZNoly5crkSe6tlqbpajXRR4MiRIykqKormzJnjohIdK8aZ9XwYHUeHbiQ84ZUrsx8Vze5Pj2OM9F9YpFbBPVcea8fucjC8UUFqWCyI9kx/TJceRLtLtazWw2ESq9waN25M3bp1U6fSpPziiy9o2bJlNH36dBoyZIgWxwfehUBYZBw9N+s/rdHPl8lOU58vTgeuP6KOC85p4XyQOgRSTWLL4n19fenDDz+kTZs20dy5c6l///6UJUsWaUpOnTqV1qxZQ5cuXaJSpUpR165dqW3btjILXOPn50eff/65PD9x4gSNHTuWqlatKvNA4N69e2nKlCnSjD9y5IgsA/nDbD5+/DgVK1aMevXqRY0aNZJ5WP6DOZtcHZD+8uXLNH/+fNq2bRtFRERQ9erVqWnTpoTBSklYWBj98MMP0urImzcvtW7dWkVZ3WMgg5kaGRlJffv2pdGjR1P+/Pnp9OnTNG7cODp8+DAFBgZSrVq1aNCgQZQvXz6Zz5IlS2jlypWyvai3j48P9enTR17zv//9T04T1q1bR9ggSLt48WJZFqyjdu3aUbNmzWQcyh44cCC1b99exv/zzz+yfTVr1qT3339fTn2SqqfMIA3/FRVm9x/ti1OJnIHk62Oge5GxNGzDNfrr5D1Z6nOlstN3LQrT19tuUNeKwfSU+O1uyQlHaF/fcrTw+H0qLLR785LZaMDKi7T89AMqlTOApr0g8gsOJBiMJ29H0hvLL9KFJxp1TfcyFCbKOCyshFcqB1PWAF+69TiW+ok0O68+ohlti1PdIlll2at7lKaJO2/S5L230xCB1GWdJo6tgIAAatKkiazZhQsX5H7EiBFSMxctWlQSDTckCDtz5kwZDwKvXr2a7t+/L8937NhB+/fvp6VLl8pz/Nu4caMMK1KkiBwIkOaVV16hx48fU8OGDSUpcCPevHlTu0Z/YKsO0dHRkjCYDmBAAHH37dtHQ4cOpUOHDsmsUFbv3r1p+fLlcg788OFD2Q4MTElJ4cKFJUkzZcok8/X395d1hQVz6tQpeumll2T9165dK60a5Am5cuWKLP+tt96izZs3EwYMxAGX9957jxYuXEh58uSRaTH3//TTTyVBUe/bt2/TRx99RLNnz5bxcLyhLcOHD5dhGBxz584t2zFhwgSZxlo9ZUQa/ssR4EObe4dSmeBMdPJOFO2++piyCVJNal2UXiqXU5acP8iPcmXyo/9rWpgq589MkbFGElynYGGe/696bmpdOjuJU2GmxxPm4f/0CqWyYk57T1gClwVxcc1GUQbiICVyBUhTeUDNvILMSBND+bP60ZyOJWT89fBYEjMBKbcFue+INO4sTtfEqrEFCxaUh9evX5d7ELRFixYEUxvy+uuvSzJMnDhR3sR169aVJD5w4IDUpNC6EMyzoR1B3D179lDlypXNnFRdunTRTPYKFSrQV199RSdPntS0mcxE/IOmtlWHixcv0vnz5+mDDz6gjh07ykuh1aHtoS1R9qJFi+jq1atSq/Xo0UOmgcXx7bffqqIS7eEARLswJx42bJiMHzVqlNxPmzaNQkJC5HHt2rVl/G+//UYDBgyQYfgHrQryQXvv2rVLhmfNmlVaFeXLl5eDFqwROBVBZgyiKAuDDcLhdFOCgQT1LVSokJz6tGnTRhugrNVTXZdW+y+fLUwBgpEzD4XRR+tNzq2nC2ShZV1L0edNC9GiEyZtjPLjhIPpjRUX6e//HhDepgHB/+923KDvd9wkvGBk6culyE/kh7DvtpsG8w/q5aeBtfLR0Lr56a1VCYPtmK03aMIuU5ptvctSiNDg+TL7ynqUEMeYE3dfdN7t58RpookBLsxDSPbs2SX5cAyzVAniGzRoIE9BnDp16shjOMZg9uKmV6Y2CA0NDfOzXr16Kgu57969u3ZesaL40qAQaDBLwQAASa4OIAS0/QsvvECo0/bt2yXxcZ1aPtq6dStONTMVx506dSKQw16Bow35gLyKwLhWWS8YcPTSs2dPSWB9GOqI+kKgYSHAEIMmBqMbN25QlSpVpAkP3JTAvAaBIZj6YIBA+vSSOkVNZuvPe29pVdh7/THdFdovZ6AvPeGqjNt66ZEksJZQHNyLipNkVW8IgtYVXKYdIm2tglnkhmPIM09MZBzHiAFBERjnB0SZkEr5s8h9RvqXZpr43LlzEgfcaDATIZUqVZJ79Q+mNeTWrVsyrkyZMnLeCxMTcziQGCYzCI3BAAKNrRe991sNHBgELEURO7k64Bo446AJlViSE2YzNGKBAgVUEjlXhalrr9y9a3q1DUxavUCDIm8QUC+KrPowWB1KYKlAUG993VW8Ms9xHhwcrILl3rJ9ZpEuOIGZjCWcs/fMPcA3w2OECe1LRbKZTGBUZftlExn11fovLEo7BeGh1SHzO5XUwtVBJn8fdUhRseb3yOMn574JSbS07n6QJiTG3BKmK0gKp5ZaL4ZprJw2AEYRXREAWvbXX3+VTiXE40aF4wXLVcgnR44cVLZsWURpgrm1PWJPHaCFQQKUibk21nQxmMAZpCQoKIjOnDkjNTM0GQQOMJAb68T2iCIOBi+9YL4NAsOstiUGg+lmRTpgA4EJbmmpIBxTEWVJ6K9DXHpLTFy8dCyBfPr1WDirIJcfJpD7yapmklWGNoYWjhWDQp+lFxKlu6+b29rKK9HFbhxgHwNS0ADMxTDfw83fvHlzeaUyGdU8V2UHDQspXry43Csti3kdiASSYI8bGw4umN+O3oT21AEDD+STTz6RpimcRqqOMkL8K1mypDw8duyYCkqURotI4gCkg1MJeOithqNHj8orMLdNiag6wZSGNaM2tAeOvpiYmJRk59K01x/FynltC+FdVpIr0IeChHMrXHiXlJms4mztw4V57S8GhIv3o2nduYdyu/Ywhqa9WJzeqm3y+tvKI6PFp1oTw2uKJRdIeHi4dLxAK4GQb7zxhgyHQwtLMlgeghkKDY1lEXh8O3TooJnKcBxBS2EAwFNfELVHmCK5jEjhP3vqAA24fv16mjdvHj333HOSnFjmgqBNDx48kN5jTA/goIOHGIOKSpNclTAdwNQA7a5fvz7BKTZ+/HjpUYaXGiavcvrBWZcSwdIUiAtvNbz8yB/lYIkKAx/KRt/YI5b1VFaDPdc6kubrrdfl2vG454pS1n+uUrTwPA9rYJqqTNt/J8VZ/rjnNr0vHFkrupWmXw/coSAxr365Yi5pZs8/arpP7cn0XoTJI/2ZeOhj7PYbdFQsU7mrOExipRHhMFJOIzQSpIPTBc4eZerClMV6KJZqsOyhBJoaa5dKoHmfeeYZwhqmIi/Mbzhi4BHWm5mqfHUt9ipM7VUczu2pA4iLdWwsMWHDDYxlKay9YnvqqafkPB3ea3jB4bWGgCjKpFVlWu7hBYZWR/uxDv3yyy9LB9yCBQto1apVMjnKw2CHebFe9O3RH6s0wHnMmDEyb3iesUGAIbzaENUX1q6XCZ78s6ynsmD0aVJ7rJ+NYl13xsE71LtKbhrXooiW9dKT9+W6MAKU6WuUxrKWRB4Iy9lMvhfe5gpiHRkPlmAJCYIkKANlKTFRVJ0RqXzUfo4g/POhOaiVWL66HRFLH7jZY6EJNRf3vdBwGgzwyKZFp6kCMS/DQw/wNONhD71TSqVJ6709dYBZijpCu+HmhzcZHlwsm8H5BIFWxtwYYXonV3L1x1QD1ykfANLCikE+cDgBezXPTi6fpOJgmqOemGujXpgLOyLW6qnyKTH5lDp06j6vcGI1CMkmphdG2nIxnG7r5q+OFFQwyJ/qFQ0S5DTSP+ce0N0o/dBhX45Ywy6aI0A8IhqV4hfkn+ufsimRfTUypbLkqUtJnJKKclr3RCCtSOyerXW8Vq4ksdMdW443m69kBBgBRxBgEjuCGl/DCLgRAkxiN+oMrgoj4AgCTGJHUONrGAE3QoBJ7EadwVVhBBxBgEnsCGp8DSPgRggwid2oM7gqjIAjCDCJHUGNr2EE3AgBJrEbdQZXhRFwBAEmsSOoefE16o0aXgyBzaa7GiMmsc0u4QR6BCqLHxewJI+AqzFiEiffHxxrgUCXiqY3rFgE86kOAVdjxCTWgc+HthF4KTQ7vVYl/T8IYLum6ZMC2AAjV4rDvyd2ZSW5LPdCYHi9vFQxbyDNPfqADt2MSPHP9NyrNamvDebAMKGhgV1NYNSeSZz6PvTKHHCzpscN65Vg22g0m9M2AOJoRsDdEWASu3sPcf0YARsIMIltAMTRjIC7I8Akdvce4voxAjYQYBLbAIijGQF3R4BJ7O49xPVjBGwgwCS2ARBHMwLujgCT2N17iOvHCNhAgElsAyCOZgTcHQEmsbv3ENePEbCBAJPYBkAczQi4OwJMYnfvIa4fI2ADASaxDYA4mhFwdwSYxO7eQ1w/RsAGAkxiGwBxNCPg7ggwid29h7h+jIANBJjENgDiaEbA3RFgErt7D3H9GAEbCDCJbQDE0YyAuyPAJHb3HuL6MQI2EGAS2wCIoxkBd0eASezuPcT1YwRsIGBG4kyZMlFERISNSziaEWAE0gsB8BM81YsZiYOCgujevXv6eD5mBBgBN0IA/ARP9ZKIxGD5tWvXWCPrUeJjRiCdEYAGBi/BT0sSGyIjI42W9QsPDydsIs4yis8ZAUYgHRBQ5LUkMKpilcTpUEcukhFgBBxEwMycdjAPvowRYATSEYH/ByfjxqncnV4qAAAAAElFTkSuQmCC;" vertex="1" parent="1">
          <mxGeometry x="19" y="20" width="154.65" height="240" as="geometry" />
        </mxCell>
        <mxCell id="-GjU_IrM8_pYpkTcPefy-3" value="" style="shape=image;verticalLabelPosition=bottom;labelBackgroundColor=default;verticalAlign=top;aspect=fixed;imageAspect=0;image=data:image/png,iVBORw0KGgoAAAANSUhEUgAAAjQAAADXCAYAAAANxMsGAAABW2lDQ1BJQ0MgUHJvZmlsZQAAKJFtkL1Lw1AUxU+1EqhSHBxUHLIIKlVLWil1qwVFcAhV8WNLX9MPTNtHElFncRB0dRYHcRahDg7q5C5o1b/ApYuQRUu8z1Tbqg8u9/cOh/vOu0CHX+Pc8AMolmwzNTcjr66ty9IrJPQjgAiCGrN4QlUXyILv3n6cB/hEvx8Xs8JnsZvq3mGMnccHB6YL+3/9bSeQ0S1G/YNqjHHTBnwjxOqWzQVvE/eZFIr4QHDO42PBaY8vvjxLqSTxHXEvy2sZ4ipxKN2i51q4aGyyRgaRvkcvLS9SD1INIQkFUczS/+MI027+90Yb3jI4dmCigBzysCEjQQqHAZ14HiUwTCBErNA0BVNix79319T0Sxq9S089NbWNGnB1QvFqTW14ku4vwG2Wa6b2s1Gf47eyEcXj7grQdeS6byuANArUH133veK69VOg8xm4dj4BUeRiabESqc8AAABiZVhJZk1NACoAAAAIAAIBEgADAAAAAQABAACHaQAEAAAAAQAAACYAAAAAAAOShgAHAAAAEgAAAFCgAgAEAAAAAQAAAjSgAwAEAAAAAQAAANcAAAAAQVNDSUkAAABTY3JlZW5zaG9036PYagAAAj1pVFh0WE1MOmNvbS5hZG9iZS54bXAAAAAAADx4OnhtcG1ldGEgeG1sbnM6eD0iYWRvYmU6bnM6bWV0YS8iIHg6eG1wdGs9IlhNUCBDb3JlIDYuMC4wIj4KICAgPHJkZjpSREYgeG1sbnM6cmRmPSJodHRwOi8vd3d3LnczLm9yZy8xOTk5LzAyLzIyLXJkZi1zeW50YXgtbnMjIj4KICAgICAgPHJkZjpEZXNjcmlwdGlvbiByZGY6YWJvdXQ9IiIKICAgICAgICAgICAgeG1sbnM6ZXhpZj0iaHR0cDovL25zLmFkb2JlLmNvbS9leGlmLzEuMC8iCiAgICAgICAgICAgIHhtbG5zOnRpZmY9Imh0dHA6Ly9ucy5hZG9iZS5jb20vdGlmZi8xLjAvIj4KICAgICAgICAgPGV4aWY6UGl4ZWxZRGltZW5zaW9uPjIxNTwvZXhpZjpQaXhlbFlEaW1lbnNpb24+CiAgICAgICAgIDxleGlmOlVzZXJDb21tZW50PlNjcmVlbnNob3Q8L2V4aWY6VXNlckNvbW1lbnQ+CiAgICAgICAgIDxleGlmOlBpeGVsWERpbWVuc2lvbj41NjQ8L2V4aWY6UGl4ZWxYRGltZW5zaW9uPgogICAgICAgICA8dGlmZjpPcmllbnRhdGlvbj4xPC90aWZmOk9yaWVudGF0aW9uPgogICAgICA8L3JkZjpEZXNjcmlwdGlvbj4KICAgPC9yZGY6UkRGPgo8L3g6eG1wbWV0YT4KX3+4qQAAQABJREFUeAHtnQeYFMXWhmuXpIgoKCgGRBFzzggqJsw5X3PO4Rquvzli9prDNSDmnDBjTpgT5gyiKGCWIGn5++3ljL093TPds7M7Pex3nme3e6or9VvVVadOVXXXTJw4cbqTiIAIiIAIiIAIiEAVE6it4rwr6yIgAiIgAiIgAiLgE5BCo4ogAiIgAiIgAiJQ9QSk0FR9EeoGREAEREAEREAEpNCoDoiACIiACIiACFQ9ASk0VV+EugEREAEREAEREAEpNKoDIiACIiACIiACVU9ACk3VF6FuQAREQAREQAREQAqN6oAIiIAIiIAIiEDVE5BCU/VFqBsQAREQAREQARGQQqM6IAIiIAIiIAIiUPUEpNBUfRHqBkRABERABERABKTQqA6IgAiIgAiIgAhUPQEpNFVfhLoBERABERABERABKTSqAyIgAiIgAiIgAlVPQApN1RehbkAEREAEREAEREAKjeqACIiACIiACIhA1ROQQlP1RagbEAEREAEREAERkEKjOiACIiACIiACIlD1BKTQVH0R6gZEQAREQAREQARaC4EIVJLApEmT3Lhx4/Ky0Lp1azfHHHPkuQcd6urq3G+//RZ0anA+55xzulatWjVwC//4/fff3bRp08LOLknYvEAJHSZOnOgmTJiQ53uWWWZxs802W557tTtQRpRVUNq1a+c6dOgQdCr5/K+//nKTJ09uEL62ttZ16tSpgVs5fkTdS9u2bd3ss89ejugzFwfPBs9IWJI8n+Ew+i0CTU2gxmtcpzd1IopfBOIIXHvttW7gwIF5l1Fmnn766Tz3oMPQoUPdUUcdFXRqcH7GGWe4TTbZpIFb8Aed7BprrBF0yp2ffvrpbtNNN839LufJ8ccf755//vm8KFdaaSUHj5lJfvrpJ7flllvm3VKvXr3c7bffnudeisNWW23lfvzxx7ygQ4YM8RXTvAslOowdO9ZtttlmeaF79Ojh7rnnnjz3mcHh0UcfdWeeeWbkrbz++usOxVEiAlkhoNqYlZJooflYfPHFI+/8jz/+cD/88EPkNXN866237DTy+M4770S6m+NXX31lp3nHJZZYIs+tXA5ha4XFG+du16vxOH169HipOe41Lu1SOcbFN3Xq1FKjzHy45iinzENQBquGgBSaqimqmTOjK6ywQuyNffjhh7HXuMAIsZAUU3ji4sc6tPDCCxeKWtdEQAREQAQyRkAKTcYKpKVlh3UOCyywQORtf/TRR5HuOLKW4euvv469zgWmIUaPHh3rJy5+lKyamprYcLogAiIgAiKQPQJSaLJXJi0uRyuvvHLkPcdZUPD85ptvRoYJOxaadvrggw/C3v3frGWRiIAIiIAIVBcB7XKqrvKaKXO74ooruocffjjv3j799FPHLih2xISl2HSS+X/33XcjF/f++eef7vvvvzdvDY7kpyklbkdMnHtT5mVmiPvggw/O2+2Gha1cu6iMETvf/v3vf9vP3LFz5865c52IgAhUjoAUmsqxV8ozCBRSIFBqotbZvPHGG4n4xfmLm25i6/Riiy2WKO5SPcXFr3U7pRHdeOONSwuYMhTbs3fZZZeUoeRdBESguQhIoWku0konlkC3bt3cXHPN5X755Zc8PygeYYXmu+++K7g2JhgJa2j4m2eeeYLOLm46i+mmQltReS/Ht99+6z7//HP32WefuV9//dUtssgibtFFF3Xs2Jp33nkbpBP1I24HFfEEhffVDB8+POjkn6MQ8X4dtkSzMJppNd5fs+CCC7oNNtgg716DEbCuiHyjKGKhgj3xsY16oYUWKvrenmBc5TpnJw1MmQL8+OOP/TwstdRSDk7kq9i7hKgP48ePb5AdLDRRnEeOHJn33iPWcVFuU6ZM8fPw2muv+Wznm28+t8wyy7i11lorVydgF97thCUI9mGh7CjDoFDPu3bt6jsRz/vvv++wNo4ZM8a3Rvbs2dMtueSSfl3CIpRGqJusK6Ns+eP9PNR76mW/fv1ylk7qQPjdMtSf7t275yWHgh8nhZ6TuDByF4GmJCCFpinpKu7EBFAkot47E2VJSbp+xhKnww+/UyZOoSlkLeKdHBdccIH7+++/Leq8IzukTjvtNNe3b9+8a+YQt1U9bKF5+eWX3cknn2zBcsebbrrJvffee+7yyy/PudnJZZdd5o477ji3ww47mJN/hONJJ50U+b6WoMdDDjnE7bHHHrkOPHitKc5fffVVxzt/2KYflIceesj/Cc9zzjnHrbrqqsHLDc4PP/zwyPt66qmn8l6ud+SRR+ZNNfIuIjgfdthhkQokSsH999/vKwGwCQuL2h944IGws9t///3z7guFk/tBET333HMj820R7bXXXu7AAw8sqtDhn2eC8g1ztLhQTI455hjHO3t4r0x4bRmKbdS0b5cuXSyKBsfwAKHBRf0QgQoR0KLgCoFXsg0JxC3EjVq4G7d+Ju4le+HGm5HxsGHDGmZgxq+ofDDSPeGEE/yOoJAyQxR0KEcffbS7+OKL895eawnOOuusvmXEftsxrNCYe/j45JNPRioz5s8sAPzG+sGLC/fZZ5+CnaeFvfrqq92hhx7qWwzMramOKGasSYnrhEmXa+Tn1ltvbaps+OWEohNlDSPRjh07OqabyiUwPuKII4qWx6BBg3yliPoXJ1hlrrrqKl8ZK8SRejtgwAB39tln51mY4uLGHYtSlMS5R/mVmwg0FwFZaJqLtNIpSCDOMsI0FOZ466TpoJkSCAsN7DbbbOMuvfTS8KW8HVF0XHGKSXiagkXJu+22W9HOJ5zo3Xff7ViQfOONN7oosz2j92+++SYXDJN/lL+ch8AJcccJcay55pq5y1iLsFSkERTA7bff3tGhhqfB0sRTyC9TI9dcc00hLw2uXXHFFf59MSVTbqGcCkmht00XChd17ZlnnolyjnXDssZbiPfdd99IP1jk7rrrrshrUY6DBw+Oco51k4UmFo0uZJCALDQZLJSWmCWsE3EdenDaibUBUcoInTiWj+WWWy4PH2toWG9iEozP3DiyfbxNmzZBJ3fLLbekVmYsgi+//NIfPdvv4HHzzTf3R+mM1PmL67CCYZKcb7TRRrl7YFoqrTJjacD41FNPjfzOlflp7uOdd97Z3En66fXv378i6VqiKCwo1mFhPVAaZSYcPslvnqkokYUmiorcKk1ACk2lS0Dp+wRYxBm3TiKogMRNN6222mp+PKuvvnok0eC0U9x0U9hKhCJ0/fXXR8bHYlVM/SgMTJ2wcDRKsKaMGjUq6lJZ3FACgy8mtB0/WLIuuuiiyDRYl8J3rh555BF/9L/nnntG+vviiy/cE088EXmtXI7k5aCDDvIZwor1P3GS1roQF08xd9aTmHLNFKRZB4uFS3sdpfbCCy/01+eccsopsR9jZSrpk08+yYs+ag2VeeJZYmrr8ccfd9ddd51D0S1V4BEWKTRhIvqdBQKacspCKSgPPgEUChbChoWdICZx27BNoeEYpYSg0NiHBYMKksXLMfyCvyuvvDJ4OXeOFYjOwtZVsEuGNTMoCY899ljOn52gOLC4s9zCotK1117bt8gwfUXatgaINLEQhYWOmo9CBjtp1qiwwynqI4QoEXS8TSUssg4qkljqmH5joXCUMAXZVJ0pVj4+HEoHzo4n7n3++eePykaj3Vh8zaJfE3ZJsdOKsogSvmsW5MR3yF588cUor349R0GyXUhzzz23v1OQnXgo4WmFBcDsjAoKcUpEIGsEZKHJWom04PyEt2cbChQQFj8yDRK0tNh11lWgVCBss7XRtV3naJYdtvfGfTKBsEGJ+1YUu0VMmQn6Z2FpVNrPPvts0FtZzukM119//dz0Emtd2O1jn2yI2wmGYhVUZiwzKC1slQ4LyiSfmWgKoVMPdtKWBjvSojhynRciNpWcddZZucXaTD1ut912sV9jb0weULqjrGJYVaKmTElrwoQJDZIs9GFV6qEpM8FAu+++u+vhfRk8rUQpL02lVKbNm/yLQJCAFJogDZ1XlADv34gTpj+idjzh36wznPPOkqipK6aPGGWyBidKUGaCbyTm/SFRu0aYIonLJ+8NCS8qJi0WIUetgYjKR1K3rbfeuqDXESNGRF7v06dPpDuOvXv3jrwG+6aQQtMgUe91IQ+TJ09uiqz42/qb603NKI+meIZvJm4Rdvi+475ET72Ie38NSg4L3NNKlEIT5ZY2XvkXgXIT0JRTuYkqvpIJoIww7RNlheG9McGFvcFEggoN7vyOmroiXnZMRUl4uilOIUDJYetrnPDitShhSihOEYryX8gNpYqXvhUSXjYXJey6CipuQT9xa4uYuopbmxQMn+YcC0zU2gyLIy6PU6dONS9lPS677LJlja9QZIW258cpVVgogxL32Y5iFphSdolF7XSShSZYGjrPCgEpNFkpCeXDJ8C0U5xCE9zmHMRl60bMLazgmDvxht+QatfCUx9xHQb+S1mcWs5pm2LKDGlF7QQj76XseopjRnylCkpZIYma0sN/+C29heJIc62QcpUmniR+ea9NnMTdd9g/O5yiJM46Y35LeSFelPIS5WZp6CgClSKgKadKkVe6kQTCyol5YgFk1CJX1hyEt5YyAo5qcN9++20XtyB4+eWXt6T8I1NU5ZRyTjnZeqG4/MVZsuL8F3OPU46KhSt0PVxmYb/FPncQ9t/Y38WYNjb+YPi49UH4Cb82IBgueB7+1INdi1o7Y9c4tm6dfgwbttCgjBZLJ5imzkWguQhIoWku0konEYHwwlwLFNepxk2FRLmjpESti+FbRuysCUq5O7jwGohgWmnPiykD5f76c1NM8zS3wlKMcSElo1jYtNcLKS1xa2vCaYSVDLtezBIY3q1k4Qodw4ODqEXlhcLrmgg0F4H06npz5UzptEgCdNasNYlbvBuGEje9hDvv4EgiUVahuGkdTPbnnXdekmgb+Cll7UKDCAI/inW+cZ0dUbClPe0oPckHNwPZq8rTYkzLeVPlUObi6mfc2inLPx8BTSvhBcBhBSdtfPIvAk1FQApNU5FVvCUTQMFIotDQCcVZdKJ2OsVlKLwgGH9xHQaWoqWXXjouKn97eTk6rNgEvAvFzP1cZ01I1GicRadxO2l4GR8WgqRWgkJ5rLZrxZhm7X7i3o/Du4jYDh+1uJjyLeWbWKz52XLLLXPrl+K2lmeNkfLT8ghIoWl5ZZ75O2ZhMC9/KyYoLXHKA1YKdnywZbqYRL3/JjwqtTiYsnruuefceuutZ06549ixY/2XmrHGAIsMigN/nLNGp1ydZpJ4eFFelEJz3333uf/85z+5PAdP+JI0W7SxkAXzTwfWoUOHoNeZ7rzalLio1wNQKCjcWOH4QGpY7rjjjth3MIX9hn9HffU97Ee/RaDSBKTQVLoElH4egSgFI8+T51DMCsM6mmIKDUpP1I4blIYddtjB3XvvvXlJ87p6XkIXnorhFfMISg8fPLSPHmJJ4qOESXew5CVYggPvI4l6MSAKTb9+/Rq8u4fo+YK3vW8G61jQQsanHQpZpUrInoI0kgB1H6Uz6iWRfN+JtTR8H6x79+7+M8AAgbdHpxUWmO+44455wdjmXspbh/MikoMIlJGAFJoywlRU5SGAgpHEuhK3fsZywfVCX6bGX9R0k4XHYhGl0PD6fRp53rpLR89Lzp5++mk3dOhQC9rguM8++zSrMkPiKC184ylq+/lhhx3mdt55Z//7U4zo2UEWtxUdhlJmGhRnZn7w5t+4T0SwPb+ULfrhm2N3XtSC/KjF9eGw+i0CzU1ACk1zE1d6iQiwjqaQdQWlJ24tiCWwyiqr2GnsMfz+maBHFgBvscUWkSNbGvnLLrss6D3ynHzutNNOkdea0hEL03777Rfb4TGKT/Kl5oMPPrgps6m4G0GANy0PGjSo4HPSiOgVVASqjoC2bVddkbWMDBebduJDgsWEHVNxi4YtbCGFBj9HHXWU48vapQhTTXzxutg261LiThJmk0028RdzJvEb5YdvVsk6E0UmG26sH0Opjpoyjcth3Ffh4/zLXQSqiYAUmmoqrRaU12IKTbHpJkO1xhpr2GnekZ1AhbY4E4DdIqwVKDQ1lRex54Aywxe5wy/si/LbVG4sdD3xxBNLshDx1elKWJaaisXMGi91+Oabb478sGj4nllTQ7lGSfv27aOc5SYCVUVACk1VFVfLySwLbgu9pr3YgmAjVUjxSTIlRTy8Tv6aa65xfI25mMWH0TLbZtk+W8yv5THuGPc9ozSLi5l6wtJCp5dkdM4Xph988EH/S9Nx+UrjHrcLrdg9xF2PeildHKeo3WBxfqPiDd9nnJ84CxxKbZQU2lEVl0YcD+LnFQN8o+v888/3yzj4GQfWUbG4/c477/TXfEXlB7c4LnHpxrnHxS93EWgOAjXeV4WnN0dCSkMEZhYCfNuIj1CyOJhzOi46EToW3g8S1yll4f5Z5MnnH37++Wd/JwzfRiLfKJDsiInrnLOQd+XhHwKUG2UZpzT947PhGR9dRcEJCwME7VoKU9HvaiOgRcHVVmLKb8UJYLEpNJVV8QwWyAAj8bTTZwWi06UKEeAdQ2zNR9gRaEopijWWwbgyjtrmTRyFrKFcl4hANRCQQlMNpaQ8ioAIiECAQPBbY+wG5M8Eq82jjz7qwl/1Zqv1JZdcYt4aHHmZokQEqp2AFJpqL0HlXwREoMURYGow7sV6vFLg8MMPd9tuu63/1fkJEyb4L+Dj22ZxX5FPuiatxYHWDVcVASk0VVVcyqwIiIAI1BPo3bt35JuCucqbngcMGJAIFbvZmLaSiEC1E9Aup2ovQeVfBESgRRI46KCD/O9uNebm2ZV3wAEHNCYKhRWBzBCQQpOZolBGREAERCA5AbZO810xtmaXIiwEPvfccyO/zF1KfAojApUmoG3blS4BpS8CIiACjSAwbdo098ADD/jfbho2bFjRmFCA+E4Zn/WIe09Q0UjkQQQySEAKTQYLRVkSAREQgVIIjB8/3l/4y9e22dXEe5Jat27tOnTo4O964jMeaT6VUEoeFEYEKkVACk2lyCtdERABERABERCBshHQGpqyoVREIiACIiACIiAClSIghaZS5JWuCIiACIiACIhA2QhIoSkbSkUkAiIgAiIgAiJQKQJSaCpFXumKgAiIgAiIgAiUjYAUmrKhVEQiIAIiIAIiIAKVIiCFplLkla4IiIAIiIAIiEDZCEihKRtKRSQCIiACIiACIlApAlJoKkVe6YqACIiACIiACJSNgBSasqFURCIgAiIgAiIgApUiIIWmUuSVrgiIgAiIgAiIQNkISKEpG0pFJAIiIAIiIAIiUCkCUmgqRV7pioAIiIAIiIAIlI2AFJqyoVREIiACIiACIiAClSIghaZS5JWuCIiACIiACIhA2QhIoSkbSkUkAiIgAiIgAiJQKQJSaCpFXumKgAiIgAiIgAiUjYAUmrKhVEQiIAIiIAIiIAKVIiCFplLkla4IiIAIiIAIiEDZCEihKRtKRSQCIiACIiACIlApAlJoKkVe6YqACIiACIiACJSNgBSasqFURCIgAiIgAiIgApUiIIWmUuSVrgiIgAiIgAiIQNkISKEpG0pFJAIiIAIiIAIiUCkCUmgqRV7pioAIiIAIiIAIlI2AFJqyoVREIiACIiACIiAClSIghaZS5JWuCIiACIiACIhA2QhIoSkbSkUkAiIgAiIgAiJQKQJSaCpFXumKgAiIgAiIgAiUjYAUmrKhVEQiIAIiIAIiIAKVIiCFplLkla4IiIAIiIAIiEDZCEihKRtKRSQCIiACIiACIlApAlJoKkVe6YqACIiACIiACJSNgBSasqFURFklMH369KxmTflqQgIq9yaEq6hFIIMEUis0H3zwgTvooIPcTTfdlHc7r776qn+N6+PHj29wncbliCOO8P8aXCjw4+yzz/bjGzNmTAFfTX/pkksu8fMxbdq0pk+siVJoynsYOXKkz+euu+6Kzf0zzzzj+3nvvfdi/ZT7wi+//OKOO+44t/POO7vtt9/evfXWW+VOInPx/fnnn+6dd94pmq8RI0a4b7/9tqi/sIdDDz3UnXfeeWHnsv0uNV+WgR9//NHdcccd7vjjj/fLfaeddnLkeciQIS6o4OCPduruu++2oE1+/Pe//+3OPPPMJk+nWAKNZVws/pZ0/amnnvLrEf1iGrnyyiv9cH///XeaYIn8lpqnuMibsu+IS7NU99QKzfzzz+9+/vln98orr+Sl+dJLL/nXuP722283uP7NN9+4UaNGuVlmmaWBe6EfNLjENXXq1ELemvwa+SYfdXV1TZ5WUyXQlPcwefJkn08hxfP333/3/fz1119NdYt58V5zzTV+p92hQwe31FJLue7du+f5mZkcqKMHHnig4zksJK+//ro75phj3PDhwwt5i7w2evRo98MPP0Rea6xjY/JF2t999507+uij3QMPPOC+/vprR1tFe0Oer7vuOnf77bfnskg9hNfYsWNzbk19wjOI8l9JaSzjSuY9i2n/9ttvfj0KD+CL5dXa46CSXSxM0uul5ikufstrNfR/reNuIs597rnndnPMMYf7448/HKPBjh07+l4pmGHDhrk2bdq4KVOmuDfffNOts846uWjef/99/3yVVVbJuRU7adWqle+ldevU2SwWta43M4H+/fu7FVdc0c0777zNljIPIsIIw+ppsyVegYRoVHn2igkdfBalMfnC4nLiiSf697/bbru5jTfeODd4Qrnh2kMPPeT69u3revTokcXbb5Y8NYZxs2SwyhLZZJNN3EorreTmm2++Ksv5zJndkjSF5Zdf3h8FfvLJJ26NNdbwyXz55Zd+Y7Lpppu6559/3oVNcB9++KHvb7XVVsuRRCHCkoMJdK655nIrrLBCg1E0I6xff/3VdenSxQ/DyJOKg8UGhWnppZf2O8na2lpfuSoUVy7RiJNPP/3UH9HRKM4222yO+yPuKMGcz+hurbXWcqZwMcr7+OOP3YILLuh69uyZC8YUB1rt6quv7ruhBMKFUdqECRPcAgss4MeDBYHprJdfftnNOuusOf8WESPJjz76yPXq1csfdWLtGDp0qPvpp59c586dffe4/FocUUc6P+JhpE66Sy65pFt22WXzvJLea6+95uBDWcCnmLVj4sSJ7o033vDj4v5hxn1Tzgj3Q/mvuuqq7t1333WfffaZ69Spk6N+hJUelOXPP//cn0pBMSE+mDOltPbaa/vxBf+RlpUTZUT8pGv3Vux+GOljUaShoi6TPh0hynyUJMlfobpL2VNXeIbatWvnW5OWWWaZvKRQ0OBmFpJFF13Uz1dNTY3PgmcCoZxeeOEF16dPH3+AEYyIzv2LL77wnXh+qXuUAVKofvoeYv4Ve44pd9Kl3OBqbQH1iDqHFMpXTLINnJlmwnzfu3dvt/XWWze4xjO5yy67uNtuu81dffXV7oILLmhwnfxZfcGSRztkz7Z5hD31CCskdR9mDOzCQlvGtCpWS9qIbt26hb00+I3FhHwvvvjiBf0Wq7M2jUSdDSrvPFe0E7TT1Ju4sm+QqRk/krQPL774ot8G2bNFUO6H+5pnnnn88qV+wI42irYW3pTTIossEpWs72Ycaf/hzUB4zjnnzPnnOUCBX2655fy08E8e+M2gOijFni9rLygD2mvqAlYOflNneb7ihGeGusG9BoUBPOxhyH3SroXzhX9YsVQDJija+KMPMqFtsbioU7BYeeWVG5Sx+Q0fCUubwHNO20WdDeeTMEnrdjD+QnUDhrR3s88+u59XC0fdIy3aNmtLiYf7p81fYoklzGvJx5IUGioXGaZzNoXGGlMKhMpAB8iU0cILL+xnjg4J8y+FhvDQ07BwQya33HKL23HHHf0/3GhcKESrUJdffrnf6RE/MnjwYHf99df7HXKxuPwAoX+kffLJJ/uNafASJusNN9zQN98H3Tl/7rnn/I462EE+8sgj7vHHH/fv9cILL/SD0KGff/75vhsPBYVG/sPrcDCDE4aG79Zbb/U7FRrdrl275pJmbQod1AknnODz+L//+7+8eEiD9SJJhQbg1FNPzVvrRGUjfpsapMEiP+F8b7XVVm733XePTI6HlBExDymKAJY66gP3wToqlJA777zTffXVV76ChgJhQh3gPnloEcqI6REeBBM6JvJHgxal0NDpMEdtwvliiy3mN3hJ7oeyuv/++/2H30a08DryyCMtytwxaf7i6i71+4wzzvA7ylyk3gmdKutArBFkzdpjjz0W9OKf33vvve7SSy/1lSFbD4LSYPccHjmylsQUTZQ1ygWeSepnXuKeQ5LnmDTuuece9+yzz/odmsVz3333uW233db961//8te4ROXL/BY70r4ghxxySKRX6iudnbVH5glFkmfL5OGHH/b90S4wUEJgbGzN34033uiOPfbYXD3FnTbI2kF+c8+kh7u1YbibMCUKE579c88915zzjknqLIMhLFDUGVNQiQg3Bnp0FnFln5eg55C0fbjiiiv8/HM0oZOn/vEMo7CiSPGbztSeJ5jTdkfJ//73P/f00083uMRzwPNn/Q3tB2XOgA6lB3n00Uf9doG8MDhCSK/Y88UAgPyhePDsmNCuowzTjscJA0LqMVOda665pq+gnHLKKXnr08gP7S2D3qAQDoXKZNCgQX5+rZ+kbwjWKfzB4rTTTiuqAFx77bWOfsiEuA8//PAGMydJ67bFwTFJ3aC9on2mnKwNox/5/vvv/QEHVlSE9gP2PJ/lUGjqn1g/6uT/mDpA0LZNeGgY1aCE2LSSNVAAoOE3LZ4bNQVkhx12cDQOFByFTiNg8XJtwIABloR/RJmhUuyzzz6+4tO2bdtEcTWIZMYPlBNGhjQ6F198sb/QmQWECA9UsDLMCOJXWs6DC0zR6BEUOO4TsUrIKBlNmTl8lAIa3JtvvtlfWAkrOn8UMwQlCmEBrQlh6GywoDD6QunBjQWNnMONkSKsuZckQngWXFMOjGaJh8pGp8/Ih/whNETWUNGYUDkJh+ZNw2/lG0xz0qRJOWVm3XXXdUcddVRkY04Y8oGlZb/99nNXXXWVw7qH0MGa4I4yw4iOB5LfdNLkPU5ohKhT5JM6yTmNTNr7oTHcbrvt/E53yy23jEwuTf7CdZf6Tr1DAeP+/vvf//qNPB0vozIaSoQRNsoMShyNM+WF0ke5w4Znj06MawiDCu45yjqw9957+wuk8cczRLknrZ+ECUrS59jC8FyjwFCnDjvsMN+ZwQPPQFS+LFyxI88pnRrPCH9RgkJBhxVWLLgH2KNwogwQnqlzU5CwvKLM4G7PHIoMo9CLLroo10ZQJjzzjOrpSPijHGkTUCTCQqeNMoOVlrYQS1mUpK2zUXGYW1LGSdsHizfpkeeJgdcee+zh/0WFgwltL88Gi89pc2iT4c3UsQ1mLawNHOmY99xzT78uBRdeJ3m+LC6UGerCOeec47dzlDltqi2XMH+FjrQHlDkDQ+oAbelmm23m55ty5lkLCv0F+cXCyMYF6iPtAEK/SZ2ijlx22WV+XLRHhMF/MYHN/vvv7zNksEtbyPOOxQxJWreD6SStG7RBCP0JQl5QZpAgTwY7CNbMckhJCg0FTadCBoFLIXCONs6oho4XsY7epp9M0XniiSf8cGjw7EKgYUapoGNDqJyFBE2Xzg9rTmPiooBRzuh0F1poIb8DpBM2Uyhm3rDYPdi9oV3zoBIXgnkPsYJCoWHEwr2iha633nq+SZHpAnbfIDbC2GijjfzfjJxNUJxg3K9fP78xtspIZ005wI2GmMY2aJK18FFH8kjDgEKFpkw8WITo9NGmaVBoQGhcEBRLKhzX0KLNEhQuJ5SZk046yV+ciXJmymFUHsztgAMO8Nc7MHqjg4WjLdTk4YcjJlh2iNDo4480igl1irVX1EfOuce090PZMVWBBQHOYSklf8G6S2NJI0reGKlhTqYh5xwxRZeyoiNgwS9me/xTn9Zff33fH1OScLNOkXLinsOdN55RigiPcGR6Imn99AMF/qV99rCmwRJFi/pM549Q/6PyFUiq4CmWQMSmMwt6Dl003rRnKIVm8TOroVlmyPcGG2zgM8NKQDvBc2mWBCwOlAGKJuZ0/hgEMNKmfQgKlgnCcY1O28oj6MfO09ZZCxd1TMo4afsQlUYhN+okyiCDg7gOjDqFYCWmjaQuw5q2k84Uq0lQ6DMYwFDXt9hiC39QRn2AedLny+LD2oM1mIEd7RzxIdYRm7+4I/WB9grOVg9ou1AkySOWIOvgLQ76MdphBub0B9QJBikoRdbWc43nlLjwQzu5zTbbWBSxR9KkT4Eh7cfmm2/uM7QBc9K6HUwgad2g7URsYM+UI8IzwhIHWCEMxrgv7rscUtKUEwljEgc882I0qIh19nS2NFo0CjT6jHiC19E8ESoeI34T281UqAJRWWiETBoTFw0UCgaw2bVFusCm4iEG3dLiyBoHGmJGcFQ4TGYIFYwRNXExMkOJQ0mw9T9MtfCQPfnkk/59c+9m3rR0uC+Lm2soVja6Y5EjQidmFi1YsA4BUyfTOlTcJIJmjpgWbWFoWEmfhw4GZilj1BIUHkDSwnIQlKDFhpFEEqHxCAqd8rhx43wnGNGIMdox8z8X6CxgW2hXVTBOO097PzSohSRt/uLqLmmELZG4US8YLDBQ4I9nDcsY6fJsWd2354YwpQiKcJL6GY7b0ic/SZ5j1oAFhXLkOcJC0xhhrR3Cmqq0gqIaVPzoyNj2aoMZ7g2ho7JBDL+tjaAcmDZEKaRRNqUSP3TgWHGCgnJK/AgdJnWikKSts4XiSnotaftg3JPGG2YdFY72FyZ0xkGhDcKaZ4qmXbMpKPtN28tzwp+1q1wr9HxZWBvI2m9ruxmoJRGzkFOH6CeCgkLBdZ4Zm6ngerhtpV+FAf5Q+uhL6QtQipiZIB6UhfDUVTAtOw+37xgaaD+MYZK6bXHZMWndoBxQXuyZsSNKFXkgHp4PLDc2MLM0GnMsWaFhhMi6ERb4GZggQK4zp0lhsDiKDogbQKzDwrqBJhoU/KCxxUlwwRt+GhMX+WatB1ARCoBGiTzQQMUJFYqGmEIyzZOpmwcffNBXZGiEeJiClTU8L0wadOam7FlaaNTEjSKD9YTrjB6t8WBVPY0mo3fYoUTwR3x0KlHTDBa3He1Bj+JsbjAxf8FG2uJg1BDVEWEeRTHE1FtoXYDFY+nZ76DiYh0UaYWlffv2Yaeiv9PejzVocRGnzV+47pplDoUk6jkgXZ4RLE2s6Qj6oZypE9Y4xeUxqXvS+hmML+2zF65HPG/lEOoQfyh/1NsoiwcDqxtuuMG3xDLiNwmXSbD+4YfF+whTP2HhmeMebECXtE5SdihEWGroZOi04iRtnQ3Hw4AgrVia4WeTeMzN2syouOPSLGZBo4yQsDKAm9WdcLphv1YGtN/WPhV7vogfsTTqf7kGgyhzK3Q0bpaHoF+L2+qTXQtbfoP+qFusj2PaCksH/RV/DJzpb2wdisUVPpoF1Nyt7CwPdixUty2sHe0eLS5z52hulBHPEYNt+keUeAb+KGEMvlFocDdlPs5aF4w76XnJCg2jZoCjCaN58nCjtJig3KDQsE6FihXcwm0Vm1F8eEcCnQSmv6TSmLiYlwQ+SgSaoykDmEV5IOwBC+cFRWXgwIH+Oho0TZQgCodRNNYNmzKygkLpw8RMgTMShh0PIu4oLMF0UJZYLMi6GavsbHk2oUKRDnGTdyoGUz8oEYxgkkzzWDlFWTjMPM4UHP4YLeBG+ZrQYNF5oLwEhdEF00Gsj2DHDuZjFLBSBUUOsTwF44lyC16POk97P1FxBN0amz/bcUDDc/rppwej9usfDSOWMBZKo8xg4dh33319yx0NBus2UGiYHmyMpKmfwXQa8+wF4ynHOSN6niUGWVHWQawi/PGcphkRUu9RPJmO5Tk34TnkGcC6ZY28KbjmhyNrAknT1mChbNFJsaaO6SQWRDI9ESdJ66xZmcIdvk3fxsUf5Z60fbCwpjjY71KeTcJyD7SRKMq0iXZPXDNrcNhyg19TAvBnaePPFM1iz5dN7RC+MWLPs6UbjCuYr6A75RVUwM2f9UUoY0w1029gtWEmgYEzi72ZhiukDIcH5eG4k9TtYF45T1M3UF7on3gmGZgxG4IVjDbN1tFwXsoO3XC+7HdJa2gIjDLDA04jwoNtC4UtYsxu+DHzanDlvU0z2HSKhaEDpPBscaO5Fzo2Ji6zLLFbxyoQIydzjxtpMDWEf7Tm4L3b2iEUGh5M+CBYXBAKGMuVjSpM8QmmAzOUGiq6LfyyESUPOaZHlBYeQh4E/JqmbiN+P7EC/0xzZ/ormDYPDAoM90dFM388PEGhgiJhEy2jXRohFEJkkLeIt5QG1Q/s/ePh4aEzpdnc6QjCDbddK3RMez+F4uJaY/NndRclONioUg4oLpQ10xnsBkOY1mQaDGUGd1unZWVoHYB1sH6giH/mjziQNPUzGJ3lvxzPMfGG8xVMq9j5rrvu6nthEak1lhaGxtQWmqPM8IwlFZsms7UdFg4LJOs3GETwrPDM0GEELWZYalFogvlBuSF91kHQRmDlZadMnCSts8SF2LQH5+THpsb4jSRhbGkWax+Ij3un7pq1DjcGY6UKigj1OVynGNUj4WngYLlQn9l9a/6sfhZ7vvwAZfiHRRcetFdB7jyPdj9Wnyy5YP5RDNmthsABgwD9odVdBpnUcxtIYfkoJLa+y/wQH2IKhOUlmAeuB+s2v4OSpm4wPYaggCH0j9Q/BuQsV+HP3HwPZfhXsoWGtOmc7QEKTjdxjUbXLBY8wMF5QxaM0hBgIaDhppGh0cGag9+4rZfEG5bGxIVSgmWDbXkoDQBmN4l1EMFOJpyuzenibooMa4gYTSPBuV0bVbzwwgv++g8sUHRGaK8I9x4UrBr4RVnC6mGNFZWBRdSYIBnV9fMWVpJXq7goN0kERQsFkwXHaP5Yp0iLrcoIuxAQ3FFmUNyYg+ae6FxJjwc3aiRMOCxLrOyHJWsICm17xH+ccL+s0icOpgapYygywQ4iLmyUe6n3ExUXbo3NHyM6FqHSCNNwcY4CZ4MA3Jhuo7xYjDfIUxBpxKyBNAub1VMbrWHeZdcOC1lZpxIW84fpmg7Y1r4lrZ8WX2OePYsjeAzni7KnrJlKpSGNWgdh4XnGUPTZZYJ/Gn0abtY/8KzBDIuiKf8WrtiRnTNM6aJE09bx3GN9ZDEjCq1ZmPfaay9/Fw71lN0qmPOtHLkWFgY1bEbgnth5gtU2PP1FmKR1lnaCjo9njo4d6x6LP60ts/SjGNs1OyZtH/DPwBULH/eN1ZjO3NYVWnxpjijxbABgOo62mU4chY+BM+UX7mdY2Er7SVnQMdM+UMa0T0mfrzT5K+SX9oD6wtQmGycYgFAOLGQmX/Rz4TJm0Iplj3vDH0oNZY4/Zg64P+6Le+QZoB2gn6KdYBNBIUGRO+uss3xm1GEUbMIYw6R1O5hGmrrBgJtBL8tO6NfRBxD6S8oTsVkMznlu8GeLlXFLKyVbaEjIGkLOmS8Li12nsSGjJhQ8q/tRcjCLodzQSVJ5qcxUzjghbFAaExdpscCVB5IOgAae3xQ0Yluzw2lyzZQH7ouHGqERNfNhsKCwXtH5U7kZQdLoUrl4JwDKDRahoMUBXjbtRqUOCooCHR/WGAqePDM6ovPCpBcn4XtgJw0PGKM4FhnzjhhMtyg4lnfujW3hjHRopJgKo5yYC6X8bF0PymtYaFR46OgEaNjD6Yf922/8BeNDiWIXF40THROdCeZ7GmYarUISTjPp/Vic4fDmHjymyV9UfHTClCkdLp0mzwIKLDv4rBzYaUVHijJDQ49ig9huL1OMsRLQWBEXShJ1LEpQZlF0iI+yYdSbpn5anNxPqc8xcVg5G5dwvoKKfpKFzwxKzPJBo09dhQM8UL5Y01Wszti92ZG2CIWcI9ZLnl+eBRQI6qXdA+3BwQcf7CsQKBaUI50Tg4O4jod2gVEs/tjiGyVJ62wPT+k1ZY37xqJBnm3K1/JZiHEw/STtA/65ZzpjeNMe0VGx45J88xcUy0PQLXxO28I2ZuoyHTlcmNanf6H8sHAFxdZy8kzQlzANY0om/pI8X8H4gueWX6ufwWtx52zeYJCOIkldoW2lHvOMw8qEOOHDoJRnEH8MUPBn/Q911XY/MtWEH9pA6lOhQaLlmzqPUkObQbmgNAdnP5LW7fD9J60b3CuzEohZljmnDiLcP+UXlLACHryW5LzG60jrV2Il8d0EfmhsWJREh2XKQKnJlBoXDQpztHTQaRu8tHnlwec+eWDjhKmlvbxRHWsjsPiEKxTh8EMDi5IEu1KFNBgJoXzwFyeMdMk7SptNmcX5Lac7Zm8eYBRNE8qZxpt7j/pIqvkrdCzX/ZQrf5QnZupCdQM/TEcVe1aw2FCuxbbxMzKkgzALILyS1M8orqU+e1FxReUryl8hNzo3FDbuD15Rz1Ch8FHXsGLS6TDwsk4jyh+DBOoX7Um4U4/yn9QtSZ2l3Bkgsb4puLYknEZSxknbB3jzh0JSDtbkl3rMwA3e4ThR5pkqRZGBMVPbcYojcSV5vvCXVrCwoLwyzR60yhMPdQV+4Tefh9NgMEv/Q/7j6gtsWZuD8pim/SV9rLDF2oykdTuY96R1Iximqc8bNeVUjsyhQDC6KIeUGheNXrnyUOw+bP4zyh8NFn90klQwLBHhB9nC4c7UTmOFhrlQQ2Dx8xCVIz2LL+mRUR8jHKYRsITBhxEHmnxwGjNpfOavXPdTrvxRnoXqBvnGT48Ez0rYrG33HD7aot6ge7E8BP0Gz0t99oJx2HlUvuxa0mMxBT1pPEF/KH5JnoHGDDCC6YXPk9RZnmcUgGKSlHHS9qEpeFOPk9RlBgHF2rAkz1cxZlHXGQwiNpUX9IMFJImQ/2L1qlS+lF+SNiNp3Q7eT9K6EQzT1OcVV2ia+garKX6mHNg9hVDBeKtqSxde6gcTti2jeGJNQ1j/FDThVopT1vNXKS5KVwRmZgJMgzE1xsAKq0p4sfLMfO9ZvjcpNBkqHRYxMlfM+hmUmUIm4wxlu0mzwps0WYvFwmQWiDKNAifMu4xsKi1Zz1+l+Sh9EWgKAqwXRIlIM/1SznxgnWAanGlv1u1UKh/lvKeZIa6Kr6GZGSDqHkRABERABERABCpLIH97SmXzo9RFQAREQAREQAREIDUBKTSpkSmACIiACIiACIhA1ghIoclaiSg/IiACIiACIiACqQlIoUmNTAFEQAREQAREQASyRkAKTdZKRPkRAREQAREQARFITUAKTWpkCiACIiACIiACIpA1AlJoslYiyo8IiIAIiIAIiEBqAlJoUiNTABEQAREQAREQgawRkEKTtRJRfkRABERABERABFITkEKTGpkCiIAIiIAIiIAIZI2AFJqslYjyIwIiIAIiIAIikJqAFJrUyBRABERABERABEQgawSk0GStRJQfERABERABERCB1ASk0KRGpgAiIAIiIAIiIAJZIyCFJmslovyIgAiIgAiIgAikJiCFJjUyBRABERABERABEcgaASk0WSsR5UcEREAEREAERCA1ASk0qZEpgAiIgAiIgAiIQNYISKHJWokoPyIgAiIgAiIgAqkJSKFJjUwBREAEREAEREAEskZACk3WSkT5EQEREAEREAERSE1ACk1qZAogAiIgAiIgAiKQNQJSaLJWIsqPCIiACIiACIhAagJSaFIjUwAREAEREAEREIGsEZBCk7USUX5EQAREQAREQARSE5BCkxqZAoiACIiACIiACGSNgBSarJWI8iMCIiACIiACIpCagBSa1MgUQAREQAREQAREIGsEpNBkrUSUHxEQAREQAREQgdQEpNCkRqYAIiACIiACIiACWSMghSZrJaL8iIAIiIAIiIAIpCYghSY1MgUQAREQAREQARHIGgEpNFkrEeVHBERABERABEQgNQEpNKmRKYAIiIAIiIAIiEDWCEihyVqJKD8iIAIiIAIiIAKpCUihSY1MAURABERABERABLJGQApN1kpE+REBERABERABEUhNQApNamQKIAIiIAIiIAIikDUCUmiyViLKjwiIgAiIgAiIQGoCUmhSI1MAERABERABERCBrBGQQpO1ElF+REAEREAEREAEUhOQQpMamQKIgAiIgAiIgAhkjYAUmqyViPIjAiIgAiIgAiKQmoAUmtTIFEAEREAEREAERCBrBKTQZK1ElB8REAEREAEREIHUBKTQpEamACIgAiIgAiIgAlkjIIUmayWi/IiACIiACIiACKQmIIUmNTIFEAEREAEREAERyBoBKTRZKxHlRwREQAREQAREIDUBKTSpkSmACIiACIiACIhA1ghIoclaiSg/IiACIiACIiACqQlIoUmNTAFEQAREQAREQASyRkAKTdZKRPkRAREQAREQARFITUAKTWpkCiACIiACIiACIpA1AlJoslYiyo8IiIAIiIAIiEBqAlJoUiNTABEQAREQAREQgawRkEKTtRJRfkRABERABERABFITkEKTGpkCiIAIiIAIiIAIZI2AFJqslYjyIwIiIAIiIAIikJqAFJrUyBRABERABERABEQgawSk0GStRJQfERABERABERCB1ARapw6hACLQSAKvjpzuTnm+xr32tadPT5neyNgUvMkItKlxvXvWubPWne76LFiTKpkp0+rcpMlT3JSpdW769LpUYeW5OgnU1NS6Nq1rXbu2bVybVhorV2cpVneuayZOnKgepbrLsKpyjzKzwQ2tpMhUU6l5is0z+01LrNSgzIybMEmKTDWVcRnzimLToX07KTVlZKqokhGQGp2Mk3yViQCWGVllygSzuaLxrGh+uSVMD8uMrDIJYc2E3ih76oBEBJqbgBSa5ibewtPzp5laOINqvP005cY0k6RlE1AdaNnlX6m7l0JTKfItNV2tmanOkk9RbrLOVGcRlzPXqgPlpKm4khKQQpOUlPyJgAiIgAiIgAhkloAUmswWjTImAiIgAiIgAiKQlIAUmqSk5E8EREAEREAERCCzBKTQZLZolDEREAEREAEREIGkBKTQJCUlfyIgAiIgAiIgApklIIUms0WjjLUoAt7L61xturfxtig+CW926tSp3jtwsv2u0GrIY0Lc8iYCmSKgTx9kqjiUmTQEdu9b6y7auLWb5zTvJV7T/unE1l661r24bxtXc/pk5/6c7qZd3M4d9MhUd/0L0/Kiv23v1u729+vcE+9V9t0p489u6776dbpb/nwvzy1c/vprnLvj7nvyKHSac0634/bbui++/MqdcebZ7n/XXOk6dOjg9txnf3fwgfu7NVZfzR1+5DGux8Ld3fHHHpMXvrkcvv/hB/fa62+4D4Z96MjzCiss79Zft18u+abK4/U3DnLzztPVbbH5prm07MR7I7wbePOtboVll3V9+vR2n3/xpXvhpZftsuvapYtbeqkl3aI9F3G1tRrn5sDopKoIqOZWVXEps0ECV27WxnVtX+P26N3QspH7jIz3hQUEw8esMar7Dku1clsv2cyPQccaN/2/7dyWq/yT7vXvTHNXvJGvcNXfQcv6P378ePfSiy+54cNHuF9++SX398cff/ggzAJT531iAZk6ZYqb7P0hG2+8oVtnrbX888b8GzdunNt1973chx9+lItm6NDXfLecQ8TJ8G9HuBNOPMUNeeZZ123ebm6Kl6+BAwe5c86/MGc5CuYxKp2IaBM5vfDCC+4uTxH84/ff8/w/8+zzbuirQ91Hn3ziX4MtjOE7duxYN2TIM76SePSxx7sJEybmhZeDCFQDgZhmvhqyrjy2ZAIr9qp1Hds5N8Hrx/7Tt7W75ZWms2wstlCNW6RzjXvyI88KFH7BnKctrbNUjePluK9+4V2f+o+lyHWocZstVuP+muTcS1967pO9v3Y1bvNe9QrY6gvUuPdG1biRo6a7S4dOc8PHh0rUS3ObnjXuwc+8cH/9E+8iXrjhXp9T593ylovXuMEfe9dCn2Sbe54at97CNe7N76e74d5fNco+e+3hei3aM1XWV191Vdd+1lkbhPnjjz/dt8OHux7du7s5O83Z4Nqkv//2LT7dunVzc889l39tivfa/uEjRvjn3/8wys0zzzxulllncaN+Gu27DR/xnevsWV46ztGxQVzT6rwPeZ57nhfP3O7C889xrVvXN6/vvPue++8llzmOq6y8krM8RqXTvv2s7udffnU9Fuqei3uil8fRo8e4hbov6GpqGirvOU/eSbt27dykSZPc408NcbvstGPwkrvn3vv8361m5IkfWGJOPP64nD/u65RTT3dnnj3AnXfO2Tl3nYhAtRCQQlMtJaV8NiBw9gat3G9/O3fsU1PdjVt51dhTHty4MnfcnTxl5Pi2rkPbf5I+/LGp7spn6y0p6y9X657e05vamtHHTPGUmr7XT3Fvfl7n9l67lZ8vuzbZC7LUFZPdrG2cG/wv758nJ6zV2u2+wnTX3Zsae/3ANu4dT7HZ7BpPQ/OUpA//08Yt09Wz5Hi3RBxPflXnNrm63grx5sFt3N9TnZt/9vqE8XPxa9Pccfd5jp485l3f1FP4SLOtZ6V6/Yc61/vi+rC+h5n438WXXe4WW7SX23/fvXyLyPkXXtzAytKnbx93iDc9hTw0+FF3r9fR07HXecrIfAvM7wacfqobPWasO/+Ci30/d9x5l3tl6FDXd8013cMPD/bdTjvjLNd/g/Xdrv/a2f9t/0aOGOn+9qZ2jj/umJwyw7WVV1rR7bnH7q5tm/pytzxu3H+DvHT28vyd7sV/2qknu8V6LepH/djjT7pHHn3MDbzhf66VVShLNHCs8e5jrrnmdlhjdt5xh5zy8/Enn/r3N+ecnQK+809Rog7Yfz937f+u8608c3hKm0QEqonAPzbvasq18tqyCbSqcRv2rHV3DJvmBr5a53f652xY/qr87eFt/OmqVgMmu5r/THYPf1bnrtjMW7Mzr6dIeIt4h3jKzCdjp7uak7zrZ052v3pWksG71Y8R9l2p1rOs1LmaY+uv0Q9dumlr99HX013t2fXWpG3unOIrM+HCvG6XVr4ys8GgKa72mElu/8FT3caL1rojPCXOpJunwPX8rxf3CZPdm6Pq3OGr11/r2KXGV2ZQvNodN8ltftsU12POGtfJU46qTZ4cMsTd6U2h2N8bb72d6hbuf/BhX5k58YTj3W233OQOOugA9+orr/purCFBmdnZs2TcMuhGd4FnURnjWUGu89ahLLjgAu6qyy/10/rPsUe7AWee7jbZuL/bf/99fbebB16fp8xw4ctvvvavL7JwD/8Y/Nd/w/XdcsstG3SKTAeLFIrHSy+/kvP7qjdVtLq3PqhVgrUt6667jq9UvRlghTK0+BKLe9apOXJxxp0st+wy/qXPPD4SEag2AuXvBaqNgPJbdQR2XaPGtfFq7olYSrwpHiwQ+678T2dflhvyrCQLzVHjBrw01dX94plAvHS2vrHeArKLZ5lZd4kaX9nZ8GbP8sF0z+/T3bznTnGrYmHxpO+lU9x2t0/1p6N2XrLGtfb0iSU9ZSOJ9PeUl7c8JeXZYZ7Jx5MbvMXMP3hTTtsv88/jyj1/w1TSpOnunBenuXbe7aO0/DmhPoVj+7Zyu/apdY9501XdTpnsfhvj+a0y+fab4e6jjz/J/Y0a9WOqO3j/gw/cyqus5C92ZapmrT5ruksvucj17NnTDfPWxrTvMJu/gJZr8883n9toww3cx156pQpTW1h7bKqp1Hj69VvbX1RM+LE//+zGjBnjNlx/vUTRdfDuaZVVVnaPPPa47588sQ5oi83yFwpHRUh45Pff69crRfmRmwhklUD9cDKruVO+RCCCwPn966vtj8fWzwW1r7fkO9aW+J18RJi0TrWedR6rysejA4qAt5OKaZzlPAsN15Afx9Qf/f8TpruRMxSKB/Zv47bxFtjk8D0AAAg+SURBVBvXecHHewYZ/M8WmLoKhMo77eItdH7j+3plxi7+6Ck0WFpMRv9lZ86NnNH3tPeUmt/GT3db3THFtyTdtl0bd9t2zj33bZ1b/2pPGQvsBPsndHbPDvYsKmnX0ATv5peff3W9evUKOrku3voW5MeffvQsIQ2nVLp07eL+/LP0jrznIgv7Uzu/eGtg5pqrc4N00/xgR9RDDz3sr+358KOPXceOc6TisLmnvDBtNdpThF586RXXYfbZ3YreTqv7HniwaDZGeIuFEZvuKhpAHkQgQwT+GfJlKFPKigjEEpjNG017a0e+/m26O+bJqf7foY/WW07O3ah8VhqsMigjfXsEHhFP0WBNyisjprtnvDUtyCreol2Tbt1q/J1LtXN5i3k9ZYZ1La2OneQ6njDJjfhjuvvDW/MTlFYx2R3pbTVfuksgXS9Qz861/vRWMHzc+eC369xCZ3jTUf832c/DegvXup1X+yefceFmNvcFFpzfjZixuNfubZi3lfpnb2fPQt0Xcr+M/Tm384jrI74b6a9BMb8cWegbFttlFXZf1LP8IE8/+2yDS7x35iRvse1TTz3dwD34I5hO586d3MKecsS0E9NNTCOlEZTArl27eutuHvfzslH/DRMF577uuu9+38q0UGBRcqLA8iQCGSDQsNXMQIaUBREoROCMDeqr7KLelM61z0/z/65+bpp76us6t9USMRpCoQi9a4vNXePWXdabRprxt86MqR3Wphzdu5XbdvVat4ynuHz27za+kjPwgzr34bf1O6yG7NXGrb5EfdhvjmrrLtiotavzrDhIL0+x6eRNM52+ZSt/+qre1fs/zvnrflj3MouXdlhueneaW9qbPjpnm1auh2d1unWv1q7TLM5dnWBbN3mv8967c+JmHgvPkDXce7cNMuL3cCrZ//3tt8P996Ww3oU/tkSnERbyfv7Z526w17FjrWAtDouEx40b71bxFuqyI+iqa65zo34c7diS/fxzz3vvslnVT6L9bO39jv3Voa+733+rh9e1S71159nnXnC81yUss8/ewfXfqL975JHH3AMPDfamisZ6CtV3/pbt4d69rOSlGZaodPCz/rrruueff8Hb3TQ69w6bn7xdVnfdc69jGqmYbLbpJn74Cd69buSt34kSFkLD9bPPP/eVrVM9q87HnkXosEMP9u89KozcRCDLBDTllOXSUd7yCBywSiv3JZ10YBszns72lJuN9qt1/VeodVNmKBR5gWMc+nlWmH57N9Tta46e5HpfMdUN85SY+3as38nE9ut1B3prZLz1Msiil0527x/axr1+QP2c10/edE/v6+uv3/T+NLf3Cq3cr//X1v3phfvOs9DkxNv6ff+n09z23jtwRh3d1nU+0fMQkPOfmOaW8rZdH+9tRz9hLW+3t3c/Z7441WF5QdjVFIgtENK5Fz+qc499WecGrN/a+6v3S15e+zTf0tAgYAZ/3HzLrQ1yxdTLNVdd1sCt0I911u7rxowd40/f3O0pM6xv2XWXnXNboo868nB3w8BB7rXXXvOvremtsdll5x39KFkHs4G3pmaItwX6q6++cpdcfIFbfLHF/MW1Nw262Q3/7ju339575iW/x667uMmeovTw4Efc/fc/4F9nyufkk05wXWYoRMFAUelwve+avd0NNw50bCe36at333/fV5a233abYBSR5/3WWcvdevsdboXll3OzzVa/LibK45lnDfCd2fLda7Fe7qijjnCrelvLJSJQjQRqvJFGXNtYjfejPGecwKwn5lskMp5lz9Lh5ZlXm4SUqFy+Z51xT+FHiXC8qmSGlSTn3064jgTfXVPv8s9/b+u486bXUou3qHkWbxnH3yxoLiF4VHoTz0kW0a9/hl+oExVb87r96Vk1wu+NsRzwZmIWw0a942XatHrtuFVgfhDLBoKCVEh4Y/DsnjKRZPtzOB3W4Rxx1NH+NmoUM+T6G29y340c6c7ytpZXg3TuGK9IVUP+lcfqIyALTfWVmXLc3ARQOAKLcPOSDysy5oFwv9qPiGMhRca8l6LMENZbAPT3zxaJjnHKDGSYKoqToCJjfoopMuZvgfnnt9Oix2A6bDd//IknXadOnd3aa/XJhR35/fdupRXzp61yHnQiAi2cgBSaFl4BdPsiIALZIjD/fN3czjvs4H9zKWg12nTjjdwS3rSXRAREIJqAFJpoLnIVAREQgYoQ4CObURLnHuVXbiLQEgkUngRuiUR0zyIgAiIgAiIgAlVHQApN1RWZMiwCIiACIiACIhAmIIUmTES/RUAEREAEREAEqo6AFJqqK7Iqz7D3UUdJFRJIUW41NWpWqrCEy5pl1YGy4lRkCQmo5UkISt7KQ6B3z+p7wVt57ry6Y0lTbm1aq1mp7tJufO5VBxrPUDGkJ6CWJz0zhWgEgbPW9d7NkmK034ikFLRcBLzy8sstYXzt2vJmZTUtCXHNdN4oe+qARASam4BaneYm3sLT67NgjXtmv2mu9xJSbDJfFTxFhnKivCi3pNKmVa3r0L6da9umtRSbpNBmAn8oMpQ5ZU8dkIhAcxPQpw+am7jSEwEREAEREAERKDsBqdFlR6oIRUAEREAEREAEmpuAFJrmJq70REAEREAEREAEyk5ACk3ZkSpCERABERABERCB5iYghaa5iSs9ERABERABERCBshOQQlN2pIpQBERABERABESguQlIoWlu4kpPBERABERABESg7ASk0JQdqSIUAREQAREQARFobgJSaJqbuNITAREQAREQAREoOwEpNGVHqghFQAREQAREQASam4AUmuYmrvREQAREQAREQATKTuD/AaY/fxKgwaerAAAAAElFTkSuQmCC;" vertex="1" parent="1">
          <mxGeometry x="266.41" y="20" width="288.56" height="110" as="geometry" />
        </mxCell>
        <mxCell id="-GjU_IrM8_pYpkTcPefy-4" value="" style="endArrow=none;html=1;rounded=0;strokeColor=#CCCCCC;" edge="1" parent="1">
          <mxGeometry width="50" height="50" relative="1" as="geometry">
            <mxPoint x="250" y="260" as="sourcePoint" />
            <mxPoint x="250" y="20" as="targetPoint" />
          </mxGeometry>
        </mxCell>
        <mxCell id="-GjU_IrM8_pYpkTcPefy-7" value="" style="shape=image;verticalLabelPosition=bottom;labelBackgroundColor=default;verticalAlign=top;aspect=fixed;imageAspect=0;image=data:image/png,iVBORw0KGgoAAAANSUhEUgAAAGIAAABiCAYAAACrpQYOAAABW2lDQ1BJQ0MgUHJvZmlsZQAAKJFtkL1Lw1AUxU+1EqhSHBxUHLIIKlVLWil1qwVFcAhV8WNLX9MPTNtHElFncRB0dRYHcRahDg7q5C5o1b/ApYuQRUu8z1Tbqg8u9/cOh/vOu0CHX+Pc8AMolmwzNTcjr66ty9IrJPQjgAiCGrN4QlUXyILv3n6cB/hEvx8Xs8JnsZvq3mGMnccHB6YL+3/9bSeQ0S1G/YNqjHHTBnwjxOqWzQVvE/eZFIr4QHDO42PBaY8vvjxLqSTxHXEvy2sZ4ipxKN2i51q4aGyyRgaRvkcvLS9SD1INIQkFUczS/+MI027+90Yb3jI4dmCigBzysCEjQQqHAZ14HiUwTCBErNA0BVNix79319T0Sxq9S089NbWNGnB1QvFqTW14ku4vwG2Wa6b2s1Gf47eyEcXj7grQdeS6byuANArUH133veK69VOg8xm4dj4BUeRiabESqc8AAABiZVhJZk1NACoAAAAIAAIBEgADAAAAAQABAACHaQAEAAAAAQAAACYAAAAAAAOShgAHAAAAEgAAAFCgAgAEAAAAAQAAAGKgAwAEAAAAAQAAAGIAAAAAQVNDSUkAAABTY3JlZW5zaG902qqtpwAAAjtpVFh0WE1MOmNvbS5hZG9iZS54bXAAAAAAADx4OnhtcG1ldGEgeG1sbnM6eD0iYWRvYmU6bnM6bWV0YS8iIHg6eG1wdGs9IlhNUCBDb3JlIDYuMC4wIj4KICAgPHJkZjpSREYgeG1sbnM6cmRmPSJodHRwOi8vd3d3LnczLm9yZy8xOTk5LzAyLzIyLXJkZi1zeW50YXgtbnMjIj4KICAgICAgPHJkZjpEZXNjcmlwdGlvbiByZGY6YWJvdXQ9IiIKICAgICAgICAgICAgeG1sbnM6ZXhpZj0iaHR0cDovL25zLmFkb2JlLmNvbS9leGlmLzEuMC8iCiAgICAgICAgICAgIHhtbG5zOnRpZmY9Imh0dHA6Ly9ucy5hZG9iZS5jb20vdGlmZi8xLjAvIj4KICAgICAgICAgPGV4aWY6UGl4ZWxZRGltZW5zaW9uPjk4PC9leGlmOlBpeGVsWURpbWVuc2lvbj4KICAgICAgICAgPGV4aWY6VXNlckNvbW1lbnQ+U2NyZWVuc2hvdDwvZXhpZjpVc2VyQ29tbWVudD4KICAgICAgICAgPGV4aWY6UGl4ZWxYRGltZW5zaW9uPjk4PC9leGlmOlBpeGVsWERpbWVuc2lvbj4KICAgICAgICAgPHRpZmY6T3JpZW50YXRpb24+MTwvdGlmZjpPcmllbnRhdGlvbj4KICAgICAgPC9yZGY6RGVzY3JpcHRpb24+CiAgIDwvcmRmOlJERj4KPC94OnhtcG1ldGE+CqMnWUIAAAlQSURBVHgB7V0JVFXHGf7ufQuLy2MREJFFoogViRBBNMYi2boYTUxPtlNrW0+PNY1L2jSpaVPFejSlmjRNrIcktk2axuScRtJU27QpakCCgMEoESMiGAMi+7687d7OXOAtgXfZJG+A+TmXN3fW737f/eefeXhGYcHfVsng5nYGRLcj4AAUBrgQjLwIXAguBCMMMAKDewQXghEGGIHBPYILwQgDjMDgHsGFYIQBRmBo1XD4eExRK1bKWk0dsMrWAevxCuoMuBRCL+qQdf8b6q1JaWr+frxT+t8B67mqEDI5CDMnT0fe9bOuqkyIfJdCWGQLPqwsQJD3NIWI2YYwaEUNOixduNpaZSPHZDXb0sNJbL75u7gjdClueev+4TQfN21cCiHJMjZ9uMv2oCtmLsYLy5/G+fpSrM/8pS1/pImwKTNG2sW4aO9SiME+XWLQAvxo/gMImxIMmfxUtFXjQNEhzPWZhYeivqV4z9bs3bBIVvh5GvDS15+Bp0aPHXn7sXbeKszxCVc87cCK7cqQ+8+9iU/rLw12+HFTb0TL11uD4/Hq7buwMGAeihsu41hFHmL85yA9JRVn6y4oQXx5yCJsvnktREFE2q1PKOUFNZ+i3tgESZagIfkC+WkxtSkXFWwi2og84tHYhxXOqAccKjmqpMubK/BM4kakhC7B49nP4tDd+7Bu3r1YFBijiHCmthi/KzyoeMhTOfuQHJJIPEIGTU9kG5EQUT4RCndbF34P9HK0GZMCcaWlEtvzXsTeZU8qInRZjfhZdpoigmNdngZGJESHpRMeZL6nwZvuJxytvqtRuQ13CMZ6UY+IqSGo6ylzrD/R0yOKERcayhT+EoJi8VljmXKVNF1RxGkxtSMu4Gv4SewjypL3LxcySJwQsGfpT2HQO28UaZyg+5aJbCPyCLrCSZq+ED+OeRDxhPSKtuugqyi6QTt4/u/49qxkJUjvLkjHe+XHQKeypcFxSE16DFuz9ii8f956DdG+kXg5ZSdmTA7Er3JfQH71uQmnyaA9gq5qvmxF9SXYeHwHLjd/gYSgGKy56U6yRPXBP8oy4aX1xHSyGTxy5YQiAm3761MvotHYgpSZSYpgNI96SqOxmay8ookn6ZSlLM2faCbcqH9O402I99Z6oYGQSpelQzGNoCHCeaDd3KnsRYbSdrzUHdHU5EgC/eqDXsMx+qVhm9k52A+nn7HcZtBT01h+yLGAnQvBiEpcCC4EIwwwAoN7BBeCEQYYgcE9ggvBCAOMwOAewYVghAFGYHCP4EIwwgAjMLhHcCEYYYARGNwjuBCMMMAIDO4RXAhGGGAEBvcILgQjDDACg3sEF4IRBhiBwT2CC8EIA4zA4B7BhWCEAUZgcI/gQjDCACMwuEdwIRhhgBEY3CO4EIwwwAgM7hFcCEYYYAQG9wguBCMMMAKDewQXghEGGIHBPYILwQgDjMDgHsGFYIQBRmBwj+BCMMIAIzC4R3AhGGGAERjcIxgRYsDzmpKKmvCNk7VIPt0ArVWG3jy0Q7GG+5xWjQALuTIT/fH+sgCcWuAz3K7GRDvVE8yoCNsOliG4dngHYt0oBqoCPLFnfeS4FkN1aqKe4G4RqJgUA8Uynk1VCDodsWIsYRkNTlSFoDGBFWMBi7XdDMk0wNnllLL+rgGIVA3W/QVmYfYseBTn2Ls1miBdKIH09ruw/D4dsFqh1DmfA8tTqd15PbWFyHB4FGXDtPweSB+fhe7l56D5/kPdpbSf4ouw7NwL6egH9v57Uv1h6VNplDLai+tQ+adzMFaRI1cFYEpsIGZuiIPW4OE04hcHCtF0ssIpr/cmbEsCDInBvbd9PlWF6FObZpDTjKHTwfrqG5Ays4Bp/tA8sBravakQb0uC6V5yRjitoydnuKZth5RXCCm3QOlKMEwFvL26y2lXQQGQa+th2bQNQnwsNOsehD7jNRjnL4N8qfuUZaWhG39Zmoy48lw+JkX7I/SxW2Bu6ETFgTO49noRwjYtckIWsHI2DAnOZLd8fB1NOZXwjlRf9Q1diJ6hpdOfwPpWhnJnfeV16DPJkdOrvwlxYQzk9p6jQ4lgurdfgSkuBXK9i3jT2gbr4SMAueSqauheehYiEcXKiBCtZ6shWySEboyHZpIOXhEG+NwWiua8SicR6I1n6FTl6i2QydRe9WYxfJeHQjeNvIAqphojVNo5F5FpxfL0LiVPvDPZVib95ziE0BDo/vpHmxfYCvtJyIU9R1H7qr89/TQdtSzDkhDM3Xe7IoJtEKsEQTMwdY0nrsJc34nA+6JsTV0lhu0RX+5QyskHTGYIUTfZiiy//QM0DY3QPLwG2l9shvT+MVuZLeGhhxAzD0JwELQ7nlRijPQR6YsRE/UaiP72t9lc14nGnApMu2uWKkKZbHxrMi7CLzkMOof2rhrdMCFoTIBWA1gs9rHI/1NkXr8FYvQcaH+zDZbOvhtDISIMHp8cBzo6IX12Cebv/BDyuWJ7HwylLC1GlKedgleYgbzlc1WR1X9QDkubCQGr56jW6y28YUJot2wARBFS9qnevrs/Cfk0gOtP/w/a57unL8cK8sVSGKOXOGYxmaZBunx3rrJSivj5Ygg611OT1GVB7XuX4LciHDo/uzepPdiwhRDjFgBrVgJ+PqBxga6caEywHjqsLF8dB5WvVpA3/QfQH39XEcuxbCykTTUdRISPoA/0RvgTi0GnKzWr+9dlWIkYAasG5w20L9eyuhqpZ3rRbFgH3Tt/hm5/GkQSF2iwNq18hGxmyG6mnylIysqF+VESA2j5GDJjZSvKdp5UphmfZaFQlqO5lWjOvwa6Kqr9Zyk+J8tbmqZmbTOjlgjhf0cEdL6eg37SIXuEXHENXUKA6gCu6ljTXwO9es20em1vktnP6sMlMDd2x7aK9DNOOKPSVqCjtAFt5+sgm8lGVqNF7dFSiDoNAu4ZvDfQTlW/fc14vBAhNX0DrBOar+imMtAT9z0f/xWNNvhhqCdQEUTPIb/TToOoTk3FkZOdKrvzhiUsjjwI5G8mIxWB9qcqxL/JH2TKQ7wdx3VLmmKgWMazqfrTyThfGPUiVmbVILmgAXqy1df0BKXRJoX+hc6kFXEiwQ9HlgeiYL5htId0a/+qMcKtyCbY4KpT0wTjwq2Py4VwK/32wbkQdi7cmuJCuJV+++BcCDsXbk1xIdxKv33w/wORbtt4rnc0hwAAAABJRU5ErkJggg==;" vertex="1" parent="1">
          <mxGeometry x="180" y="20" width="50" height="50" as="geometry" />
        </mxCell>
        <mxCell id="-GjU_IrM8_pYpkTcPefy-8" value="" style="shape=image;verticalLabelPosition=bottom;labelBackgroundColor=default;verticalAlign=top;aspect=fixed;imageAspect=0;image=data:image/png,iVBORw0KGgoAAAANSUhEUgAAAGEAAABiCAYAAABAkr0NAAABW2lDQ1BJQ0MgUHJvZmlsZQAAKJFtkL1Lw1AUxU+1EqhSHBxUHLIIKlVLWil1qwVFcAhV8WNLX9MPTNtHElFncRB0dRYHcRahDg7q5C5o1b/ApYuQRUu8z1Tbqg8u9/cOh/vOu0CHX+Pc8AMolmwzNTcjr66ty9IrJPQjgAiCGrN4QlUXyILv3n6cB/hEvx8Xs8JnsZvq3mGMnccHB6YL+3/9bSeQ0S1G/YNqjHHTBnwjxOqWzQVvE/eZFIr4QHDO42PBaY8vvjxLqSTxHXEvy2sZ4ipxKN2i51q4aGyyRgaRvkcvLS9SD1INIQkFUczS/+MI027+90Yb3jI4dmCigBzysCEjQQqHAZ14HiUwTCBErNA0BVNix79319T0Sxq9S089NbWNGnB1QvFqTW14ku4vwG2Wa6b2s1Gf47eyEcXj7grQdeS6byuANArUH133veK69VOg8xm4dj4BUeRiabESqc8AAABiZVhJZk1NACoAAAAIAAIBEgADAAAAAQABAACHaQAEAAAAAQAAACYAAAAAAAOShgAHAAAAEgAAAFCgAgAEAAAAAQAAAGGgAwAEAAAAAQAAAGIAAAAAQVNDSUkAAABTY3JlZW5zaG90UXmTvgAAAjtpVFh0WE1MOmNvbS5hZG9iZS54bXAAAAAAADx4OnhtcG1ldGEgeG1sbnM6eD0iYWRvYmU6bnM6bWV0YS8iIHg6eG1wdGs9IlhNUCBDb3JlIDYuMC4wIj4KICAgPHJkZjpSREYgeG1sbnM6cmRmPSJodHRwOi8vd3d3LnczLm9yZy8xOTk5LzAyLzIyLXJkZi1zeW50YXgtbnMjIj4KICAgICAgPHJkZjpEZXNjcmlwdGlvbiByZGY6YWJvdXQ9IiIKICAgICAgICAgICAgeG1sbnM6ZXhpZj0iaHR0cDovL25zLmFkb2JlLmNvbS9leGlmLzEuMC8iCiAgICAgICAgICAgIHhtbG5zOnRpZmY9Imh0dHA6Ly9ucy5hZG9iZS5jb20vdGlmZi8xLjAvIj4KICAgICAgICAgPGV4aWY6UGl4ZWxZRGltZW5zaW9uPjk4PC9leGlmOlBpeGVsWURpbWVuc2lvbj4KICAgICAgICAgPGV4aWY6VXNlckNvbW1lbnQ+U2NyZWVuc2hvdDwvZXhpZjpVc2VyQ29tbWVudD4KICAgICAgICAgPGV4aWY6UGl4ZWxYRGltZW5zaW9uPjk3PC9leGlmOlBpeGVsWERpbWVuc2lvbj4KICAgICAgICAgPHRpZmY6T3JpZW50YXRpb24+MTwvdGlmZjpPcmllbnRhdGlvbj4KICAgICAgPC9yZGY6RGVzY3JpcHRpb24+CiAgIDwvcmRmOlJERj4KPC94OnhtcG1ldGE+Ck4eblkAAAjWSURBVHgB7V0LcFTVGf7OvXc3ISMkEJAUMMGQVBxADRGRYjstLVMfVKhYB7WFsXZgtBbwMVqwoNXWqdS2lhGmjdTCdMYKFKSd1BEFo1IVUCgiJUFBQohIIiSBPHfvq/85i5vd7F6yLMnmkJwzc7Pnnud3v+/+5z/3buZf1vbsGBcq9SgDWo/OriYXDCgRJLgRlAhKBAkYkACCsgQlggQMSABBWYISQQIGJICgLEGJIAEDEkAwvDCw9CyvqnC5G2wEHDt8rjLJMRBfBN0P/7z/dDqitfVx2Pv+0Wk7rwZswHCwzEvgHN3u1aRPlMcXwbHgHH4T7KIcQQLLLgA0amq2wG2oaifGDrTnk8gZX1sArWAqAs8VJdG793SJL4LrwPzXfeGr1PKnwPe95XBq/gdzw13h8vPNsKy88x2iV/SPL0KCl6aNuAb6NXMRItOFe6oa9vaVYIMvg37l7cJqzNL55DcssIxBJOQKwNcP1tal0ItmU7tCQDfgm/EnMaO9fQWc4x8lOHvvaZb0FlXLuw6+mS9AG1YEt3Y/nENvQBs6Fr7vl8D5fI8gXrv0GzAmLwSYBuP634LljINTvRNu80mqd6hcJyYZ0HZaHK5t9R5mz+FKkrYE49p7xTQW3fn2hy+KvFv3KYwpdJeP+jbMfy+Ef9Za6OPnkFDFIQGO7Yb19jIhkPnqw0jL/xbgGuD5vpySFoEvOTwZk+8XRySJbMAwuPWVMLcshe/G3wkBYLXBeuUBIUBkW5UnDpMlwTWbwYw04ajdQFP0MC0nxDkbGOF4advLskbSUhSqi+7Qt8+S9glubblgjjtn94vy0HHiAAnjhxs4TUvQeBjX0g6LtrX27tVn/MLTYOmZ0Yxr5BdIoL6ckrYEvpPRcidBn3gP2PBi2hkdhTZiIj18jYD1/iroo6cJ4q2yX8Mu/ydYdiG0vMkwvvMEzNIFgnO3oRJsyOXkzJ8Hf3CzXn+UHtx29Dk9ErMEurM7Juf4Xpib5sGtO0TkT4A+ZqbYhtr7N4H5+4H1z4FTUSoE4H2tLUuA1npo5LS59fBk71oNt7VO7LBAFgRuFX0wsS75lxdfBhGfAbeljnY7tPU8l0TEM3p2cIPN1Ldv/vdN0stRFM/8dQYdSSV6ARjj2JMa6MLtlNhydOFe3wWBXIkggUxKBCWCBAxIAEFZghJBAgYkgKAsQYkgAQMSQFCWoESQgAEJIChLUCJIwIAEEJQlKBEkYEACCMoSlAgSMCABBGUJSgQJGJAAgrIEJYIEDEgAQVmCEkECBiSAoCxBiSABAxJAUJagRJCAAQkgKEtQIkjAgAQQlCUoESRgQAIIyhKUCBIwIAEEZQlKBAkYkACCsgQlggQMSABBWYISQQIGJICgLEGJIAEDEkBQlqBEkIABCSAoS1AiSMCABBCUJSgRJGBAAgjKEiQQ4ezxjiqCcHe1AXvp4HHJrRQFhdIoVioPAnZVOlhxOjC6d8fI8xaBC7COwq7V9UBUeIfE5gHE3m+FeygIdtuAXi2E53IkLKAnBOi4PBAGgaVjeS869xRBLEGyXChfDntx8hahB1YhT54lwNLQYqMlmHiQxQD5z0TjKnqLEMcJs4JLkR481n40VsK/8zUYD1LcbD0UTlO0CRyDsXBeFKcsPw/pzVXQiq8U5b6S30ePs2MztJumRvUJn8TBEq7r5sxbnzTjiqcOImdxBbIfKcfNfz6C2kbvwOrcnc1f/zkyH9qPj2sT+30JbxHiXRyjXYvPB3vNWpizfwpz0a8o2nsAxjO/hH/DX0M9eBu/D8ayx6BNmhAehWWSc83oRwFrqZ4SGzqEogqfhDlrLqw/loANy4H/5TVghfnhPj2dqTlt4Qd/qULBED/ee2gU1t+di52VrXhg4/G40Pjd/8PVR1HyDoUmPYd0biKcGdj5YA/sl16G/dwqBKfOhPPOTmjTb4B21dj2qUks31qK/Js9qL2sY66xCfbGUli/eArWb5YLgbXxV3Rs1WPnm8ubwIl94c7hKBqRjmlj++POCVnYdohiuMZJM0qOYOuBZjx248Vxar2LkhIharhAENZisghK2tRvik/+x9lcBnbJcPj+tjJ894cr42Tc3XtDpQM7/0GlON27pejWogHY92ghsjLaIxebtgu/HrLmjpPOKs7E6z8bievyMzpWnfXc+znhrN2iK7klIGiCfXVUuMJ6ejn0unrot98C4+fz4bz6RrgunEmjSPJjLwf7ylAYjz9MD4Q2nHdpLElShl8DP75MVfUmXtrVgHu+nv1lUdTnnIkDxfm2g/EtJapxxEmXiMB9AAy6W6wIh0VbA/Nu+uGi0YUwnlwEqzV2m8lG5iJtTxnQ0kpxtT+BeeuP4e7dHwFPnuwXTRamk1MeNywdi787pEuBdYkIxgLaCWkanG3bo8ER8cEZs+H/YAuMP4SWrMgG7oGDCIyeFFkkZf6zBhM3rDyCi/vr2DQ3D2lG/OUoWfBJiaAVjQNuodD8g7KEH9Bvmy58gP33jeBb1MjkVlXTHX4X/GWbhFCRdRdC/vDJIK5fUYn8wX5s+Elu1PLUVfjbF7xERjyzpOjz5sBHW1LfimXQyA9wxxycdkco6nucZcd5+z2Y99Kan+jTSyJYUtCmoiaAKcsPo54e1O64Ogul+xqxbvcpbPzwNLiDfmbrCbGF5XmemgIOqslqaptCT5fHaYvLzztLnqH73YU1nfVNaT17dmhK5+OT/WhNNdb/91TcefcsKsDS0hqUfdyMT5+4DP3TNKx6tx73rTsW075iSSFGZnu/CfYW4ckTwEkJ3hfwS8qm31hYMjjm4nq6wKLH4zbTxUUkwPkk7965tOORJcmEJYITg773OF8B+HCeIrCr6cuUnKT8dgTMLsgSBoGlC4aSdQhvlsek0U+0MLg7aH//ER3cv/C3U6lI/Js1bojj6Ju1iXQzFHqvp6mA091zeIvAZ6aLZ4IAevmmUrcx4LkcdduMauAYBpQIMZSkvkCJkHrOY2ZUIsRQkvoCJULqOY+ZUYkQQ0nqC/4PwemExP2ioi8AAAAASUVORK5CYII=;" vertex="1" parent="1">
          <mxGeometry x="180" y="140" width="49.49" height="50" as="geometry" />
        </mxCell>
        <mxCell id="-GjU_IrM8_pYpkTcPefy-9" value="" style="shape=image;verticalLabelPosition=bottom;labelBackgroundColor=default;verticalAlign=top;aspect=fixed;imageAspect=0;image=data:image/png,iVBORw0KGgoAAAANSUhEUgAAAGIAAABiCAYAAACrpQYOAAABW2lDQ1BJQ0MgUHJvZmlsZQAAKJFtkL1Lw1AUxU+1EqhSHBxUHLIIKlVLWil1qwVFcAhV8WNLX9MPTNtHElFncRB0dRYHcRahDg7q5C5o1b/ApYuQRUu8z1Tbqg8u9/cOh/vOu0CHX+Pc8AMolmwzNTcjr66ty9IrJPQjgAiCGrN4QlUXyILv3n6cB/hEvx8Xs8JnsZvq3mGMnccHB6YL+3/9bSeQ0S1G/YNqjHHTBnwjxOqWzQVvE/eZFIr4QHDO42PBaY8vvjxLqSTxHXEvy2sZ4ipxKN2i51q4aGyyRgaRvkcvLS9SD1INIQkFUczS/+MI027+90Yb3jI4dmCigBzysCEjQQqHAZ14HiUwTCBErNA0BVNix79319T0Sxq9S089NbWNGnB1QvFqTW14ku4vwG2Wa6b2s1Gf47eyEcXj7grQdeS6byuANArUH133veK69VOg8xm4dj4BUeRiabESqc8AAABiZVhJZk1NACoAAAAIAAIBEgADAAAAAQABAACHaQAEAAAAAQAAACYAAAAAAAOShgAHAAAAEgAAAFCgAgAEAAAAAQAAAGKgAwAEAAAAAQAAAGIAAAAAQVNDSUkAAABTY3JlZW5zaG902qqtpwAAAjtpVFh0WE1MOmNvbS5hZG9iZS54bXAAAAAAADx4OnhtcG1ldGEgeG1sbnM6eD0iYWRvYmU6bnM6bWV0YS8iIHg6eG1wdGs9IlhNUCBDb3JlIDYuMC4wIj4KICAgPHJkZjpSREYgeG1sbnM6cmRmPSJodHRwOi8vd3d3LnczLm9yZy8xOTk5LzAyLzIyLXJkZi1zeW50YXgtbnMjIj4KICAgICAgPHJkZjpEZXNjcmlwdGlvbiByZGY6YWJvdXQ9IiIKICAgICAgICAgICAgeG1sbnM6ZXhpZj0iaHR0cDovL25zLmFkb2JlLmNvbS9leGlmLzEuMC8iCiAgICAgICAgICAgIHhtbG5zOnRpZmY9Imh0dHA6Ly9ucy5hZG9iZS5jb20vdGlmZi8xLjAvIj4KICAgICAgICAgPGV4aWY6UGl4ZWxZRGltZW5zaW9uPjk4PC9leGlmOlBpeGVsWURpbWVuc2lvbj4KICAgICAgICAgPGV4aWY6VXNlckNvbW1lbnQ+U2NyZWVuc2hvdDwvZXhpZjpVc2VyQ29tbWVudD4KICAgICAgICAgPGV4aWY6UGl4ZWxYRGltZW5zaW9uPjk4PC9leGlmOlBpeGVsWERpbWVuc2lvbj4KICAgICAgICAgPHRpZmY6T3JpZW50YXRpb24+MTwvdGlmZjpPcmllbnRhdGlvbj4KICAgICAgPC9yZGY6RGVzY3JpcHRpb24+CiAgIDwvcmRmOlJERj4KPC94OnhtcG1ldGE+CqMnWUIAAAkwSURBVHgB7V0LcFTVGf72nd0lySabx0LebPqAgYFghRgc1MHRIi2OCq3GVgcrqJiKIzLDjMViVRym6nSsr2rbtHWY8qgNSK3tABnxQZSAKOFRyQTIi5CsyT6S7PvRc05Kugm7d7PZhD1Jzj/cydnzuPe7/3e/8/93lzlHNv3lEyEIS7oH5ElHIAAwDwgiOHkQBBGCCE48wAkMoQhBBCce4ASGUIQgghMPcAJDKEIQwYkHOIGhlMKRkaKQamZtvd4g/EHxLUlMR8XoEJUItUKGU4/MjjEc2HigHdsbemL2i9ahMF0NenzS0hety5Soj0oEfcr3n3NgRqqaOeI7Rg2Uchn6fUFcsHkHnePxBwfLoylsWpyL5aXpKHrl5GiGT5oxUYmgs839e5sHb/RWcxqqVxThq04XVu4+N1ifaKHEoEn0FJNifFQiRnp3iwumYf3CbJRkaBAi5DXbvXiprhOzs1Ower4R54l6fvZeM3yE2SydEn++vQhapZxNaWsWZGFWVgqUZBrcfkcxu+SLdV04fsk50stPmn4Jpa83Fadi98oSXJunxwmilH812THfpMWOu0pwtMPFgvjNJanYdL0JCpkMr99WgDKTDnVt/bA4/QgS5shsB/IPdk+AHZSwqWgJKWLDdTnMZy8SBVR/2c3KjT0ebFuah2XmVDy4rwUfVJbi4WuyUJ6nYyQcae/HlkMdTCHr/tmKW6rSmJJoeSpbQkTMJtMKtafIE0+PcCsgmVCT1YMN+9vwu+WFjAQXCexr329hJIT3FWUgISJoBpVC5nsavB3kfSLcLP0+9nFmWDDWKOQwk1jS1e8P7yrKxAMJxYiGTjdzYgUJ2Ce7XOw4Y3FDQ4KvzRPEQhI7nqzIZSnvG8e+YfHg1WUFMAx7UZSTQEHfW6ayJaQIGhuWFE3DE+U5WESc3mz3gGZRRWRa+u0RC+6aZSBBmkxdtRex67QVs4wpuLF4Gl6+JR8PkEyK2jkyfc3J0WInCfAFaWo8/u82fNI69V7uRqwIuztwxQP7BUkzK2vO42y3BxUFelTOyWQp6s5TVujUcvIyqMK7Z2yMBDr4CRIvelwBfJ+8k1DCqFGldLv8+N4MPTRKGcjsNSVNNlb/nUavkkNPnN/tDCBAXyjiMPrGriPje0kKG9/IOC7CedeEpqbwe6OBmx6jMfp1ioOQMJVtik4E/FEuiOCEE0GEIIITD3ACQyhCEMGJBziBIRQhiODEA5zAEIoQRHDiAU5gCEUIIjjxACcwhCIEEZx4gBMYQhGCCE48wAkMoQhBBCce4ASGUIQgghMPcAJDKEIQwYkHOIEhFCGI4MQDnMAQihBEcOIBTmAIRQgiOPEAJzCEIgQRnHiAExhCEYIITjzACQyhCEEEJx7gBIZQhCCCEw9wAkMoQhDBiQc4gSEUIYjgxAOcwBCKEERw4gFOYAhFCCI48QAnMIQiBBGceIATGEIRnBARc72mMk0DbtAdxnXao1AgAJVsYNHE8cYfoFcLKfCpayEOOStw3DN3vC+Z1PNLrmBGSViXUY0chSWpILsC2XjdunpSkyE5NVElJJsE+gRQDBTLZDZJIuh0xIvxhGU8fCJJBI0JvBgPWEKefoTc/SN2SchPtncY4UKTksFaKjC/9tcOXOzy4vn1RRGBSbVTbG/u7ECArMVYVTl9cPz5Njfe/lsn2ju9KJqhwZpVuSgwDWxrIIVl8ATjVPB3NMK2cwt8LQ3sCqqiuTDc8zyUOcWRrxgKwv7uVjgP70L2pr2kX0nkfmG1kooI6zekaLX7sX2fBfsP23D8zJVPiFQ7XQx/61utqK7pQlPLwErK9OT+QAhVz51DdoYKTz2UD22KHOu3jt0+FUNuIJ4PAT963n6UjTA+9g6M6/6AYG837DuejngWqgLrXzYyEiJ2iFI5KiL2fdgDo0GJxWVpqDkwsEp++Pml2l8gJBxp6MOKmzLDhzAVWKw+PPRjE75drMWalbloI8qgdck074UvEbBdguHuX0FdPA/q0muhv/4e+FpPRYRlJaR5vq5D6rKqiO3RKuMmgk4rew524wc3ZrKj9nMb7L3/X3Q9VvvScgPe/KUZuVkDW+ZcBmbKUkFDFvBtbHaxqsZmN9L0ChjTJWfPy8PH7a+KOD/nFx9AaTIPXiNg64Q8PXvwc3ghZcFtMFZVQz1zQXh1zHLcd1l/spfFBvpEZ2eqoNcq8P5HVlQuHwAWq718XmpEUJSEjavz8PAzTcjPVTM1PPdYIegC7sk0mUIFRWYeg+D87O9wNxyE/+LXMNz7QkRYukV3sHpvU3wZZ9yKqDnQA3OhFrbeAHl63Zj3XT32hE1PsdojoieVHRayJc6f2vHze6ezBGDtKhO2/b4dNN5wY0E/ZCqyhY/XHXVqGi3WuBRBnXKo3o4539KxrIdelE5FzR0eFrSLSaYj1V42Sx8V58fHHMgjSrisLBon9tZ249PjDjYFRh14FRt0FT8CPVz178G2awu0i+6EXJc2JgjiIoIGYUOaEm88bYYibL+HR59tYkG7tDBFsl2KCEpC6yUvTjc5Mduswxen+9DV7UP+/9LXMbnbUZyk/+Pt8PznMDIffJVshjQwTcpTjQDJpoK9luQQsae2B3febBxCAr23lbdmYfMrzWg4q5Js3/hAHupP9uGZ11rg8REpEbvhvgY8Sep/SIL/fSuysY6QSlWmILHhkbtNmE+mvmSaunAuHHt+DduOzdAv+QmCDgscNdugzDWz94O+2j/Cd+ErZNz/EgGtRMjjRNDlQLBvYJPEoOMbBNRaKAxDt/4Zfk+SX/rtzfvp8P7j/pmS0Ee2PkglGdNwu739neFVV+Wz6+g+OP7xG0YCyR6gKV2E9FWboTDmw1r9ODxnP0fulgOQafRw1u2GffezV+CimdfloH9FI6mQJOIt0wbkKroijbvqdZ2BHKy9RJ66JFrQaYeMPN0yZVjqHSR7Xvg8hARdQsgks6ZG78yETj6Wg3nAItelDyWB3qBckTAJ7DRSzvqQ/CDT6h/IoaX6jXcbxUCxTGaTzJrq3WXwhDRYqvsI5dpj7Ne5q/UtKP2FzhdS4TPXNTjoXIITntg7CU9koiRjxES+sYmGXTJGTLSbmch4BRGcsCeIEERw4gFOYAhFCCI48QAnMP4LWvIbo0Um4aAAAAAASUVORK5CYII=;" vertex="1" parent="1">
          <mxGeometry x="180" y="200" width="50" height="50" as="geometry" />
        </mxCell>
        <mxCell id="-GjU_IrM8_pYpkTcPefy-10" value="" style="shape=image;verticalLabelPosition=bottom;labelBackgroundColor=default;verticalAlign=top;aspect=fixed;imageAspect=0;image=data:image/png,iVBORw0KGgoAAAANSUhEUgAAAGIAAABiCAYAAACrpQYOAAABW2lDQ1BJQ0MgUHJvZmlsZQAAKJFtkL1Lw1AUxU+1EqhSHBxUHLIIKlVLWil1qwVFcAhV8WNLX9MPTNtHElFncRB0dRYHcRahDg7q5C5o1b/ApYuQRUu8z1Tbqg8u9/cOh/vOu0CHX+Pc8AMolmwzNTcjr66ty9IrJPQjgAiCGrN4QlUXyILv3n6cB/hEvx8Xs8JnsZvq3mGMnccHB6YL+3/9bSeQ0S1G/YNqjHHTBnwjxOqWzQVvE/eZFIr4QHDO42PBaY8vvjxLqSTxHXEvy2sZ4ipxKN2i51q4aGyyRgaRvkcvLS9SD1INIQkFUczS/+MI027+90Yb3jI4dmCigBzysCEjQQqHAZ14HiUwTCBErNA0BVNix79319T0Sxq9S089NbWNGnB1QvFqTW14ku4vwG2Wa6b2s1Gf47eyEcXj7grQdeS6byuANArUH133veK69VOg8xm4dj4BUeRiabESqc8AAABiZVhJZk1NACoAAAAIAAIBEgADAAAAAQABAACHaQAEAAAAAQAAACYAAAAAAAOShgAHAAAAEgAAAFCgAgAEAAAAAQAAAGKgAwAEAAAAAQAAAGIAAAAAQVNDSUkAAABTY3JlZW5zaG902qqtpwAAAjtpVFh0WE1MOmNvbS5hZG9iZS54bXAAAAAAADx4OnhtcG1ldGEgeG1sbnM6eD0iYWRvYmU6bnM6bWV0YS8iIHg6eG1wdGs9IlhNUCBDb3JlIDYuMC4wIj4KICAgPHJkZjpSREYgeG1sbnM6cmRmPSJodHRwOi8vd3d3LnczLm9yZy8xOTk5LzAyLzIyLXJkZi1zeW50YXgtbnMjIj4KICAgICAgPHJkZjpEZXNjcmlwdGlvbiByZGY6YWJvdXQ9IiIKICAgICAgICAgICAgeG1sbnM6ZXhpZj0iaHR0cDovL25zLmFkb2JlLmNvbS9leGlmLzEuMC8iCiAgICAgICAgICAgIHhtbG5zOnRpZmY9Imh0dHA6Ly9ucy5hZG9iZS5jb20vdGlmZi8xLjAvIj4KICAgICAgICAgPGV4aWY6UGl4ZWxZRGltZW5zaW9uPjk4PC9leGlmOlBpeGVsWURpbWVuc2lvbj4KICAgICAgICAgPGV4aWY6VXNlckNvbW1lbnQ+U2NyZWVuc2hvdDwvZXhpZjpVc2VyQ29tbWVudD4KICAgICAgICAgPGV4aWY6UGl4ZWxYRGltZW5zaW9uPjk4PC9leGlmOlBpeGVsWERpbWVuc2lvbj4KICAgICAgICAgPHRpZmY6T3JpZW50YXRpb24+MTwvdGlmZjpPcmllbnRhdGlvbj4KICAgICAgPC9yZGY6RGVzY3JpcHRpb24+CiAgIDwvcmRmOlJERj4KPC94OnhtcG1ldGE+CqMnWUIAAAlGSURBVHgB7V0LUFTXGf52l0VhV9ZdeQQFLC8TwQACoWMUqTaxUyFGMA22k7Ed28m0M02d0c40rW1qnWkbO2mdzDgdamMyk+kMmXZqgmgkMA2+SK1iIVGrCCiPCC7K8n4vuz3/Ibu5LO4uuAhHOP/Mcs+959y93/2++5/HXeb/VQfWvWOHtFlnQD3rCCQAzoAUQpAHQQohhRCEAUFgSI+QQgjCgCAwpEdIIQRhQBAY0iOkEIIwIAgMP084AgwLPFXzuqHeYdhG5VsSr0R5aeBWCI1Wg1eOf9vL6cBHf/gEnxbf8NrOXQNDuB6Lly5C46VWd03mxXG3QthGbairaEZQqI4TERy9GGo/NUYGrOj4vNtJjnV41Fl+kML6l9OwIms5/rjx3Qc5fc6c41YIu82Oo6/+y3mj8euikPv7jWi9fg/v/aTEedzXgjFika9fMSfOdyvEZO8uKjUca3YkwRgRBNjt6GzpQcXb1QiJMyE17wl03O7B+7/4GDarDYHGhdh24BloF2hQcuATpOcnIiTWCA3ztG+98Sy/5LkjVWi9dm+yl58z7XyavkZ/dRm2v/kNLHsyFOaae6g924TwlSF48eAm3L7Sxgfx2DURWP9yKlRqFZ7bl8Xqg9FUdQd9HQMgr1OpGQQVMNgzzD8k2Hw0nzxi7c4Uzhl5wH//eY2X2xu7sOmna7Bi/XJ88Mty7PhrDjK2r0JkymNchM8/M+PjQxe5hxT/5jTi1kUyQdSg8nw2n4QIjTVx7rJ+mAb6KM3wmB6Wpi6cfL0Cz+//GhdhZNCKol+d4iIo28oy4JMQwwMj8GP9PQ3etJ5QWp9lgO+aItnY8YVRW1OUAY46x3G5BXwaI8w32jmHNGCbay3801bfAQ0jnPr8iKQwrPv+aj7lvVB4BSqVCjmvZWJh0PiFolqjAq1b5rP55BHnjlTjK08txdPfS2akh/IZE4lCC7Tzf/sMiZti+SBddvA8rpys4zOk6Ixl+Oara/lMioi3NHcjLN6EfDbA0+LuxO/OoWkeLu4m7RGDPUMTHtjW/93FP/aUob2hE1Grw5GUswI6YwAn3X+hFovYYvBqaT3fp5NpvBjoGkR8ZhRIMLKLzFP6Owf5zEvjr4Gaza7mo6mm699p/AO00Ab4cVJpWjoVo65Jy84f6mPjzNROncplhG7rU9ekvDMauOnzIEYvDV0H+wf5nkf5nEl3TY/yTT4K2KUQgqgkhZBCCMKAIDCkR0ghBGFAEBjSI6QQgjAgCAzpEVIIQRgQBIb0CCmEIAwIAkN6hBRCEAYEgSE9QgohCAOCwJAeIYUQhAFBYEiPkEIIwoAgMKRHSCEEYUAQGNIjpBCCMCAIDOkRUghBGBAEhvQIKYQgDAgCQ3qEFEIQBgSBIT1CCiEIA4LAkB4hhRCEAUFgSI+QQgjCgCAwpEdIIQRhQBAY0iOkEIIwIAgM6RFSCEEYEASG9AgphCAMCAJDeoQUQhAGBIEhPUIQIbzGazKuCETI6iAsWaXnYeHUfjMTYYyCb9lZtOt7l3twt6obHTf6BaHs4cDwKASJEJcXhgVG7cO5uodvpYC9KuavoalBMEQHoO6oeU6L4bFrIk+YDRFc9SEMhGUum0chqDsSxUTC8jA48dg1Ufcgis0mFgr+SCkblDY6YuOxzZXHHGXCSiFXKXrnZGMVehRiqgNzf38/9u7di8zMTOTl5TlwjdsWFBSgpaUF+/fvH3fc285UsXj7vqnUZ/0oHU+xyP5KqzvXjKM//zKtg6Mu/cUEZP4glUf8pGMNF1vw4W/Pord9LDK0o53r1qMQro297ZeVleHChQu4efMmtm7dymK4jn+KOjo6UFhYCKvVyoVKSRkL8u7te2e7PiTayOLVDqHmVIMTSkNli7PsKFAs242vZPCY6Bffu4qwx5cg5fnHWdD6p+8rmuM82k6rEEVFRcjOzkZpaSkqKiq4ZygvduLECZhMJsTGxoLaPipCBLMcF7cvt6H0jX8rb2dCOTI5jB8rO/gfNJJQxUAES+kQmTJ2fMIJigPjH1lFxVSLNTU1oE9+fj4XgIhWmp0l+Th27BgXisQqLy9HV1eXsomQZYpjrl8SwHNcLE8LR3CMccJ44QDez3JikAUuHot97sciO/sHalmujEFHE7fbafMIIj4xMZE/7Vu2bMHu3bthNpsRFjb2NFRWVqK1tRU5OTkIDg6GTqdDSUkJF84tOgEqliw3cBRxayNBH7LuO70o+vVpUEhupV0vb0DqCwl47rUspG1LgI4JGMTSN0wmN8a0eMTAwADvjpKSkrhX6PV6BAYGoriY+eYXRt4QExPDvaC+vh7Jycm8e3LUi7q9c70dhT8+iSMvvY8/5/6dd0+LwnQ80Lwr5hCWTyOI1Y1aR3l47dER9mqA2dLEUNemE/anxSNoTKCu59atWzh8+DC/SHh4OI4fP46dO3dy8s+cOYOEhARnPbVvampCdXW10GMFkdn8qdlJXHVRDRKejUEEGw80WjVoGuuwjO2JoO7o7R0fgDLLUMqeba9/HWkvrETV0Ws8M4Cjret2WoSgbmnz5s3Ys2eP8/stFgtyc3P5oN3Y2AiDwYBDhw5Bo/kyT8SuXbvEH7QZmWqN2pkFxl+nhZElJ+m9289FGHsVo+L1BrZ2IGG6zX1jPLCA850tvbxMXRSlaHBnPgtRW1uLuro6vn5QXoRmRxs2bODdEwlBoihFoLa01ti3bx8XkLozEY36e8qDdPWjevSxtcDKZ6KhMwXg9F8ucbgvFWQjNM6Id75bhHqWty/jO6uQzxJg3TjVCH1wAFbnPsEXdt4yifksRHx8PKjbuZ8RyZ4sKyuLz548tZntussf1oIGbFoPkNF64nTBJVCGGDJacY9lDlPh7FtVPNXPk9nxWMqyj5HdYdnIyv503usK22P+iPSfRWOhaebfvPI7cPkzaBlB5YFbLkdnbneB3p/ny6PXFkqjMYESkIx7lcG6M5q2Uio369DYgK08535ljx7R2zwojBCEZTZtHNEKIJQidEKaUDY2DPdNLZeGx+lrG/tBpr9tfDYtBYYZKxIGwjKXzaNHWK71wTZiR2g6+4UuUc/6Q/qxZmbeyNIvdDarHe1Xe9FW2Y3Ounn8Cx09gUTAXCdBBE/z2DWJAHC+YJBCCKK0FEIKIQgDgsCQHiGFEIQBQWD8H1sB47aR97dOAAAAAElFTkSuQmCC;" vertex="1" parent="1">
          <mxGeometry x="180" y="80" width="50" height="50" as="geometry" />
        </mxCell>
        <mxCell id="-GjU_IrM8_pYpkTcPefy-11" value="" style="shape=image;verticalLabelPosition=bottom;labelBackgroundColor=default;verticalAlign=top;aspect=fixed;imageAspect=0;image=data:image/png,iVBORw0KGgoAAAANSUhEUgAAAGIAAABiCAYAAACrpQYOAAABW2lDQ1BJQ0MgUHJvZmlsZQAAKJFtkL1Lw1AUxU+1EqhSHBxUHLIIKlVLWil1qwVFcAhV8WNLX9MPTNtHElFncRB0dRYHcRahDg7q5C5o1b/ApYuQRUu8z1Tbqg8u9/cOh/vOu0CHX+Pc8AMolmwzNTcjr66ty9IrJPQjgAiCGrN4QlUXyILv3n6cB/hEvx8Xs8JnsZvq3mGMnccHB6YL+3/9bSeQ0S1G/YNqjHHTBnwjxOqWzQVvE/eZFIr4QHDO42PBaY8vvjxLqSTxHXEvy2sZ4ipxKN2i51q4aGyyRgaRvkcvLS9SD1INIQkFUczS/+MI027+90Yb3jI4dmCigBzysCEjQQqHAZ14HiUwTCBErNA0BVNix79319T0Sxq9S089NbWNGnB1QvFqTW14ku4vwG2Wa6b2s1Gf47eyEcXj7grQdeS6byuANArUH133veK69VOg8xm4dj4BUeRiabESqc8AAABiZVhJZk1NACoAAAAIAAIBEgADAAAAAQABAACHaQAEAAAAAQAAACYAAAAAAAOShgAHAAAAEgAAAFCgAgAEAAAAAQAAAGKgAwAEAAAAAQAAAGIAAAAAQVNDSUkAAABTY3JlZW5zaG902qqtpwAAAjtpVFh0WE1MOmNvbS5hZG9iZS54bXAAAAAAADx4OnhtcG1ldGEgeG1sbnM6eD0iYWRvYmU6bnM6bWV0YS8iIHg6eG1wdGs9IlhNUCBDb3JlIDYuMC4wIj4KICAgPHJkZjpSREYgeG1sbnM6cmRmPSJodHRwOi8vd3d3LnczLm9yZy8xOTk5LzAyLzIyLXJkZi1zeW50YXgtbnMjIj4KICAgICAgPHJkZjpEZXNjcmlwdGlvbiByZGY6YWJvdXQ9IiIKICAgICAgICAgICAgeG1sbnM6ZXhpZj0iaHR0cDovL25zLmFkb2JlLmNvbS9leGlmLzEuMC8iCiAgICAgICAgICAgIHhtbG5zOnRpZmY9Imh0dHA6Ly9ucy5hZG9iZS5jb20vdGlmZi8xLjAvIj4KICAgICAgICAgPGV4aWY6UGl4ZWxZRGltZW5zaW9uPjk4PC9leGlmOlBpeGVsWURpbWVuc2lvbj4KICAgICAgICAgPGV4aWY6VXNlckNvbW1lbnQ+U2NyZWVuc2hvdDwvZXhpZjpVc2VyQ29tbWVudD4KICAgICAgICAgPGV4aWY6UGl4ZWxYRGltZW5zaW9uPjk4PC9leGlmOlBpeGVsWERpbWVuc2lvbj4KICAgICAgICAgPHRpZmY6T3JpZW50YXRpb24+MTwvdGlmZjpPcmllbnRhdGlvbj4KICAgICAgPC9yZGY6RGVzY3JpcHRpb24+CiAgIDwvcmRmOlJERj4KPC94OnhtcG1ldGE+CqMnWUIAAAnBSURBVHgB7V17cFTVGf/t3d1sHjzyIJAQEgKBoMhDaqWZQiUpRTIaETAUi62tKKCIOqj8YZkqjAo6o9MZR1rwMWBLizqOBNHKKyEoZQgRMiMRWmigAUIemwchS1776nfuzWOTkLsnCSe5zZ5v5mbP3vPd73z397vf952zMOeasLbRCykDjoAy4B5IB1QEJBEGeRAkEZIIgyBgEDdkREgiDIKAQdyQESGJMAgCBnFDRoQkwiAIGMQNi54fUWEmvW61r7bBC5fHr5pU8INAt0TYqKfy1SA/lwMrP3Xh/eNuv3rdKYyLNGF8lAnZ5wObzW6JcBK2e3/wID5ci4o7YkywmgFHE/CfyvbfCRtd3UHMd/71+yx4aLoC2zoyHMDSLREewnrBh842aB6coiBruRXfXfYg7U/t59sUetmYGO0//fXS9P/VZd0SwXsXaRMUrJ9nxsQRJrA4uVDlxYb9bkwfbcLTs8xq9Cza7gSLsJFDTNj7hBWhVmAFpbS1c8yYGqtF2tcr6STJK/vcOHEp8NJUn6av6bcpyFltxaxxCk5e8SLrtAd3xys4sMqKYxc9ahG/f7KCTZR+zDTSrt9YMDPBhNwiD8rrvHAT3uw8i4maeu1wutvTnspMgPzpU0RsmK9dvmGfC+8e1Qr22XIvti6xYNE0Mx7a4UT+2iC8kGbGPUmKSsJRIuj5PS41QpbtdGLBFBs8VHtYO5ClT0RMo/TD5I0Mi3r4ApkYYcK/K7x4/GMnPv2tVSWhvhlYskMjwVdXtoE+EeFo8iLEalKLN1tP+EpZnfYteWR7MQ6mMjCJvpdRWpLSEYE+1YhTJRqgrGAXUJsd35d6EUzk1NR7MZtqx0ZKX2zK+9ZhNxTiZOcjFkSGtpPD3DHTV7ZuCWTp0+2zGc68ZAUv32vGz8abUETri59PVNQF2uZsF359l1ktxms+d+GjfDemUiqbP0nBh0uphtBMisk5uxcz4kw4+KQVibS4+90uF3ICcHHHHRE1DV2f17xiD9K3OXGGCnQqRcUTKWZ1irqDQB8SZFIXgztPelQS2NWPf+xC5Q1g4VQFLIqYsEixO7z4aaKCYHosLNweqZcPmj+mW/XfaYbYoIJvv6FNS3uCEAM/jIi7TjXHG6Dlo0+pyRdsVgdY8e6NsB8NawP8v1cFaCLozeMi9hpJhFh8ua1LIrihEqsoiRCLL7d1SQQ3VGIVJRFi8eW2LonghkqsoiRCLL7c1iUR3FCJVZREiMWX27okghsqsYqSCLH4cluXRHBDJVZREiEWX27rkghuqMQqSiLE4sttXRLBDZVYRUmEWHy5rUsiuKESqyiJEIsvt3VJBDdUYhUlEWLx5bYuieCGSqyiJEIsvtzWJRHcUIlVlESIxZfbuiSCGyqxipIIsfhyW5dEcEMlVlESIRZfbuuSCG6oxCpKIsTiy21dEsENlVhFSYRYfLmtSyK4oRKrKIkQiy+3dUkEN1RiFSURYvHlti6J4IZKrKIkQiy+3NYlEdxQiVWURIjFl9u6JIIbKrGKkgix+HJbl0RwQyVWURIhFl9u65IIbqjEKvrdrylleB7So/chLSKXtoVzIchEW1X2g7i9Fri8ZmRXz8U+ezqO1/6kH0YduCF0dzBjJLw0fjNibaUD5yGNXNoUi80XXhrUZOimJhYJA00CewKYD8yXwSy6RLB0ZBQxki8iMNElgtUEo4ghfGmmXYWbr/NB4nSQbssuxBxX6BZrvcK8ZVcprlY04/Xnxt50GL1+tpPl1k9K1U3a1yyLbbv+4pVGvP9ZOUrKmzF2tA0rloxCfAxtn0mi50ubAVGNykLg4FNAWb42QsxMIP0DICK564hVZ4FDq6mw5UHdsjOWdO99D4ic1FXX54xuRPjodWjW1Lrwt712HDx2DQVnaSPXTqLXz95Lsem9y9i+uwJFlxrbrnTRLvlrXruA6Agr1q8ag5BgBc9tutDWP2AND20UnLVQG/7hI0DmfqC+HDiwsqtLLtryf88iIoC27WS6v/qG2uyNKEsBj3526RURe3OrERVuwawZw7D7UFUXh/T6NxMJJ047sCAtssN1LArsNU6sWhqD5MQQrMgchSst5zoo9veXq8eBuiv0VG+jWQNNoePnAHdSdJSf6upJ2Xe0b+p/gbnvADF3a0fq20D1v+idDOe66vuc6TERLK1kZVchIzVSPXLyrqG2rp1tf/1zU8Kx9ZUkjBrR8f1FMSOssAUpOF/coLp3vrgRw8LMiBqumz19bkVQk4G/nICMmtw+ACMmrD2ltnXU27VmyMi2U7CFa22H/hKgx3eZX1in1gb2REdHWhEWYsZX39Rg2f3R6oD++lOmD2130qfFSFj3WBye3FiEMaOC1Gh47dkEKGxn94EUMz0wwxM1Dwq30wuW9gD276lGULuzsHpgppp2dD1wz5uAk9J27oua1q2uEbsPVSMpIQTX6tz09DZi+m1hyPJJT/76O/ve+r3U3oy3d5TgmUdi1QnAyiUxePODErB6Yxhhed4SArgoaitukpqGxgP3/QW4egzYRu1ds4Hig0ByJjB0jO5t9CgiGChH8msxZWKoOuthllkqKi5tUot2Is109Ppn3B7WrTPfnryOOIqE1shidWJPThX+WXBdTYHdXtifHdNWAOw4s1ObRd3xGBDcknpa/ZjwIMAORlr2Gnrp0j+AtD+29nb72SMiWBEOH2bBn19Ogpm99KFFnn61SC3aExKCdfv1iGAkXC5rxpmiekxOCsWpMw5UVDkxpmX62jpWv38WbNGe6oW7aeiWew6lGsBmUzco73cmotVBlsYKPwIWfwGEamm7tetmnz0iIiunGot/EdWBBGY0c/4I/OGdYpw+Z9XtX7c8DvmFDmzccglNTgolkjmPnsaLdP4BKv6PLojGaiKVRZmZasNTD8fgTkp9AyoxPwaOrAP2UyT86BnaiZ7Az32Bivft2tog/y1tzZDxd0ChV8YwYTOtw88Ddz0LjJ2nnfPzV/dHvxMpNGPoZ2EkOOrdGEozps4y83he51P98/0sgfzt7ykCyigoyK+EVJqivktFfBzwxS+By4fpfW605gmiiUhDJfBXIo8V+MwD9ERRsecQXSKyZizGaFsJhxnxKleb4rCw4HPxA+mN0FgDWEO1mVGrHqsFblqYWoe0nunVp+464geHz9y5V+Zv3UWG8CU4oiMJ7PYUyu59JEE1owfV15XpuNhA4TfAwnxgvgxm0S3WR2tmo8kTjIzoL5EamUs/vDnpDVkUiv0g7F/omr1W5Fan4kt7BvJrKe8OYtGtEYP4vg13a7o1wnDeDmKHJBEGIVcSIYkwCAIGcUNGhCTCIAgYxI3/AUiF+DEa70yNAAAAAElFTkSuQmCC;" vertex="1" parent="1">
          <mxGeometry x="560" y="20" width="50" height="50" as="geometry" />
        </mxCell>
        <mxCell id="-GjU_IrM8_pYpkTcPefy-12" value="" style="shape=image;verticalLabelPosition=bottom;labelBackgroundColor=default;verticalAlign=top;aspect=fixed;imageAspect=0;image=data:image/png,iVBORw0KGgoAAAANSUhEUgAAAGMAAABjCAYAAACPO76VAAABW2lDQ1BJQ0MgUHJvZmlsZQAAKJFtkL1Lw1AUxU+1EqhSHBxUHLIIKlVLWil1qwVFcAhV8WNLX9MPTNtHElFncRB0dRYHcRahDg7q5C5o1b/ApYuQRUu8z1Tbqg8u9/cOh/vOu0CHX+Pc8AMolmwzNTcjr66ty9IrJPQjgAiCGrN4QlUXyILv3n6cB/hEvx8Xs8JnsZvq3mGMnccHB6YL+3/9bSeQ0S1G/YNqjHHTBnwjxOqWzQVvE/eZFIr4QHDO42PBaY8vvjxLqSTxHXEvy2sZ4ipxKN2i51q4aGyyRgaRvkcvLS9SD1INIQkFUczS/+MI027+90Yb3jI4dmCigBzysCEjQQqHAZ14HiUwTCBErNA0BVNix79319T0Sxq9S089NbWNGnB1QvFqTW14ku4vwG2Wa6b2s1Gf47eyEcXj7grQdeS6byuANArUH133veK69VOg8xm4dj4BUeRiabESqc8AAABiZVhJZk1NACoAAAAIAAIBEgADAAAAAQABAACHaQAEAAAAAQAAACYAAAAAAAOShgAHAAAAEgAAAFCgAgAEAAAAAQAAAGOgAwAEAAAAAQAAAGMAAAAAQVNDSUkAAABTY3JlZW5zaG90jkdQuwAAAjtpVFh0WE1MOmNvbS5hZG9iZS54bXAAAAAAADx4OnhtcG1ldGEgeG1sbnM6eD0iYWRvYmU6bnM6bWV0YS8iIHg6eG1wdGs9IlhNUCBDb3JlIDYuMC4wIj4KICAgPHJkZjpSREYgeG1sbnM6cmRmPSJodHRwOi8vd3d3LnczLm9yZy8xOTk5LzAyLzIyLXJkZi1zeW50YXgtbnMjIj4KICAgICAgPHJkZjpEZXNjcmlwdGlvbiByZGY6YWJvdXQ9IiIKICAgICAgICAgICAgeG1sbnM6ZXhpZj0iaHR0cDovL25zLmFkb2JlLmNvbS9leGlmLzEuMC8iCiAgICAgICAgICAgIHhtbG5zOnRpZmY9Imh0dHA6Ly9ucy5hZG9iZS5jb20vdGlmZi8xLjAvIj4KICAgICAgICAgPGV4aWY6UGl4ZWxZRGltZW5zaW9uPjk5PC9leGlmOlBpeGVsWURpbWVuc2lvbj4KICAgICAgICAgPGV4aWY6VXNlckNvbW1lbnQ+U2NyZWVuc2hvdDwvZXhpZjpVc2VyQ29tbWVudD4KICAgICAgICAgPGV4aWY6UGl4ZWxYRGltZW5zaW9uPjk5PC9leGlmOlBpeGVsWERpbWVuc2lvbj4KICAgICAgICAgPHRpZmY6T3JpZW50YXRpb24+MTwvdGlmZjpPcmllbnRhdGlvbj4KICAgICAgPC9yZGY6RGVzY3JpcHRpb24+CiAgIDwvcmRmOlJERj4KPC94OnhtcG1ldGE+ClTGNXMAAAkiSURBVHgB7Z0LUFTXGcf/KIg8DA9BbfAJdIqSgGhrNTN2ijGN5RVADU0yjWmS1lhrDfgYNUIapmo0tpMStKQ2NqamJKNDAgyJQngkiAmEptpYBXmkOI2IvN+goD3fIeDKwmVPliNXOGdm2bv3ft+33/3/7vnO3V3mHIuvq2puQjVdKDBOF1moJLgCCoaOLgQFQ8HQkQI6SkX1DAVDRwroKBXVMxQMHSmgo1RUz1AwdKSAjlJRPUNHMCy1cunu7tY6zI+NGzcOFhYWQ9opg6EV0ISxacs2VFfXaEbZuiUKvj73a9poHWxqasLVq9Xw9PTQMhsTxzRhBAUFoLmpmQvR2NSIjIwsuLvPwQK/+X3iTJs6pW/722xkZuWg4PNC7NkV+23cR5WPJozly/z7TrbyypUeGHNmIyw0pG+/uRtXqqrMDTFq/DVhmHKWX1++jMR3jqH8q69wg40xVG6eeOxn6OjsxJ/i4nH/fd545umneKiuri7s/+Or6OjoxNbNkTj85lv48tw5XL/ehZf37ec2z/3qWTg6Opry1qPOxqy7qeqaGkTHvISa2hqsXhmGDevXoaWlBbv3vgIqX4sW/QBZ2R/j08/yuXDvHjuOc/85j4hHV8Ha2hpeXt/jz7S9cMEC/qDtsdrM6hkpqWnovHYN659bixkzpnMNp0xxxfNRW3H2318iYvVKFBUX42+sB5DdBx+exOpV4ZjLIFCjMpjz8Sfo7urGQ8uX8X1j+Y9ZMCouXQLYj7bUE/q36upqjB8/nveWbTuicejQYcyd64VHgoP6m6rX3yhgFgzrCdaY7OKM2BejjQS1s7Pn+1paWtmYcJ1vE6COjg7Y2NgY2asdgFljxuxZM1FXV49mNk7QoGv4sLKyxDVWmg4cTIDL5MnYvm0zauvqcOSto0a637yp/ieCRDELRmDACkxkA+7+P7yKU3mncf5CEZLeT8aGjVEoKyvH34/+A1VXr2L9urW4z9sbASseRu6p0/xzRS+R70ybhsuVlXyQP570HgfYe2ysPZsMg7726N+oJ0Tv3A4nJ0e8fugN7Nq9FyfTM/DAA4vR0NjI76RWhYfBw8Odu9Lg7Tb9Xvz18Jtoau75MPkgG8SdnZwQfyABeac/RU1Nbf+3GTOvLYbr/6bos0J7Rzsm2dsLf1dFZaq1tRX2zHcst2GDMZZFHK5zN649wxVZxRFWQMEQlkyeg4IhT1vhyAqGsGTyHBQMedoKR1YwhCWT56BgyNNWOLKCISyZPAcFQ562wpEVDGHJ5DkoGPK0FY6sYAhLJs9BwZCnrXBkBUNYMnkOCoY8bYUjKxjCkslzUDDkaSscWcEQlkyeg4IhT1vhyAqGsGTyHBQMedoKR1YwhCWT56BgyNNWOLKCISyZPAcFQ562wpEVDGHJ5DkoGPK0FY6sYAhLJs9BwZCnrXBkBUNYMnkOCoY8bYUjKxjCkslzUDDkaSscWcEQlkyeg4IhT1vhyAqGsGTyHBQMedoKR1YwhCWT56BgyNNWOLKCISyZPAcFQ562wpEVDGHJ5DkoGPK0FY6sYAhLJs9BwZCnrXBkBUNYMnkOCoY8bYUjDzlhZHtbK1qbm9DW2gKapOtOzSfYM9m9BezYhGB2k+6Bja2d8MndbQ6aMAhEbXUVur6ZffNOnlwP9JtoYRdCB5vhbbLr1FEPRLNMUY8YCRD9oVMOlMtob5owqDTppekpF1maaMK4U+ODKSd3t+VCE2DSvPAibVhhtLW1ITIyEklJSYPmkJCQgJiYmEGPD3ZADzCusPl3v+/ng5WhwYOliYsXixEaHAgvzzn8ERL4U5SWlAxqb3hAE4ahoSnbGRkZKCgowJEjR3Djxg0jl/r6eiQmJiIzMxNnzpwxOq7nHXQ+tApCN1t2IuEvbwyYant7O9Y88Tg/95QPTiCVTcRP9s/+Yg1ouYqh2rDCSE5ORmBgIBrZBMN5eXlG752WlgZnZ2csWbIEZHs3tYPxr6Eg/zP8mYGYMnXqgKn/64svcOlSBfbs3Qc/vwX8EbtrN0pKLrIZsEsH9DHcOWwwitnSDPSIiIjA0qVLjcSmMpOSksJhEbDs7GwOzTAZvW6fZb34lX0vY8fOaCxmF9JgrY6tI0LNxcW1z8TBoWdhliq2Ms9Qbdhg0JXuzeY79/DwQEhICPLz81FlsIRPYWEhKlnNDQoK4rDs7Oxw4sSJofIb8eNUXqKe/y2/xafe4Tl7BlaHh6Ko6IJRbn4LF2LChAnY/ftYNo14De8lL0a/wO08Pb9rZN9/x7DAoFqZnp4OHx8f3jtoGm1bW1ukpqb2vR/1Cnd3d94bysrK4Ovra9R7+ox1tJF0/BiKLpzHr3+zAR+mZ+K9lDQ0scXAnnz8MVxnqyAYNje36Tj4+iFWzvLh6+2FoBU/QU52FoIfCcW9bm6GpgNua06//d/S4gGd+u+kXhEXF4f582+tUlZbW4uGhgZ+Z0VjSGhoKObNm8chkT+VLRrs4+Pjb/PrH9vw9WzPnhVpDPfJ3t4SFYnCzwuQnXtrDMw7lYtH2bJGBMeHXVQDNepR27ZsxkcZJ/FRTi4rXS4Dmd22T/PrkNssNV4QjICAAGzatKnPqo6tlREWFsYH8oqKCjg4OHDhabWZ3rZx40beOwwh9h7Ty7MjWwGh/201VQJqWhPpJ759FO8kvo2jie+aBILimV2mStg9dGlpKb/yKWBvo7smf39/XqqoXBEYQxBkFx4ejpycHOEPR73vcSeeg0NCUV5ehtjfxfDPENlZmYjesR2LfrgYc1jZPfBaHJ5e8/O+1XMoJ+pJO1/Yjl+uXYcf+y8zOc1hKVMmv5uZhiNRpijl1JRkvMSWMqpky+DRAP3Qwyuwa89euLq64pmnnsSp3E/wz7PneE+h8rzc/0eYOXMWjie9Dytmb2rThPG/inJdfFFIJ2NpZYXps9xNPS8pdg0N9UzwSbC0vFXdaWzoZGsS0t2hue1W1AEiWVtP1A0MymWkm6Ojk1EKBMYQjpGBwA7NMYN+1LFiK46NdKMcKJfR3jR7hi1b3o3WWmph99Uj8Usf/dpHOdjf44CJNrajnQU0YdDZkwhjQQg9kNYsU3pIcCzloGDoiLaCoWDoSAEdpaJ6hoKhIwV0lMr/AfLj78wF95BdAAAAAElFTkSuQmCC;" vertex="1" parent="1">
          <mxGeometry x="560" y="80" width="50" height="50" as="geometry" />
        </mxCell>
        <mxCell id="-GjU_IrM8_pYpkTcPefy-13" value="" style="shape=image;verticalLabelPosition=bottom;labelBackgroundColor=default;verticalAlign=top;aspect=fixed;imageAspect=0;image=data:image/png,iVBORw0KGgoAAAANSUhEUgAAAZAAAABpCAYAAAAUVXWpAAABW2lDQ1BJQ0MgUHJvZmlsZQAAKJFtkL1Lw1AUxU+1EqhSHBxUHLIIKlVLWil1qwVFcAhV8WNLX9MPTNtHElFncRB0dRYHcRahDg7q5C5o1b/ApYuQRUu8z1Tbqg8u9/cOh/vOu0CHX+Pc8AMolmwzNTcjr66ty9IrJPQjgAiCGrN4QlUXyILv3n6cB/hEvx8Xs8JnsZvq3mGMnccHB6YL+3/9bSeQ0S1G/YNqjHHTBnwjxOqWzQVvE/eZFIr4QHDO42PBaY8vvjxLqSTxHXEvy2sZ4ipxKN2i51q4aGyyRgaRvkcvLS9SD1INIQkFUczS/+MI027+90Yb3jI4dmCigBzysCEjQQqHAZ14HiUwTCBErNA0BVNix79319T0Sxq9S089NbWNGnB1QvFqTW14ku4vwG2Wa6b2s1Gf47eyEcXj7grQdeS6byuANArUH133veK69VOg8xm4dj4BUeRiabESqc8AAABiZVhJZk1NACoAAAAIAAIBEgADAAAAAQABAACHaQAEAAAAAQAAACYAAAAAAAOShgAHAAAAEgAAAFCgAgAEAAAAAQAAAZCgAwAEAAAAAQAAAGkAAAAAQVNDSUkAAABTY3JlZW5zaG90WxzZ0wAAAj1pVFh0WE1MOmNvbS5hZG9iZS54bXAAAAAAADx4OnhtcG1ldGEgeG1sbnM6eD0iYWRvYmU6bnM6bWV0YS8iIHg6eG1wdGs9IlhNUCBDb3JlIDYuMC4wIj4KICAgPHJkZjpSREYgeG1sbnM6cmRmPSJodHRwOi8vd3d3LnczLm9yZy8xOTk5LzAyLzIyLXJkZi1zeW50YXgtbnMjIj4KICAgICAgPHJkZjpEZXNjcmlwdGlvbiByZGY6YWJvdXQ9IiIKICAgICAgICAgICAgeG1sbnM6ZXhpZj0iaHR0cDovL25zLmFkb2JlLmNvbS9leGlmLzEuMC8iCiAgICAgICAgICAgIHhtbG5zOnRpZmY9Imh0dHA6Ly9ucy5hZG9iZS5jb20vdGlmZi8xLjAvIj4KICAgICAgICAgPGV4aWY6UGl4ZWxZRGltZW5zaW9uPjEwNTwvZXhpZjpQaXhlbFlEaW1lbnNpb24+CiAgICAgICAgIDxleGlmOlVzZXJDb21tZW50PlNjcmVlbnNob3Q8L2V4aWY6VXNlckNvbW1lbnQ+CiAgICAgICAgIDxleGlmOlBpeGVsWERpbWVuc2lvbj40MDA8L2V4aWY6UGl4ZWxYRGltZW5zaW9uPgogICAgICAgICA8dGlmZjpPcmllbnRhdGlvbj4xPC90aWZmOk9yaWVudGF0aW9uPgogICAgICA8L3JkZjpEZXNjcmlwdGlvbj4KICAgPC9yZGY6UkRGPgo8L3g6eG1wbWV0YT4KlHEefwAAHeBJREFUeAHtXQeYVcXZ/pbee68iARFYkN4UVkFEo7GR2EuMsaeY/NYgKvZEY/5gj1Fjfx4rsQQV468giPQiKChIZ+m9l/97Z3fOzp295+7u3Xsve+++n8965kyfd+bON1+ZQ1Z2dvZhIREBIkAEiAARKCECFUqYn9mJABEgAkSACBgEyEC4EIgAESACRCAuBMhA4oKNhYgAESACRIAMhGuACBABIkAE4kKADCQu2FiICBABIkAEyEC4BogAESACRCAuBMhA4oKNhYgAESACRIAMhGuACBABIkAE4kKADCQu2FiICBABIkAEyEC4BogAESACRCAuBMhA4oKNhYgAESACRIAMhGuACBABIkAE4kKADCQu2FiICBABIkAEyEC4BogAESACRCAuBCrFVYqFikSgTp06cuutt0bke/nll2XBggURcfalXbt28utf/9q+mueDDz4o27Zti4hLl5f69evLsGHDpFevXtKpUyepW7eu7NixQxYtWiSTJk2Sd955J+pQ/vSnP0nNmjVN2qxZs+SNN96Imi/dIxs2bCh//OMfg2EAj2nTpgXvZTmAuRwxYoT07NnTzG2NGjVkxYoVsnDhQnn77bflhx9+OGLdr1ChglSsWFH2799/xPpQnhrO4r8Hkrzp/uyzzwQbhaWNGzfKiSeeaF8jnu+99560bds2iFu/fr0MHTo0eE+nAPr98MMPmx9yWL+3bNki1113ncyfPz8iy5w5cyQrK8vELVmyRM4666yI9Ex56dGjh/zrX/8KhoPDxZ///OfgvawGzj33XBk1alTMuf3www/ljjvuSPkmfvLJJ8uYMWPkySeflBdffLGsQphR/aIKK4nTecMNN0TUDmbyq1/9KiIOL6eddloE80Dcb37zGzzSjs477zx59NFHY24wGFS9evXk+eefF0hqpPRA4LnnnpM777yzyLnFev7Pf/4jkAZSQY0bN5Z3331XHnnkkUB6TUW7bEMkNTNcTpH+5ptv5KOPPooYPZhK7dq1gziI26NHjw7eERg/fnyoqisiYxl8ueyyyyJ6dfDgQfnuu++M2mrr1q0RaVWrVhWo6coj7dq1S/bt2xf8bd68uUzDcMEFF0jv3r0j+rh3714zt2vXro2Ix0uTJk0MsymUkISIgQMHytFHH52EmlllUQjQBlIUQqVMv/3222Xw4MFSvXp1UxMYxkMPPWTUN4i45ZZbBDpkS7t37xbYAdKRMMZWrVoFXYeaCmN36f7775fTTz89iFIVahAuTwEwVX9DLqvjB6N37TXo58SJE+W3v/2t4IAAgs3rpZdekjZt2ph3/A/zfPfdd8uhQ4eCOAYyCwEykCTPJ4x5YCJQ61g6/vjjpUuXLoKTG1Q+LsHw7hsAL7nkErn44ovNqc4aCNetWyeff/650Zv7P1AY488//3xT7eHDhwV6a/f0f/nllwvqtIS8sLmAkf373/8ObBD33XefQKLo3r27oB5semBuYUZSqBJcqly5suDPHQ8YCGwkUG8cOHBAcIqNRR07dhT0A04GVapUkZ07d8qMGTPMhhZWtqR4XX/99XLOOeeYbuTm5ho147333it9+vQxqja0gzHfeOONsmbNmqC7GMPHH38c4AUbBuKgpmzfvr0Jb9iwQd58802jlw8KagDjefbZZ4Oop556KnAYQP8xRyA4UWD+brvtNmM/A8aYC8wX1hTsDT5hw//LX/5iHBgg7ULSQf9hl/jFL34R2OEQd9VVV/nFC73/7ne/M9jbBLQNzFyCBAWbFmx5sGGhj4hr0aKFrFy50mQFNr/85S/lwgsvlAYNGgSqMDAh4PTEE09EOFcUZz2iHWDpEvqGdQvpPx3sSm7f0y1MI3qKZgynM2zElrBRrV69WmBMtTRz5sxg47BxY8eOlSFDhtjXQk+c8q+88krj3WQTYcAePny4fTVhV83gSwFnnnmmLF261HhK4WRpCT9sMCyXUK9bl5uG8OzZsyN039i8Pv30U+OdAy8jn9n55V0jOhhPpUqVgg3azYtx5+TkFKovHrzcMhgzNm2cqH1C37GZgnGDsCFivJaWLVtWyJZl06DOvOiii4L+xjKi33XXXQFDwwaJuQlT0WDTBfOxBAkQnmvWk83G44n+Q8K1adEkRDe/Db/22mvmwGPfcciJxriQDkM21HNfffVVIJ3YcrB5wSsvFsGxALYMELy9ilqP27dvj1AJu3VH+z256QyXHgHaQEqPYbFqgO3Divso0LRp0wjmgTRsTi6BEcRiHsgLYzQ8TnDSTzT5zANMLxbzQPtffvllRDcgNZx66qnyj3/8Q/CDxmkcp9Di9Bd5rEeWz3gwbkhlLiUCL4w5GvNAO2AYsbzLXC86t18IQ+L03bT9PNHeMX7LPMBMfMLhwaW//e1vAYOw8VYCRP8t87BpxXk2a9YsIps/x27iJ598YtaAu9aRjjXgMw/0y5/XSy+9NHRtRFuPfnm3LwwnHwEykORjbFqACslVY/nNYmNy1UzQH7tSBH4oUEvAYHjNNdcYVY6tA6I+pIpkEFyPn3nmGeNu+8ILLxTZxO9//3ujXomWERsYVFJQBUEawV2CogiuvFD5HXfccUaKcfPjnomlROKFjRrGfbQ5cuRIc6K27UA9hDGGEe5DQEWHzdK/wwJ1kb8JhtXjx0N1CKkFbs3upgkGbRke2gS+lrCJQ52GeGCN03o8BGZtCdi469TGF/U8++yzI7JgDaNfuEuyatWqIM1lmEGkE/DXI8b36quvOjlExo0bZ8YN1TEpuQiQgSQX34jaISlYfbCbsHz5cnnllVfcKHNKdyNgeIcaDJfxJk+ebFQc7ok0R9U5ySDokh977DGjt/b7GK09nCqhxoDLp38KdfODmUA/DX14GGF8kDLsZcp77rknIitUHJYg1bhUGrygnsGmhI0aFx9hLHYJDC0aIT+8lWAjAA7oL+bWEiQqd4O38UU933//fWNbQP1gqJh/l5o3b25e/TtGWG/2ciLUpb5buVtHrLDL9Nw1F6uMnwbm2b9/f+OeDknbjgE2GteuhHLu3Sm/Hn89Yn5wgdGlxYsXm3FjzKTkIkAGklx8C9V+7bXXFoqD8dEn15sJGwf00C7hRwfduCWcjF1vLhsf7WnVQtHS3DgY6t0N0E2LFUZ/oUrBCRObxRdffBF6ar355psjbCZuvdClg2FaAkNC3ZZgH7GUSLxef/11W615fv3118YQbSPhohqNYAOxzM6m4z6ES1BllZRgQ3LJ3xhr1aplkmG4dwkOES7hZr9VZ7nxRYVhx7IExu8yFBtfnCfmExdHO3fuLLg4CTsJbBy+N1qYejPe9VicvjFPfAiQgcSHW9ylsMm4P2L8OKNt0lBNWILhMxr5J7djjz02WjZjiHYTwn6gbh6EcZIuKWGDwYkY6h9s9riNj5PvCSecYOw52NTcUyzyu44EbnubNm1yX03YLesmJhKvaHYebH6Wwhg1PMR88jf7WHYSv6x9h9rGpTDvM99WgQ3XJ5cZ+Glh7/4dlVhjgMrvpptuMt5Xfn1QwWI9XH311dKtW7fQA497SHDriGc9uuUZTjwCZCCJxzQhNcLF1VLYhm913zYf1BvRyN1ckW7vpETL68aFMS43jxt+6623jFcS3CehPnHvBCAfNiJ8BgOuni6dcsop7msQdhltEBkSSCReViXkNuVitmfPHjcpCLsXRG2kaz9AnM9QbL5YT38ewjZYf6N3pTJbvzsOG1fUE3Ydl2K5/uK+CNyQcRkWkmeHDh1M0QceeEDcecZBAOsVqkJfSnPn0m3Xx8FNY/jIIEAGcmRwL7JVuFhaAgPAid4lqKzsjxPxUO/YDcQ/Zfo65ZYtW7pVhYbDTrphBfz7Ibi7EI2sysWmhW0YNr04z9Lg5dd/xhlnRETh7gXwtoQ7C9EIG3a1atUikvr16xfx7uvrIxJDXsKkLj87pFuX4DbsEhwNIPGVlPCZEJdgkIcXoU+wQ7leXvhMzY8//miyufYZMMCcnBzjEABnBV9SCmOQxV2P8arY/PHwvWgESr6aiq6TORKAgP8JlMcff9yohlA1JJJ//vOfEe6O3377bdCqv0m5lxVPOumkwC00KBASiGUEj1bElywGDRpkdN24Z4I+Y0PBZTb0waWpU6e6r3GFS4OX3yAu7nXt2tVEY8P9+9//HpEFdzqiETYu5LWbNFRzAwYMCLKCEbjzFCQkKAAXaZfACCENgKnh+1S4FR4PQe3oqlkxPkgYYFA4nIDBYl597zRIIJAigYur9oOqzx52kIb14ZIvMdu0sPXoS6qNGjUyRcIkd1sfn6VHoMAKWfq6WEMCEXj66acFro9WLYInfrRwocRGbDcpNIkTm+th415uQzrcge3H7aKpZ5AnEQSDqH+ZDrpu/PkeVLY9SA72Yp6Ni+dZGrz89oAtPM6gc4enlyt9AGuoY8IInkZgiBiXf0qHd1eY+iusvpLEg7Fho7eqQzhLwB6Bv9ISPNFcSQQbPz7Dg79oBCkYXxAAYePHu2UMWMtwtYW3FDzaXOaC/JYBIFwc8t2K4bmHQxMkYvfwVJy6mKdkCFACKRleKcsNn32cGl3VDDYE6NRd5oFTLb6Q6hpasZH4agGorSzzKK4qIJ7B4sdb3PpxCk3UD7w0eEUbJ7CGt5XLPJAPjMrfsPzyKOMzDxjh8anxZBPcXN0147aHPoSph9x80cKwV8D4XZy5RRuQfHDx1NIHH3xgg+aJz4/gYOMzDyTC4aIkNH369AjHDMwdmFVJGVFJ2mTePATIQI7wSoil38ZGBSaCE63rBWS7jNMmbvjiNOcSfsC4cOZe0EI6ToJQ9cB11qUw1UA8mw36jFMlDOph9cIYCvUGVFm+J5mLR7Tybp/cvBhPvHi5WCCM290+k4CaBJ/wwL81EUbYyDBun/CPiGGsrhHYHQfyu2Nxw34a3v2y7jsOElgzkAbtGLB20DcYsV0G4Kt+UHcsmjJlivk4Jp6+nQ3l0G/MKy5S+mpUqM9wS90nMH7YTmxfkQ7VZzRyx+mmY0xQHfq4heV3yzJcOgT4LazS4ZfS0lCn4McFxoFNqTg/EOi/caIDMwn71xCTOQjoyOH3DxdT6P/Rh2iMIRl9KC5e7rew0A98PgbSEfqMOwrz5s0zqjm/j5AEXXUhNukrrrjC6Pz79u1rbA+4MOdu2n4diXyHhImTP+4HQT30/fffR9yjQVvut8qwjmBYj5eAL8YJdRbmFZdki1qTcKDAF5hRFgcjawuJtw9uOax13D3CExco/Ts5bl6GE4MAbSCJwTElteCUFvYRu7AOQOce7eQXlj/R8TgRux/ES3T9seqLBy+3PtwHwS3wkhIYJE7pqSYwPP/7YPZDmWB2uMTqqj/BYEpDwLekawsXQ5OFDdZ6rO90lWasLBsdATKQ6LgwlgikHQL4kjHUOLABWIJ6ExIQbAJuPNLxjTMSESgNArSBlAY9liUCZQgBqI+ieYjBqO8zjwkTJhwRlWYZgotdSQAClEASACKrSG8E8A9lwU5jqSQ2C/fzGsm842H7VtQT3/GCJIIvHsMe4N6FwLhwCRL/fojveFFUvUwnAtEQoBE9GiqMIwIZhABcZWEfKMrAnUFD5lBShAAlkBQBzWaIwJFCIJoL+JHqC9vNLARoA8ms+eRoiAARIAIpQ4AMJGVQsyEiQASIQGYhQAaSWfPJ0RABIkAEUoYAGUjKoGZDRIAIEIHMQoAMJLPmk6MhAkSACKQMATKQlEHNhogAESACmYUAGUhmzSdHQwSIABFIGQJkICmDmg0RASJABDILATKQzJpPjoYIEAEikDIEyEBSBjUbIgJEgAhkFgJkIJk1nxwNESACRCBlCJCBpAxqNkQEiAARyCwEyEAyaz45GiJABIhAyhAgA0kZ1GyICBABIpBZCJCBZNZ8cjREgAgQgZQhQAaSMqjZEBEgAkQgsxAgA8ms+eRoiAARIAIpQ4AMJGVQsyEiQASIQGYhQAaSWfPJ0RABIkAEUoYA/030lEGd+IbWde4muX0GiLRpL1KZU5l4hFljUhDYf0Bk+Q/SdNoUabJgblKaYKWpQSArOzv7cGqaYiuJRGDesNNEBg9LZJWsiwikHoEvJkj2hA9T3y5bTAgCVGElBMbUVgLJg8wjtZiztSQhoIcgs56TVD2rTS4CZCDJxTcptRu1VVJqZqVEIPUIcD2nHvNEtUgGkigkU1kPbB4kIpApCHA9p+1MkoGk49TRYJ6Os8Y+hyHA9RyGTJmPJwMp81PEDhIBIkAEyiYCZCBlc17YKyJABIhAmUeADKTMTxE7SASIABEomwiQgZTNeWGviAARIAJlHgEykDI/RewgESACRKBsIkAGUjbnhb0iAkSACJR5BMhAyvwUsYNEgAgQgbKJAL/AVzbn5cj0qkIFua5DW7m4eRNpXa2KTN+2Q85e8L3Ilu2R/alXW/63XWs5tXED2XXooLydu0HGLF4msmdfXr5qVWV8n64y6vvlMn3N+oiyY3t2lslbtslrS1bK+4N6SqUKWRHp9uW+JStk4qp18nK/7vKCPiesXCODWjSRUe213WnzCtpCAe33+EE95Oz5i2X35m1yc+f2UlnrvW++9t2hXs0ayeijW8uZk2eZWNTdqErhn8CIqfqBv337nZL5wbq15P2uHaV77Zqy+cABHfdGuWveoiCf29cgUgNXKKZda9aQP8xeWBBdFIaac+6wAdK6alWZum274IN107Zul9GKm+zYZeoZ1bWD3N2+rXyyabN5X7p7j/x12RpZvH6TeZf8eRgxS9vVMv+juGTXqiGXfa34OdS6YX15qlM7+SlwOZz/abwqleV27ffPmzaWenpPY4auhZELFots3eGUZLC8I0AJpLyvAGf8M3P6yuPHtpcWyjwW7twlwxvVl0M5/WRYq+ZBrkYN6pm4a9s0l03790ulrCy5SzexrScPEtFNx5CWP0U3pUl99Jtd3iWxS5Q5XdCsicnWpnpVaaWbHP6Qv3+d2sF7q6pVTJ6f66Y/sllDEx7esJ6M0Hxzj+9l3oP/KbNA+bPq1zFRFyujubxlsyDZBoY2qCs/a5JXF+JQ94B6dQrazO+LzR/x1A3/YE5/OVH7MGf7Ttl36LDc2b6NTFZ8LLl9tXF4nq/tXKZ9slQsDDVzdq2aZvNuoViAAd1xdBs5OHSgNNU5AJ3fvLGA/yK9XfXqcrXO0yJlytcd086kS/489FaGB7pIcb+0RVO5v3unvPT8/w+pV0tO08OAqQxxlSrKxmED5d4OR0m1ilmSu2+fnNGkgRw6sb/ktGwaUZYv5RuBwsev8o1HuR39fd2OkR51asnV3yyWZyBNgCpWlLXDB8kb3Y+R+ioBiDKLlbp5bz94UOqOnyiCz3IrVdeNe+eQvjJ/SB/p+slkE4f/VdXdbfKgXjLw/6YGcW6g24Qpweuhs4bJYytWy6i5BSf6INELYGO9sVN7efTbH7yUkr++phLSNdPnF1nwxY5HmTw1P/hcRMcPuiu7o2EihnFGk1hMLu9/JcBwn0oDz6/KLeifMopDpw6Wd3SugOn+g4flx917JcBRJbEVOl8PKwN54rulXsMFr7e1ayX3LF9tpLWC2ILQ1BN6S309DLSdOENWbMyTbrAWtp82RN5S5tNQ+0QiAkCAEgjXgUHg580am80oYB6I1Y2yl6o7Xs9VNZRuIEfrKR9M4fSZ3wTMA9mgNhq7bLV01lOy6InY0puq2hqgJ/dLf9LGRpX6CQXLfzdtlUdU5SL5J+tSV1qMCipmVQD/FKlRLcgN9VXWuxOiq7uCXJGBkmIYUXrvPpm/Y6fiXD0iOng5dEheUoZYXRmJL/nZPMv27JWtyvhXDuhhDgQ23n32VknwhdW5BcwDiboW2n05U54F89C1QCICQIAMhOvAINBW1UnQc/u0Sk+g105XhqEbyAXNVM2hNHHtBj+bvLNuo+EdLRvUD9LGqB1jmurMn+/SUcWUkE0vyF38wNDJM2W3bparoMpyGFbxayjIeaqq6V7q1y34e/i4YwsSndBF3y0x5oFDQwfIbLVNjOkWfUynqyroFbWtuH+9atcKaiophkFBBJQxdFImvWjXnoho9+Wcpg1lr6rXrHTopiG8X6WaLl/NkQYqYbzSV1WMPqmdB2qxcevy7ShO+oZNW+SWOd8GEpiTxGA5RYAqrHI68f6wK+vxOldPuLEItgpjYj14qFC2+apKAR1bvZqs2lHAiPp+OUP2jBgsiwf3kg4fTSpULq6IAwdl8NdzZXr/4+TxHl3k+rm6qcVJjXUjzalfNyi9Zm8U4zlS1ZGg4qeT5Tk1RJ/ZqIGxR8Am8aqe+C+aOico30BtPoPzbTE2spbG7chX9xUbQy1cRefk6lbN5Chl7o0qV5YeyoggBV21MM85oLLaJ5A2/oReKhlWlH66+UP6GPPDctt01CcOBY/+uEpuPKqljFU7ikuDIEUqzduxO4jOVdUVcLLU/IvpkqvMhEQEyEC4BgwCG1WH30s3oFg0fsMWuQYGdaiO1JDs0nmN8ySPCetUOnHUPPBmOn3mAvmkdxe5W20GiaIZKgU9r2qW69SY/9KadRHVgr1h8/WpRhTVy4ur1xXYGPwC/rt6Ml1hPZgUg9kquVyoG/CtqtqztoJo9X2sG7yVQoqNodM2jOSgV9euk/9ZvLzQ5m3TP9u4RZ5YsVY+UPtGUQSPsHPVuP/fPtlyk2Mv+TKfMQxWw/qSDXlSyM9mLTAMbESjenJDmxaSm28DKqoNpmc+AlRhZf4cF2uE83Rz7KlGdFEJwiW4xK5Vwy303uPW5rnkvqHuoxGkm/XNapiFWima+ytccMepimu0ei3V9byyIuop4csV0+bLemVQU1Rl5NJ0dXdtpe6vUPm4NFw3euj/4yGouWA0D0gZ6E9n5Uk+ferkndqDtBiBkmAII/rTK9caIzkM5Zeoe7F78neN6Ej/qdooisM8bPfaTpohVdW285h63gWkrti7dB7vVM86S1NVykK9TatUyZNA1a2YRASAQOQvjJiUWwRO0lMmaN2J/eRMVW2I3he4vctP5MGO7WQJ1FM4dermglP/yKaN5MW+2dJSN2TczZiuZdqoeusy506ED+RZqnffluiTq26wTdQe4tNDP642evzv1BW1i9oERCWrx3t2MQb9ces3RmQ/RlU2GIP75zMeFMjS/8AAb1VMRI3YcKX9rFcXU9fbeuovNpUCw2K3UdyMemi4fmFhT7br9e4PVGNT1EUZcyzqCPGkSpBwU8bdlzwuUtxGmC+TEaAKK5NntyRj0xP1QLUrfNSjs7zrGJI/U4+nk/RkawkqnDoDKsl5ep/jEr1TANqhNpGbFi2VN5autNkKP/VU23XybFmu6pyEktom7vh+mdzzk4ITMy7SnaMqmtfV5XQ+vI2UYLt5Tw3D/iW6HLVXTPKMyVkTJgeX9Uxh/d/F0+dJC3VJfqDDUeYP8ZAQTpmhDgZqk4lFfmrcGMZqJM60p3TermzVVHpB+synF/QCKNR9Y9VVeqUzX++qFDnSsffY/HyWXwSysrOzjV20/EKQfiOfN+avye206txb612LFZu3ikAtFUZ6MjXePjsLDK5hWY9YvEpSjVT1smGzGn0TsdJVLdZGLyQuh8OBZweKa4xlHUOV3lpXqlz0Wohr8AWFskf/oeCFobRBgBJI2kxVCjuqm+OKIjyyTG/09F/mSdU0GyTv0x8J6asy1OUb8i/XJaLCso6humGvSMQ4WUdGIkAbSEZOKwdFBIgAEUg+AmQgyceYLRABIkAEMhIBMpCMnFYOiggQASKQfATIQJKPMVsgAkSACGQkAmQgGTmtHBQRIAJEIPkIkIEkH2O2QASIABHISATIQNJxWuP8HEc6DpV9LgcIcD2n7SSTgaTj1C0v/PmJdBwG+0wEDAJcz2m7EMhA0nDqmk4r+Jf80rD77DIRiECA6zkCjrR6IQNJq+nK62yTBXNFvtB/CY9EBNIdAV3HZj2n+zjKaf/5Law0nvh1nbtJbp8BIm30c9wJ/Ex6GkPCrqcDArB5qNoKkgeZRzpMWHgfyUDCsWEKESACRIAIxECAKqwY4DCJCBABIkAEwhEgAwnHhilEgAgQASIQAwEykBjgMIkIEAEiQATCESADCceGKUSACBABIhADATKQGOAwiQgQASJABMIRIAMJx4YpRIAIEAEiEAMBMpAY4DCJCBABIkAEwhEgAwnHhilEgAgQASIQAwEykBjgMIkIEAEiQATCEfh/F65hXpRxLlIAAAAASUVORK5CYII=;clipPath=inset(0% 2% 0% 0.67%);" vertex="1" parent="1">
          <mxGeometry x="271" y="170" width="284.6" height="77" as="geometry" />
        </mxCell>
        <mxCell id="-GjU_IrM8_pYpkTcPefy-14" value="" style="endArrow=none;html=1;rounded=0;strokeColor=#CCCCCC;" edge="1" parent="1">
          <mxGeometry width="50" height="50" relative="1" as="geometry">
            <mxPoint x="270" y="150" as="sourcePoint" />
            <mxPoint x="610" y="150" as="targetPoint" />
          </mxGeometry>
        </mxCell>
        <mxCell id="-GjU_IrM8_pYpkTcPefy-15" value="" style="shape=image;verticalLabelPosition=bottom;labelBackgroundColor=default;verticalAlign=top;aspect=fixed;imageAspect=0;image=data:image/png,iVBORw0KGgoAAAANSUhEUgAAAGQAAABiCAYAAACmu3ZJAAABW2lDQ1BJQ0MgUHJvZmlsZQAAKJFtkL1Lw1AUxU+1EqhSHBxUHLIIKlVLWil1qwVFcAhV8WNLX9MPTNtHElFncRB0dRYHcRahDg7q5C5o1b/ApYuQRUu8z1Tbqg8u9/cOh/vOu0CHX+Pc8AMolmwzNTcjr66ty9IrJPQjgAiCGrN4QlUXyILv3n6cB/hEvx8Xs8JnsZvq3mGMnccHB6YL+3/9bSeQ0S1G/YNqjHHTBnwjxOqWzQVvE/eZFIr4QHDO42PBaY8vvjxLqSTxHXEvy2sZ4ipxKN2i51q4aGyyRgaRvkcvLS9SD1INIQkFUczS/+MI027+90Yb3jI4dmCigBzysCEjQQqHAZ14HiUwTCBErNA0BVNix79319T0Sxq9S089NbWNGnB1QvFqTW14ku4vwG2Wa6b2s1Gf47eyEcXj7grQdeS6byuANArUH133veK69VOg8xm4dj4BUeRiabESqc8AAABiZVhJZk1NACoAAAAIAAIBEgADAAAAAQABAACHaQAEAAAAAQAAACYAAAAAAAOShgAHAAAAEgAAAFCgAgAEAAAAAQAAAGSgAwAEAAAAAQAAAGIAAAAAQVNDSUkAAABTY3JlZW5zaG90Fn3X1AAAAjxpVFh0WE1MOmNvbS5hZG9iZS54bXAAAAAAADx4OnhtcG1ldGEgeG1sbnM6eD0iYWRvYmU6bnM6bWV0YS8iIHg6eG1wdGs9IlhNUCBDb3JlIDYuMC4wIj4KICAgPHJkZjpSREYgeG1sbnM6cmRmPSJodHRwOi8vd3d3LnczLm9yZy8xOTk5LzAyLzIyLXJkZi1zeW50YXgtbnMjIj4KICAgICAgPHJkZjpEZXNjcmlwdGlvbiByZGY6YWJvdXQ9IiIKICAgICAgICAgICAgeG1sbnM6ZXhpZj0iaHR0cDovL25zLmFkb2JlLmNvbS9leGlmLzEuMC8iCiAgICAgICAgICAgIHhtbG5zOnRpZmY9Imh0dHA6Ly9ucy5hZG9iZS5jb20vdGlmZi8xLjAvIj4KICAgICAgICAgPGV4aWY6UGl4ZWxZRGltZW5zaW9uPjk4PC9leGlmOlBpeGVsWURpbWVuc2lvbj4KICAgICAgICAgPGV4aWY6VXNlckNvbW1lbnQ+U2NyZWVuc2hvdDwvZXhpZjpVc2VyQ29tbWVudD4KICAgICAgICAgPGV4aWY6UGl4ZWxYRGltZW5zaW9uPjEwMDwvZXhpZjpQaXhlbFhEaW1lbnNpb24+CiAgICAgICAgIDx0aWZmOk9yaWVudGF0aW9uPjE8L3RpZmY6T3JpZW50YXRpb24+CiAgICAgIDwvcmRmOkRlc2NyaXB0aW9uPgogICA8L3JkZjpSREY+CjwveDp4bXBtZXRhPgp5jr7qAAAI6ElEQVR4Ae1dC3CU1RX+/n93kw0JIW95NCWsQQF5hRQogiWoiBYlIq2jnUKrVJxRplQdUdEaELVU8IXYWtQRRAdhRsBHpwMUqNaiBBJCsAlgCBgoEZOQQB4k2VfPvWs2uwnZf5MN5JDcM/Ozd//7+u757jnn3g1zr4bN291QwkYDOhskCojUgCKE2URQhChCmGmAGRxlIYoQZhpgBkdZiCKEmQaYwVEWoghhpgFmcMxGeOLDLEZFcNbugMOtfoExVFQQBQISEq7rKP/5ZMNm5uUV4s3j/zMs11aBQb0iYIuMwI6yM20V6THvAxJip1n/yXdlSI6wSoVc0zsKFl1DjcOJoto6r5LqnS5vuiOJ54ZdiVn9kxD+8c6OVO9WdQIS4iJCZnx1wDvgzH6J2DJ+FPZVncOUL3K870NNDI7qFWoT3aZ+QEKCHeWUhFg8efUgCMWKUFJcdx6LC4sxqk8UHrQlo6imDjOzD8DuciMpPAyf/HQ0epl03Le/AA+lDsSIaGF5Ov4xIU12mXXoKLIrzwXbfbcqF/Ky9+akeOyclI6J8THIIcvZUvo9xsZEY9vENOw+UyWD/fS+CXh+WCpMmob1PxmOcbHR+Fd5JU432OEkBsV7jdRaabfLRxDXUyVkC1k81CZ1JyxiVfEJmS6srsUbo4diZr8kzNpzAHszxuMRsoSfxcdKMr6oqMLDXx+RFvOrfV9jBrlCF5Ei0j1dQiZkZHRvqcNl16RCPL6SQqunw+Su5pJr2jh2hCSjzunEL7PzJRm+ZVXao4GQCalxOBBhCpNBXuxHfOW7hkb59SqfoG3VTbi6dySa8nzLqzQQcgzJPVst9SgC+35Kiyf/XA2sFLQrG+2YRLFlyRCbXCqvKPoWtGrGe+nDEddiwyniiNj39HQJ2UKyKHZMTYzH06T064iUo7Q/uT4hTm70/nTkOH6d3FcG7fn5h7C2pFSuqKbRQuDttGGYSfFFyBFya2l9emP7xDFI6WXFb3MLsLOHbhLbNSUrG/1dklDmnsqzuPnLXBRQIM8gQn43cIBc2q4pOYUos0luKt87USrJEOXnkrLLyXJup0AurErIim++RRm5t2vj+sBKVmIma+mponXmfwMSBESZTCgjhYvlbHtEkBBJ9c9RHGpfzfb0wr9syC7Ld4jiJxXxdETEj5MtFwUdaedyr9Mul3W5D/ZywK8IYcaSIkQRwkwDzOAoC1GEMNMAMzjKQhQhzDTADI6yEEUIMw0wg6MsRBHCTAPM4CgLUYQw0wAzOMpCFCHMNMAMjrIQRQgzDTCDoyxEEcJMA8zgKAtRhDDTADM4ykIUIcw0wAyOshBFCDMNMIOjLEQRwkwDzOAoC1GEMNMAMzjKQhQhzDTADI6yEEUIMw0wg6MsRBHCTAPM4CgLUYQw0wAzOMpCFCHMNMAMjrIQRQgzDTCDoyxEEcJMA8zgKAtRhDDTADM4ykKYERLUeVnTcvMwe+dnSC8qRsrp7y/pEI5fkYScVBvWXT8ZW8eMvqR9d0VnhoQIMrLe34i04mNdgU9OADEJbKWnZf/dnRRDlyUso6vI8J0BAoPA0t3FkBDhprgIJywXSyeGhFzqmBFooCyw1NQADQ2BYLbOa8eBoIaEtG4d0FIHwdp4qvmpPo6w7G0wP/IAQKeSCpFlGk7B/If7/ZrQbANhrS2Bnj5Kvresfsm/nT1boU+f6leHxZeDecD8e4HZM4G7bwOeWQRUVRpDe2UZcMdNQC0RGYR0iBCIc3UtFjjXboB9zoOwP/EsUN8A84olCPvwHU+3ogydXm1+IQv6hLFeKFqfaIDOhJdt0FvtikS4yypgv2seHK+uhta/L8I2r4U22Oat0+WJKrr5Z1kW0G8A8OJfgMeX0OnPhcBbrweGtu3vwGc7PGWCPPu2Y4T8AMO1Lw/ODzbDueotNE6dBdd/sqFn3gJ99PBmoEScZcOb0OLjmt+1TFXXwLnpUzieeh6OZSsl2fqYkS1Ldd33nL0AXaWBBY8BtsHAuAlABlnxfw+2jenYUSKMyJsxq+0yF8gJiRC/9uhkascishQSfWqG/BT/uLbugpY8AJZ1BC6IE6vdufmeurEx3ja6PDEpA3h9DRAV1QzFSad8W9rYNdTRdVDLnwGuo3qTb2yuE0Sq8wihzoSFgE611q660tu1488r4Vy/CfotN8D8+O+97/0SdOuONnyoJFK4PdCVFq7d1BYXCQ8HEpOa0ZTRnuhzckWTb2h+55tatYJiKZE1r43x+pZtkW6D4halgv0qbjyg48JBV1h4hVYY9rkLoA8ZDPPSJ+A4X+/NakpoKT9GeN4ugK5Kch36BvZf3At3fkFTNq/Ps1XA0ieBFJp0d85uje3TzUAOTablqwBBZDulUwkxL6AVFR2m7/r3V/4wiITG2+cgbN8/YX75Wf88+uY+XISGIeSXuUtFGZBFcSSG3OlTz8lY5we5hq7uWLMaiI8HNn3gyaqmd0LeeAVIHwdMoRVXAAmJED1tBC3pbgXiYqS7Md2ZKWOGcFFi2esr7pKTNPPvQdiuLZI037zLIn26FHj6UaBvf2DR0gvP/kiKMffNpwWA5yIbOa6KciCXLMaW6qlrMNiOEfKD2zHd/xuIR8QNd8FhGdQdy2kpKDZCF3BNrs+/hP2BhbD8dbkBLGbZJ0vIMhbS0v68J0jv3e0BSLcFYfy1wEcfAofJxS78IzBtuj/44iJgy0bgJpq4vosC/1Leb4aEOGijZ6Yg6yvuk6dQryX6vmqVbquM829rIZ4macy8gB9uymzxKbB0iWxYB5yp8HT9WovJ9Nrbnj3Jwf1yYiLCUKUBh2B4f0j53fcgsr51IA7Y6kXKrLVakbD+nYvUegjNigkr3JSVNrwhiuGy9+PxY0PsovOqc8LiNyphuZ1AhmjTkJB36Q9Dhck/8uu/K74IDAJLdxcT7pqzONAgxV/sTiQmwESBOoJ247G1tYGKd3reMep/R9pIrMycju1pnh8kO70TRg0axhBGWHsEFEOX1SO0wGiQihBGZAgoihBFCDMNMIOjLEQRwkwDzOD8HyXafl/QiNnrAAAAAElFTkSuQmCC;" vertex="1" parent="1">
          <mxGeometry x="560" y="170" width="51.02" height="50" as="geometry" />
        </mxCell>
      </root>
    </mxGraphModel>
  </diagram>
</mxfile>
